%TF.GenerationSoftware,KiCad,Pcbnew,(6.0.5)*%
%TF.CreationDate,2022-06-28T11:16:47+05:30*%
%TF.ProjectId,MecCam_pro,4d656343-616d-45f7-9072-6f2e6b696361,rev?*%
%TF.SameCoordinates,Original*%
%TF.FileFunction,Soldermask,Top*%
%TF.FilePolarity,Negative*%
%FSLAX46Y46*%
G04 Gerber Fmt 4.6, Leading zero omitted, Abs format (unit mm)*
G04 Created by KiCad (PCBNEW (6.0.5)) date 2022-06-28 11:16:47*
%MOMM*%
%LPD*%
G01*
G04 APERTURE LIST*
G04 Aperture macros list*
%AMRoundRect*
0 Rectangle with rounded corners*
0 $1 Rounding radius*
0 $2 $3 $4 $5 $6 $7 $8 $9 X,Y pos of 4 corners*
0 Add a 4 corners polygon primitive as box body*
4,1,4,$2,$3,$4,$5,$6,$7,$8,$9,$2,$3,0*
0 Add four circle primitives for the rounded corners*
1,1,$1+$1,$2,$3*
1,1,$1+$1,$4,$5*
1,1,$1+$1,$6,$7*
1,1,$1+$1,$8,$9*
0 Add four rect primitives between the rounded corners*
20,1,$1+$1,$2,$3,$4,$5,0*
20,1,$1+$1,$4,$5,$6,$7,0*
20,1,$1+$1,$6,$7,$8,$9,0*
20,1,$1+$1,$8,$9,$2,$3,0*%
%AMRotRect*
0 Rectangle, with rotation*
0 The origin of the aperture is its center*
0 $1 length*
0 $2 width*
0 $3 Rotation angle, in degrees counterclockwise*
0 Add horizontal line*
21,1,$1,$2,0,0,$3*%
G04 Aperture macros list end*
%ADD10RoundRect,0.225000X0.225000X0.250000X-0.225000X0.250000X-0.225000X-0.250000X0.225000X-0.250000X0*%
%ADD11R,1.900000X1.000000*%
%ADD12R,3.150000X1.000000*%
%ADD13RoundRect,0.200000X-0.200000X-0.275000X0.200000X-0.275000X0.200000X0.275000X-0.200000X0.275000X0*%
%ADD14RoundRect,0.250000X0.262500X0.450000X-0.262500X0.450000X-0.262500X-0.450000X0.262500X-0.450000X0*%
%ADD15R,2.000000X1.780000*%
%ADD16RotRect,1.600000X0.550000X225.000000*%
%ADD17RotRect,1.600000X0.550000X315.000000*%
%ADD18R,4.500000X2.000000*%
%ADD19RoundRect,0.225000X-0.225000X-0.250000X0.225000X-0.250000X0.225000X0.250000X-0.225000X0.250000X0*%
%ADD20RoundRect,0.243750X0.243750X0.456250X-0.243750X0.456250X-0.243750X-0.456250X0.243750X-0.456250X0*%
%ADD21RoundRect,0.250000X0.650000X-0.325000X0.650000X0.325000X-0.650000X0.325000X-0.650000X-0.325000X0*%
%ADD22R,1.905000X2.000000*%
%ADD23O,1.905000X2.000000*%
%ADD24RoundRect,0.243750X-0.243750X-0.456250X0.243750X-0.456250X0.243750X0.456250X-0.243750X0.456250X0*%
%ADD25R,1.600000X1.600000*%
%ADD26C,1.600000*%
%ADD27R,2.500000X1.250000*%
%ADD28R,1.000000X3.150000*%
%ADD29RoundRect,0.250000X-1.050000X-0.550000X1.050000X-0.550000X1.050000X0.550000X-1.050000X0.550000X0*%
%ADD30R,2.510000X1.000000*%
%ADD31RoundRect,0.250000X-1.500000X-0.550000X1.500000X-0.550000X1.500000X0.550000X-1.500000X0.550000X0*%
%ADD32RoundRect,0.250000X-0.650000X0.325000X-0.650000X-0.325000X0.650000X-0.325000X0.650000X0.325000X0*%
%ADD33RoundRect,0.200000X0.200000X0.275000X-0.200000X0.275000X-0.200000X-0.275000X0.200000X-0.275000X0*%
%ADD34C,0.800000*%
%ADD35C,5.400000*%
%ADD36C,0.700000*%
%ADD37C,4.400000*%
%ADD38R,1.700000X1.700000*%
%ADD39R,3.000000X3.000000*%
%ADD40C,3.000000*%
G04 APERTURE END LIST*
D10*
%TO.C,C6*%
X96525000Y-83000000D03*
X94975000Y-83000000D03*
%TD*%
D11*
%TO.C,J13*%
X113050000Y-136360000D03*
X109750000Y-138900000D03*
X113050000Y-141440000D03*
X109750000Y-143980000D03*
X113050000Y-146520000D03*
X109750000Y-149060000D03*
X113050000Y-151600000D03*
X109750000Y-154140000D03*
%TD*%
D12*
%TO.C,J3*%
X85475000Y-118730000D03*
X90525000Y-118730000D03*
X85475000Y-121270000D03*
X90525000Y-121270000D03*
%TD*%
D13*
%TO.C,R6*%
X111175000Y-96300000D03*
X112825000Y-96300000D03*
%TD*%
D14*
%TO.C,R3*%
X90587500Y-106300000D03*
X92412500Y-106300000D03*
%TD*%
D15*
%TO.C,U1*%
X119260000Y-91110000D03*
X119260000Y-93650000D03*
X119260000Y-96190000D03*
X119260000Y-98730000D03*
X119260000Y-101270000D03*
X119260000Y-103810000D03*
X119260000Y-106350000D03*
X119260000Y-108890000D03*
X130740000Y-108890000D03*
X130740000Y-106350000D03*
X130740000Y-103810000D03*
X130740000Y-101270000D03*
X130740000Y-98730000D03*
X130740000Y-96190000D03*
X130740000Y-93650000D03*
X130740000Y-91110000D03*
%TD*%
%TO.C,U3*%
X69260000Y-91110000D03*
X69260000Y-93650000D03*
X69260000Y-96190000D03*
X69260000Y-98730000D03*
X69260000Y-101270000D03*
X69260000Y-103810000D03*
X69260000Y-106350000D03*
X69260000Y-108890000D03*
X80740000Y-108890000D03*
X80740000Y-106350000D03*
X80740000Y-103810000D03*
X80740000Y-101270000D03*
X80740000Y-98730000D03*
X80740000Y-96190000D03*
X80740000Y-93650000D03*
X80740000Y-91110000D03*
%TD*%
D16*
%TO.C,U4*%
X104985103Y-98974695D03*
X104419417Y-98409010D03*
X103853732Y-97843324D03*
X103288047Y-97277639D03*
X102722361Y-96711953D03*
X102156676Y-96146268D03*
X101590990Y-95580583D03*
X101025305Y-95014897D03*
D17*
X98974695Y-95014897D03*
X98409010Y-95580583D03*
X97843324Y-96146268D03*
X97277639Y-96711953D03*
X96711953Y-97277639D03*
X96146268Y-97843324D03*
X95580583Y-98409010D03*
X95014897Y-98974695D03*
D16*
X95014897Y-101025305D03*
X95580583Y-101590990D03*
X96146268Y-102156676D03*
X96711953Y-102722361D03*
X97277639Y-103288047D03*
X97843324Y-103853732D03*
X98409010Y-104419417D03*
X98974695Y-104985103D03*
D17*
X101025305Y-104985103D03*
X101590990Y-104419417D03*
X102156676Y-103853732D03*
X102722361Y-103288047D03*
X103288047Y-102722361D03*
X103853732Y-102156676D03*
X104419417Y-101590990D03*
X104985103Y-101025305D03*
%TD*%
D18*
%TO.C,Y1*%
X104250000Y-88000000D03*
X95750000Y-88000000D03*
%TD*%
D19*
%TO.C,C5*%
X103475000Y-83000000D03*
X105025000Y-83000000D03*
%TD*%
D20*
%TO.C,D2*%
X112937500Y-92400000D03*
X111062500Y-92400000D03*
%TD*%
D14*
%TO.C,R4*%
X87087500Y-96000000D03*
X88912500Y-96000000D03*
%TD*%
%TO.C,R2*%
X86075000Y-106300000D03*
X87900000Y-106300000D03*
%TD*%
D12*
%TO.C,J16*%
X78175000Y-77710000D03*
X83225000Y-77710000D03*
X78175000Y-80250000D03*
X83225000Y-80250000D03*
X78175000Y-82790000D03*
X83225000Y-82790000D03*
%TD*%
D21*
%TO.C,C2*%
X108500000Y-69475000D03*
X108500000Y-66525000D03*
%TD*%
D22*
%TO.C,U2*%
X97460000Y-68000000D03*
D23*
X100000000Y-68000000D03*
X102540000Y-68000000D03*
%TD*%
D24*
%TO.C,D1*%
X72062500Y-69700000D03*
X73937500Y-69700000D03*
%TD*%
D25*
%TO.C,BZ1*%
X62100000Y-135000000D03*
D26*
X68600000Y-135000000D03*
%TD*%
D27*
%TO.C,SW1*%
X81200000Y-53500000D03*
X81200000Y-56000000D03*
X81200000Y-58500000D03*
%TD*%
D28*
%TO.C,J9*%
X78450000Y-141475000D03*
X78450000Y-146525000D03*
%TD*%
D11*
%TO.C,J12*%
X86950000Y-136360000D03*
X90250000Y-138900000D03*
X86950000Y-141440000D03*
X90250000Y-143980000D03*
X86950000Y-146520000D03*
X90250000Y-149060000D03*
X86950000Y-151600000D03*
X90250000Y-154140000D03*
%TD*%
D29*
%TO.C,C4*%
X108700000Y-106500000D03*
X112300000Y-106500000D03*
%TD*%
D13*
%TO.C,R5*%
X74150000Y-120000000D03*
X75800000Y-120000000D03*
%TD*%
D30*
%TO.C,J5*%
X113075000Y-128850000D03*
X109765000Y-126310000D03*
X113075000Y-123770000D03*
X109765000Y-121230000D03*
X113075000Y-118690000D03*
X109765000Y-116150000D03*
%TD*%
D31*
%TO.C,C3*%
X116150000Y-78000000D03*
X121750000Y-78000000D03*
%TD*%
D32*
%TO.C,C1*%
X91500000Y-66525000D03*
X91500000Y-69475000D03*
%TD*%
D33*
%TO.C,R1*%
X73825000Y-65000000D03*
X72175000Y-65000000D03*
%TD*%
D30*
%TO.C,J6*%
X119845000Y-116150000D03*
X123155000Y-118690000D03*
X119845000Y-121230000D03*
X123155000Y-123770000D03*
X119845000Y-126310000D03*
X123155000Y-128850000D03*
%TD*%
D34*
%TO.C,H1*%
X139431891Y-48431891D03*
X135975000Y-47000000D03*
X140025000Y-47000000D03*
X139431891Y-45568109D03*
D35*
X138000000Y-47000000D03*
D34*
X138000000Y-44975000D03*
X136568109Y-48431891D03*
X136568109Y-45568109D03*
X138000000Y-49025000D03*
%TD*%
%TO.C,H2*%
X138000000Y-155025000D03*
D35*
X138000000Y-153000000D03*
D34*
X136568109Y-151568109D03*
X139431891Y-151568109D03*
X135975000Y-153000000D03*
X136568109Y-154431891D03*
X138000000Y-150975000D03*
X140025000Y-153000000D03*
X139431891Y-154431891D03*
%TD*%
%TO.C,H3*%
X60568109Y-45568109D03*
X63431891Y-48431891D03*
X63431891Y-45568109D03*
D35*
X62000000Y-47000000D03*
D34*
X64025000Y-47000000D03*
X59975000Y-47000000D03*
X62000000Y-49025000D03*
X62000000Y-44975000D03*
X60568109Y-48431891D03*
%TD*%
%TO.C,H4*%
X62000000Y-150975000D03*
X62000000Y-155025000D03*
X63431891Y-151568109D03*
D35*
X62000000Y-153000000D03*
D34*
X64025000Y-153000000D03*
X60568109Y-151568109D03*
X59975000Y-153000000D03*
X63431891Y-154431891D03*
X60568109Y-154431891D03*
%TD*%
D36*
%TO.C,H5*%
X119900000Y-47000000D03*
X122716726Y-48166726D03*
X120383274Y-48166726D03*
X121550000Y-45350000D03*
X121550000Y-48650000D03*
X123200000Y-47000000D03*
D37*
X121550000Y-47000000D03*
D36*
X122716726Y-45833274D03*
X120383274Y-45833274D03*
%TD*%
D37*
%TO.C,H6*%
X121550000Y-65000000D03*
D36*
X122716726Y-66166726D03*
X121550000Y-66650000D03*
X120383274Y-66166726D03*
X122716726Y-63833274D03*
X123200000Y-65000000D03*
X120383274Y-63833274D03*
X121550000Y-63350000D03*
X119900000Y-65000000D03*
%TD*%
%TO.C,H7*%
X78450000Y-48650000D03*
X78450000Y-45350000D03*
X77283274Y-48166726D03*
X77283274Y-45833274D03*
X80100000Y-47000000D03*
D37*
X78450000Y-47000000D03*
D36*
X79616726Y-45833274D03*
X76800000Y-47000000D03*
X79616726Y-48166726D03*
%TD*%
%TO.C,H8*%
X78450000Y-66650000D03*
X76800000Y-65000000D03*
X77283274Y-66166726D03*
X78450000Y-63350000D03*
X79616726Y-66166726D03*
X77283274Y-63833274D03*
X79616726Y-63833274D03*
D37*
X78450000Y-65000000D03*
D36*
X80100000Y-65000000D03*
%TD*%
%TO.C,H9*%
X98833274Y-81416726D03*
D37*
X100000000Y-80250000D03*
D36*
X101166726Y-79083274D03*
X100000000Y-81900000D03*
X101166726Y-81416726D03*
X101650000Y-80250000D03*
X100000000Y-78600000D03*
X98833274Y-79083274D03*
X98350000Y-80250000D03*
%TD*%
%TO.C,H10*%
X100000000Y-118100000D03*
D37*
X100000000Y-119750000D03*
D36*
X98833274Y-118583274D03*
X101166726Y-120916726D03*
X98833274Y-120916726D03*
X101650000Y-119750000D03*
X98350000Y-119750000D03*
X100000000Y-121400000D03*
X101166726Y-118583274D03*
%TD*%
%TO.C,H11*%
X77283274Y-136166726D03*
X78450000Y-133350000D03*
X78450000Y-136650000D03*
D37*
X78450000Y-135000000D03*
D36*
X79616726Y-133833274D03*
X79616726Y-136166726D03*
X76800000Y-135000000D03*
X77283274Y-133833274D03*
X80100000Y-135000000D03*
%TD*%
%TO.C,H12*%
X79616726Y-151833274D03*
D37*
X78450000Y-153000000D03*
D36*
X79616726Y-154166726D03*
X77283274Y-151833274D03*
X78450000Y-151350000D03*
X78450000Y-154650000D03*
X76800000Y-153000000D03*
X80100000Y-153000000D03*
X77283274Y-154166726D03*
%TD*%
%TO.C,H13*%
X120383274Y-136166726D03*
D37*
X121550000Y-135000000D03*
D36*
X121550000Y-136650000D03*
X122716726Y-133833274D03*
X123200000Y-135000000D03*
X119900000Y-135000000D03*
X121550000Y-133350000D03*
X122716726Y-136166726D03*
X120383274Y-133833274D03*
%TD*%
%TO.C,H14*%
X122716726Y-154166726D03*
D37*
X121550000Y-153000000D03*
D36*
X120383274Y-151833274D03*
X121550000Y-151350000D03*
X119900000Y-153000000D03*
X123200000Y-153000000D03*
X121550000Y-154650000D03*
X120383274Y-154166726D03*
X122716726Y-151833274D03*
%TD*%
D38*
%TO.C,J1*%
X114300000Y-139700000D03*
%TD*%
%TO.C,J11*%
X85700000Y-60300000D03*
%TD*%
%TO.C,J7*%
X114300000Y-51700000D03*
%TD*%
%TO.C,J2*%
X114300000Y-148300000D03*
%TD*%
%TO.C,J10*%
X85700000Y-51700000D03*
%TD*%
%TO.C,J15*%
X85700000Y-139700000D03*
%TD*%
%TO.C,J14*%
X85700000Y-148300000D03*
%TD*%
%TO.C,J8*%
X114300000Y-60300000D03*
%TD*%
D39*
%TO.C,J4*%
X97460000Y-49500000D03*
D40*
X102540000Y-49500000D03*
%TD*%
M02*
