%TF.GenerationSoftware,KiCad,Pcbnew,(6.0.5)*%
%TF.CreationDate,2022-06-28T11:16:47+05:30*%
%TF.ProjectId,MecCam_pro,4d656343-616d-45f7-9072-6f2e6b696361,rev?*%
%TF.SameCoordinates,Original*%
%TF.FileFunction,Copper,L2,Bot*%
%TF.FilePolarity,Positive*%
%FSLAX46Y46*%
G04 Gerber Fmt 4.6, Leading zero omitted, Abs format (unit mm)*
G04 Created by KiCad (PCBNEW (6.0.5)) date 2022-06-28 11:16:47*
%MOMM*%
%LPD*%
G01*
G04 APERTURE LIST*
%TA.AperFunction,ComponentPad*%
%ADD10R,1.905000X2.000000*%
%TD*%
%TA.AperFunction,ComponentPad*%
%ADD11O,1.905000X2.000000*%
%TD*%
%TA.AperFunction,ComponentPad*%
%ADD12R,1.600000X1.600000*%
%TD*%
%TA.AperFunction,ComponentPad*%
%ADD13C,1.600000*%
%TD*%
%TA.AperFunction,ComponentPad*%
%ADD14C,0.800000*%
%TD*%
%TA.AperFunction,ComponentPad*%
%ADD15C,5.400000*%
%TD*%
%TA.AperFunction,ComponentPad*%
%ADD16C,0.700000*%
%TD*%
%TA.AperFunction,ComponentPad*%
%ADD17C,4.400000*%
%TD*%
%TA.AperFunction,ComponentPad*%
%ADD18R,1.700000X1.700000*%
%TD*%
%TA.AperFunction,ComponentPad*%
%ADD19R,3.000000X3.000000*%
%TD*%
%TA.AperFunction,ComponentPad*%
%ADD20C,3.000000*%
%TD*%
%TA.AperFunction,ViaPad*%
%ADD21C,0.800000*%
%TD*%
%TA.AperFunction,Conductor*%
%ADD22C,0.250000*%
%TD*%
%TA.AperFunction,Conductor*%
%ADD23C,0.750000*%
%TD*%
G04 APERTURE END LIST*
D10*
%TO.P,U2,1,IN*%
%TO.N,+12V*%
X97460000Y-68000000D03*
D11*
%TO.P,U2,2,GND*%
%TO.N,GND*%
X100000000Y-68000000D03*
%TO.P,U2,3,OUT*%
%TO.N,Net-(C2-Pad1)*%
X102540000Y-68000000D03*
%TD*%
D12*
%TO.P,BZ1,1,-*%
%TO.N,Net-(BZ1-Pad1)*%
X62100000Y-135000000D03*
D13*
%TO.P,BZ1,2,+*%
%TO.N,GND*%
X68600000Y-135000000D03*
%TD*%
D14*
%TO.P,H1,1,1*%
%TO.N,GND*%
X139431891Y-48431891D03*
X135975000Y-47000000D03*
X140025000Y-47000000D03*
X139431891Y-45568109D03*
D15*
X138000000Y-47000000D03*
D14*
X138000000Y-44975000D03*
X136568109Y-48431891D03*
X136568109Y-45568109D03*
X138000000Y-49025000D03*
%TD*%
%TO.P,H2,1,1*%
%TO.N,GND*%
X138000000Y-155025000D03*
D15*
X138000000Y-153000000D03*
D14*
X136568109Y-151568109D03*
X139431891Y-151568109D03*
X135975000Y-153000000D03*
X136568109Y-154431891D03*
X138000000Y-150975000D03*
X140025000Y-153000000D03*
X139431891Y-154431891D03*
%TD*%
%TO.P,H3,1,1*%
%TO.N,GND*%
X60568109Y-45568109D03*
X63431891Y-48431891D03*
X63431891Y-45568109D03*
D15*
X62000000Y-47000000D03*
D14*
X64025000Y-47000000D03*
X59975000Y-47000000D03*
X62000000Y-49025000D03*
X62000000Y-44975000D03*
X60568109Y-48431891D03*
%TD*%
%TO.P,H4,1,1*%
%TO.N,GND*%
X62000000Y-150975000D03*
X62000000Y-155025000D03*
X63431891Y-151568109D03*
D15*
X62000000Y-153000000D03*
D14*
X64025000Y-153000000D03*
X60568109Y-151568109D03*
X59975000Y-153000000D03*
X63431891Y-154431891D03*
X60568109Y-154431891D03*
%TD*%
D16*
%TO.P,H5,1,1*%
%TO.N,GND*%
X119900000Y-47000000D03*
X122716726Y-48166726D03*
X120383274Y-48166726D03*
X121550000Y-45350000D03*
X121550000Y-48650000D03*
X123200000Y-47000000D03*
D17*
X121550000Y-47000000D03*
D16*
X122716726Y-45833274D03*
X120383274Y-45833274D03*
%TD*%
D17*
%TO.P,H6,1,1*%
%TO.N,GND*%
X121550000Y-65000000D03*
D16*
X122716726Y-66166726D03*
X121550000Y-66650000D03*
X120383274Y-66166726D03*
X122716726Y-63833274D03*
X123200000Y-65000000D03*
X120383274Y-63833274D03*
X121550000Y-63350000D03*
X119900000Y-65000000D03*
%TD*%
%TO.P,H7,1,1*%
%TO.N,GND*%
X78450000Y-48650000D03*
X78450000Y-45350000D03*
X77283274Y-48166726D03*
X77283274Y-45833274D03*
X80100000Y-47000000D03*
D17*
X78450000Y-47000000D03*
D16*
X79616726Y-45833274D03*
X76800000Y-47000000D03*
X79616726Y-48166726D03*
%TD*%
%TO.P,H8,1,1*%
%TO.N,GND*%
X78450000Y-66650000D03*
X76800000Y-65000000D03*
X77283274Y-66166726D03*
X78450000Y-63350000D03*
X79616726Y-66166726D03*
X77283274Y-63833274D03*
X79616726Y-63833274D03*
D17*
X78450000Y-65000000D03*
D16*
X80100000Y-65000000D03*
%TD*%
%TO.P,H9,1,1*%
%TO.N,GND*%
X98833274Y-81416726D03*
D17*
X100000000Y-80250000D03*
D16*
X101166726Y-79083274D03*
X100000000Y-81900000D03*
X101166726Y-81416726D03*
X101650000Y-80250000D03*
X100000000Y-78600000D03*
X98833274Y-79083274D03*
X98350000Y-80250000D03*
%TD*%
%TO.P,H10,1,1*%
%TO.N,GND*%
X100000000Y-118100000D03*
D17*
X100000000Y-119750000D03*
D16*
X98833274Y-118583274D03*
X101166726Y-120916726D03*
X98833274Y-120916726D03*
X101650000Y-119750000D03*
X98350000Y-119750000D03*
X100000000Y-121400000D03*
X101166726Y-118583274D03*
%TD*%
%TO.P,H11,1,1*%
%TO.N,GND*%
X77283274Y-136166726D03*
X78450000Y-133350000D03*
X78450000Y-136650000D03*
D17*
X78450000Y-135000000D03*
D16*
X79616726Y-133833274D03*
X79616726Y-136166726D03*
X76800000Y-135000000D03*
X77283274Y-133833274D03*
X80100000Y-135000000D03*
%TD*%
%TO.P,H12,1,1*%
%TO.N,GND*%
X79616726Y-151833274D03*
D17*
X78450000Y-153000000D03*
D16*
X79616726Y-154166726D03*
X77283274Y-151833274D03*
X78450000Y-151350000D03*
X78450000Y-154650000D03*
X76800000Y-153000000D03*
X80100000Y-153000000D03*
X77283274Y-154166726D03*
%TD*%
%TO.P,H13,1,1*%
%TO.N,GND*%
X120383274Y-136166726D03*
D17*
X121550000Y-135000000D03*
D16*
X121550000Y-136650000D03*
X122716726Y-133833274D03*
X123200000Y-135000000D03*
X119900000Y-135000000D03*
X121550000Y-133350000D03*
X122716726Y-136166726D03*
X120383274Y-133833274D03*
%TD*%
%TO.P,H14,1,1*%
%TO.N,GND*%
X122716726Y-154166726D03*
D17*
X121550000Y-153000000D03*
D16*
X120383274Y-151833274D03*
X121550000Y-151350000D03*
X119900000Y-153000000D03*
X123200000Y-153000000D03*
X121550000Y-154650000D03*
X120383274Y-154166726D03*
X122716726Y-151833274D03*
%TD*%
D18*
%TO.P,J1,1,Pin_1*%
%TO.N,Net-(J1-Pad1)*%
X114300000Y-139700000D03*
%TD*%
%TO.P,J11,1,Pin_1*%
%TO.N,Net-(J11-Pad1)*%
X85700000Y-60300000D03*
%TD*%
%TO.P,J7,1,Pin_1*%
%TO.N,Net-(J7-Pad1)*%
X114300000Y-51700000D03*
%TD*%
%TO.P,J2,1,Pin_1*%
%TO.N,Net-(J2-Pad1)*%
X114300000Y-148300000D03*
%TD*%
%TO.P,J10,1,Pin_1*%
%TO.N,Net-(J10-Pad1)*%
X85700000Y-51700000D03*
%TD*%
%TO.P,J15,1,Pin_1*%
%TO.N,Net-(J15-Pad1)*%
X85700000Y-139700000D03*
%TD*%
%TO.P,J14,1,Pin_1*%
%TO.N,Net-(J14-Pad1)*%
X85700000Y-148300000D03*
%TD*%
%TO.P,J8,1,Pin_1*%
%TO.N,Net-(J8-Pad1)*%
X114300000Y-60300000D03*
%TD*%
D19*
%TO.P,J4,1,Pin_1*%
%TO.N,GND*%
X97460000Y-49500000D03*
D20*
%TO.P,J4,2,Pin_2*%
%TO.N,+12V*%
X102540000Y-49500000D03*
%TD*%
D21*
%TO.N,GND*%
X128300000Y-98700000D03*
X94200000Y-105300000D03*
X78300000Y-100000000D03*
X83225000Y-84075000D03*
X104100000Y-95000000D03*
%TO.N,+5V*%
X128400000Y-91100000D03*
X105900000Y-150700000D03*
X102400000Y-73600000D03*
X105500000Y-115600000D03*
X80740000Y-88960000D03*
%TO.N,+3V3*%
X99400000Y-112600000D03*
X95500000Y-103900000D03*
%TO.N,Net-(J7-Pad1)*%
X125500000Y-88700000D03*
%TO.N,Net-(J10-Pad1)*%
X72800000Y-85200000D03*
%TO.N,Net-(J11-Pad1)*%
X74300000Y-92800000D03*
%TO.N,Net-(J15-Pad1)*%
X78300000Y-109900000D03*
%TO.N,/DM3*%
X77200000Y-106300000D03*
X99600000Y-101200000D03*
%TO.N,/DM4*%
X99500000Y-102300000D03*
X84000000Y-104800000D03*
%TO.N,/M4EN*%
X90600000Y-108900000D03*
X83600000Y-108900000D03*
%TO.N,/M3EN*%
X71075500Y-91147219D03*
X98200000Y-100400000D03*
%TO.N,Net-(D2-Pad2)*%
X100000000Y-105600000D03*
X109500000Y-94400000D03*
%TO.N,Net-(J1-Pad1)*%
X116100000Y-100200000D03*
%TO.N,Net-(J2-Pad1)*%
X125400000Y-109300000D03*
%TO.N,Net-(J8-Pad1)*%
X122800000Y-88800000D03*
%TO.N,Net-(J14-Pad1)*%
X77000000Y-102700000D03*
%TO.N,Net-(R5-Pad2)*%
X100200000Y-96600000D03*
X98195864Y-110324500D03*
%TD*%
D22*
%TO.N,+3V3*%
X95500000Y-111500000D02*
X96600000Y-112600000D01*
X96600000Y-112600000D02*
X99400000Y-112600000D01*
X95500000Y-103900000D02*
X95500000Y-111500000D01*
D23*
%TO.N,+5V*%
X112400000Y-94300000D02*
X112400000Y-90800000D01*
X104300000Y-115600000D02*
X104300000Y-105900000D01*
X105900000Y-150700000D02*
X104300000Y-149100000D01*
X104300000Y-149100000D02*
X104300000Y-115600000D01*
X112400000Y-97800000D02*
X112400000Y-94300000D01*
X108100000Y-73600000D02*
X112400000Y-77900000D01*
X104300000Y-105900000D02*
X112400000Y-97800000D01*
X128400000Y-91100000D02*
X112700000Y-91100000D01*
X95300000Y-76300000D02*
X93700000Y-76300000D01*
X112400000Y-90800000D02*
X112400000Y-83600000D01*
X102400000Y-73600000D02*
X108100000Y-73600000D01*
X93400000Y-76300000D02*
X95300000Y-76300000D01*
X102400000Y-73600000D02*
X102400000Y-75300000D01*
X102400000Y-75300000D02*
X101400000Y-76300000D01*
X105500000Y-115600000D02*
X104300000Y-115600000D01*
X80740000Y-88960000D02*
X93400000Y-76300000D01*
X112400000Y-77900000D02*
X112400000Y-83600000D01*
X112700000Y-91100000D02*
X112400000Y-90800000D01*
X101400000Y-76300000D02*
X95300000Y-76300000D01*
%TO.N,Net-(J7-Pad1)*%
X117250000Y-76550000D02*
X117250000Y-54650000D01*
X125500000Y-88700000D02*
X125500000Y-84800000D01*
X117250000Y-54650000D02*
X114300000Y-51700000D01*
X125500000Y-84800000D02*
X117250000Y-76550000D01*
%TO.N,Net-(J10-Pad1)*%
X78700000Y-51700000D02*
X85700000Y-51700000D01*
X72800000Y-57600000D02*
X78700000Y-51700000D01*
X72800000Y-85200000D02*
X72800000Y-57600000D01*
%TO.N,Net-(J11-Pad1)*%
X76278224Y-85378224D02*
X85700000Y-75956449D01*
X76278224Y-85378224D02*
X74300000Y-87356448D01*
X85700000Y-60300000D02*
X85700000Y-75956449D01*
X74300000Y-87356448D02*
X74300000Y-92800000D01*
%TO.N,Net-(J15-Pad1)*%
X85700000Y-136600000D02*
X78700000Y-129600000D01*
X85700000Y-139700000D02*
X85700000Y-136600000D01*
X78300000Y-109900000D02*
X78300000Y-129200000D01*
X78300000Y-129200000D02*
X78700000Y-129600000D01*
D22*
%TO.N,/DM3*%
X79200000Y-106300000D02*
X84300000Y-101200000D01*
X84300000Y-101200000D02*
X99600000Y-101200000D01*
X77200000Y-106300000D02*
X79200000Y-106300000D01*
%TO.N,/DM4*%
X84000000Y-104800000D02*
X86500000Y-102300000D01*
X86500000Y-102300000D02*
X99500000Y-102300000D01*
%TO.N,/M4EN*%
X90600000Y-108900000D02*
X83600000Y-108900000D01*
%TO.N,/M3EN*%
X98200000Y-100400000D02*
X92650000Y-94850000D01*
X92050000Y-94850000D02*
X72150000Y-94850000D01*
X92650000Y-94850000D02*
X92050000Y-94850000D01*
X72150000Y-94850000D02*
X71075500Y-93775500D01*
X71075500Y-93775500D02*
X71075500Y-91147219D01*
%TO.N,Net-(D2-Pad2)*%
X100800000Y-105500000D02*
X109500000Y-96800000D01*
X100700000Y-105600000D02*
X100000000Y-105600000D01*
X109500000Y-96800000D02*
X109500000Y-94400000D01*
X100800000Y-105500000D02*
X100700000Y-105600000D01*
D23*
%TO.N,Net-(J1-Pad1)*%
X114300000Y-139700000D02*
X115600000Y-138400000D01*
X115600000Y-138400000D02*
X116100000Y-137900000D01*
X116100000Y-137900000D02*
X116100000Y-100200000D01*
%TO.N,Net-(J2-Pad1)*%
X121600000Y-148300000D02*
X125400000Y-144500000D01*
X125400000Y-144500000D02*
X125400000Y-111200000D01*
X114300000Y-148300000D02*
X121600000Y-148300000D01*
X125400000Y-111200000D02*
X125400000Y-109300000D01*
%TO.N,Net-(J8-Pad1)*%
X114300000Y-77600000D02*
X114300000Y-60300000D01*
X122800000Y-88800000D02*
X122800000Y-86100000D01*
X122800000Y-86100000D02*
X114300000Y-77600000D01*
%TO.N,Net-(J14-Pad1)*%
X85700000Y-148300000D02*
X78100000Y-148300000D01*
X74600000Y-144800000D02*
X74600000Y-107700000D01*
X77000000Y-102700000D02*
X74600000Y-105100000D01*
X78100000Y-148300000D02*
X74600000Y-144800000D01*
X74600000Y-105100000D02*
X74600000Y-107700000D01*
D22*
%TO.N,Net-(R5-Pad2)*%
X98350000Y-104650000D02*
X98350000Y-110170364D01*
X101700000Y-98100000D02*
X101700000Y-101300000D01*
X98350000Y-110170364D02*
X98195864Y-110324500D01*
X101700000Y-101300000D02*
X98350000Y-104650000D01*
X100200000Y-96600000D02*
X101700000Y-98100000D01*
%TD*%
%TA.AperFunction,Conductor*%
%TO.N,GND*%
G36*
X137970018Y-43010000D02*
G01*
X137984852Y-43012310D01*
X137984855Y-43012310D01*
X137993724Y-43013691D01*
X138011033Y-43011428D01*
X138013656Y-43011085D01*
X138035810Y-43010156D01*
X138362472Y-43025258D01*
X138374060Y-43026332D01*
X138727672Y-43075659D01*
X138739112Y-43077798D01*
X139086665Y-43159541D01*
X139097841Y-43162721D01*
X139267111Y-43219455D01*
X139436372Y-43276186D01*
X139447224Y-43280390D01*
X139773840Y-43424605D01*
X139784245Y-43429785D01*
X140096177Y-43603530D01*
X140106054Y-43609646D01*
X140400610Y-43811422D01*
X140409898Y-43818436D01*
X140684581Y-44046530D01*
X140693181Y-44054371D01*
X140945629Y-44306819D01*
X140953470Y-44315419D01*
X141181564Y-44590102D01*
X141188578Y-44599390D01*
X141390354Y-44893946D01*
X141396470Y-44903823D01*
X141570215Y-45215755D01*
X141575395Y-45226160D01*
X141719610Y-45552776D01*
X141723814Y-45563628D01*
X141738891Y-45608610D01*
X141835831Y-45897838D01*
X141837276Y-45902150D01*
X141840459Y-45913335D01*
X141871345Y-46044655D01*
X141922202Y-46260888D01*
X141924341Y-46272328D01*
X141973668Y-46625940D01*
X141974742Y-46637529D01*
X141989502Y-46956785D01*
X141988136Y-46981989D01*
X141987690Y-46984850D01*
X141987690Y-46984856D01*
X141986309Y-46993724D01*
X141987473Y-47002626D01*
X141987473Y-47002628D01*
X141990436Y-47025283D01*
X141991500Y-47041621D01*
X141991500Y-152950632D01*
X141990000Y-152970017D01*
X141989165Y-152975383D01*
X141986309Y-152993723D01*
X141987518Y-153002966D01*
X141988915Y-153013655D01*
X141989844Y-153035809D01*
X141974742Y-153362470D01*
X141973668Y-153374059D01*
X141924341Y-153727671D01*
X141922202Y-153739111D01*
X141856735Y-154017463D01*
X141840461Y-154086655D01*
X141837276Y-154097849D01*
X141723814Y-154436371D01*
X141719610Y-154447223D01*
X141575396Y-154773839D01*
X141570208Y-154784257D01*
X141410221Y-155071489D01*
X141396480Y-155096158D01*
X141390354Y-155106053D01*
X141188578Y-155400610D01*
X141181564Y-155409898D01*
X140953470Y-155684581D01*
X140945629Y-155693181D01*
X140693181Y-155945629D01*
X140684581Y-155953470D01*
X140409898Y-156181564D01*
X140400610Y-156188578D01*
X140106054Y-156390354D01*
X140096177Y-156396470D01*
X139784245Y-156570215D01*
X139773840Y-156575395D01*
X139447224Y-156719610D01*
X139436372Y-156723814D01*
X139267111Y-156780545D01*
X139097841Y-156837279D01*
X139086665Y-156840459D01*
X138754150Y-156918665D01*
X138739112Y-156922202D01*
X138727672Y-156924341D01*
X138374060Y-156973668D01*
X138362471Y-156974742D01*
X138043222Y-156989502D01*
X138018018Y-156988136D01*
X138015150Y-156987689D01*
X138015144Y-156987689D01*
X138006276Y-156986308D01*
X137997374Y-156987472D01*
X137997372Y-156987472D01*
X137986347Y-156988914D01*
X137974714Y-156990435D01*
X137958379Y-156991499D01*
X62049367Y-156991499D01*
X62029982Y-156989999D01*
X62015148Y-156987689D01*
X62015145Y-156987689D01*
X62006276Y-156986308D01*
X61988967Y-156988571D01*
X61986344Y-156988914D01*
X61964190Y-156989843D01*
X61637528Y-156974741D01*
X61625940Y-156973667D01*
X61272328Y-156924340D01*
X61260888Y-156922201D01*
X61245850Y-156918664D01*
X60913335Y-156840458D01*
X60902154Y-156837276D01*
X60732889Y-156780544D01*
X60563628Y-156723813D01*
X60552776Y-156719609D01*
X60226170Y-156575398D01*
X60215752Y-156570211D01*
X59903833Y-156396474D01*
X59893938Y-156390347D01*
X59599390Y-156188577D01*
X59590102Y-156181563D01*
X59315419Y-155953469D01*
X59306819Y-155945628D01*
X59054371Y-155693180D01*
X59046530Y-155684580D01*
X58846707Y-155443941D01*
X59921599Y-155443941D01*
X59921637Y-155444486D01*
X59927240Y-155452846D01*
X59949336Y-155473306D01*
X59954759Y-155477793D01*
X60237811Y-155686478D01*
X60243701Y-155690332D01*
X60548258Y-155866167D01*
X60554527Y-155869334D01*
X60876798Y-156010132D01*
X60883381Y-156012580D01*
X61219332Y-156116574D01*
X61226147Y-156118273D01*
X61571588Y-156184169D01*
X61578565Y-156185100D01*
X61929214Y-156212081D01*
X61936222Y-156212227D01*
X62287692Y-156199954D01*
X62294688Y-156199317D01*
X62642582Y-156147945D01*
X62649481Y-156146529D01*
X62989498Y-156056693D01*
X62996158Y-156054529D01*
X63324047Y-155927349D01*
X63330446Y-155924446D01*
X63642099Y-155761517D01*
X63648144Y-155757914D01*
X63939694Y-155561261D01*
X63945288Y-155557015D01*
X64067910Y-155452656D01*
X64076342Y-155439788D01*
X64070313Y-155429523D01*
X63727213Y-155086423D01*
X76728703Y-155086423D01*
X76736227Y-155096854D01*
X76875483Y-155209020D01*
X76881657Y-155213408D01*
X77152271Y-155382178D01*
X77158931Y-155385794D01*
X77447852Y-155520827D01*
X77454905Y-155523620D01*
X77757970Y-155622970D01*
X77765282Y-155624888D01*
X78078092Y-155687109D01*
X78085590Y-155688137D01*
X78403610Y-155712328D01*
X78411173Y-155712446D01*
X78729785Y-155698257D01*
X78737326Y-155697465D01*
X79051924Y-155645101D01*
X79059302Y-155643411D01*
X79365355Y-155553625D01*
X79372450Y-155551071D01*
X79665496Y-155425169D01*
X79672263Y-155421765D01*
X79948042Y-155261580D01*
X79954349Y-155257390D01*
X80164305Y-155098889D01*
X80172761Y-155087496D01*
X80172172Y-155086423D01*
X119828703Y-155086423D01*
X119836227Y-155096854D01*
X119975483Y-155209020D01*
X119981657Y-155213408D01*
X120252271Y-155382178D01*
X120258931Y-155385794D01*
X120547852Y-155520827D01*
X120554905Y-155523620D01*
X120857970Y-155622970D01*
X120865282Y-155624888D01*
X121178092Y-155687109D01*
X121185590Y-155688137D01*
X121503610Y-155712328D01*
X121511173Y-155712446D01*
X121829785Y-155698257D01*
X121837326Y-155697465D01*
X122151924Y-155645101D01*
X122159302Y-155643411D01*
X122465355Y-155553625D01*
X122472450Y-155551071D01*
X122721803Y-155443941D01*
X135921599Y-155443941D01*
X135921637Y-155444486D01*
X135927240Y-155452846D01*
X135949336Y-155473306D01*
X135954759Y-155477793D01*
X136237811Y-155686478D01*
X136243701Y-155690332D01*
X136548258Y-155866167D01*
X136554527Y-155869334D01*
X136876798Y-156010132D01*
X136883381Y-156012580D01*
X137219332Y-156116574D01*
X137226147Y-156118273D01*
X137571588Y-156184169D01*
X137578565Y-156185100D01*
X137929214Y-156212081D01*
X137936222Y-156212227D01*
X138287692Y-156199954D01*
X138294688Y-156199317D01*
X138642582Y-156147945D01*
X138649481Y-156146529D01*
X138989498Y-156056693D01*
X138996158Y-156054529D01*
X139324047Y-155927349D01*
X139330446Y-155924446D01*
X139642099Y-155761517D01*
X139648144Y-155757914D01*
X139939694Y-155561261D01*
X139945288Y-155557015D01*
X140067910Y-155452656D01*
X140076342Y-155439788D01*
X140070313Y-155429523D01*
X138012812Y-153372022D01*
X137998868Y-153364408D01*
X137997035Y-153364539D01*
X137990420Y-153368790D01*
X135929213Y-155429997D01*
X135921599Y-155443941D01*
X122721803Y-155443941D01*
X122765496Y-155425169D01*
X122772263Y-155421765D01*
X123048042Y-155261580D01*
X123054349Y-155257390D01*
X123264305Y-155098889D01*
X123272761Y-155087496D01*
X123266045Y-155075256D01*
X121562810Y-153372020D01*
X121548869Y-153364408D01*
X121547034Y-153364539D01*
X121540420Y-153368790D01*
X119835818Y-155073393D01*
X119828703Y-155086423D01*
X80172172Y-155086423D01*
X80166045Y-155075256D01*
X78462810Y-153372020D01*
X78448869Y-153364408D01*
X78447034Y-153364539D01*
X78440420Y-153368790D01*
X76735818Y-155073393D01*
X76728703Y-155086423D01*
X63727213Y-155086423D01*
X62012812Y-153372022D01*
X61998868Y-153364408D01*
X61997035Y-153364539D01*
X61990420Y-153368790D01*
X59929213Y-155429997D01*
X59921599Y-155443941D01*
X58846707Y-155443941D01*
X58818437Y-155409897D01*
X58811423Y-155400609D01*
X58609647Y-155106053D01*
X58603521Y-155096158D01*
X58589781Y-155071489D01*
X58429793Y-154784257D01*
X58424605Y-154773839D01*
X58280391Y-154447223D01*
X58276187Y-154436371D01*
X58162725Y-154097849D01*
X58159540Y-154086655D01*
X58143267Y-154017463D01*
X58077799Y-153739111D01*
X58075660Y-153727671D01*
X58026333Y-153374059D01*
X58025259Y-153362470D01*
X58010499Y-153043208D01*
X58011865Y-153018006D01*
X58012309Y-153015151D01*
X58013691Y-153006275D01*
X58010890Y-152984851D01*
X58009564Y-152974716D01*
X58008519Y-152958666D01*
X58787406Y-152958666D01*
X58802133Y-153310021D01*
X58802818Y-153317013D01*
X58856620Y-153664559D01*
X58858080Y-153671426D01*
X58950288Y-154010807D01*
X58952502Y-154017463D01*
X59081970Y-154344462D01*
X59084909Y-154350823D01*
X59250019Y-154661347D01*
X59253653Y-154667348D01*
X59452339Y-154957523D01*
X59456633Y-154963098D01*
X59547208Y-155068030D01*
X59560251Y-155076447D01*
X59570282Y-155070508D01*
X61627978Y-153012812D01*
X61634356Y-153001132D01*
X62364408Y-153001132D01*
X62364539Y-153002965D01*
X62368790Y-153009580D01*
X64430699Y-155071489D01*
X64444643Y-155079103D01*
X64445423Y-155079048D01*
X64453470Y-155073696D01*
X64458932Y-155067880D01*
X64463454Y-155062491D01*
X64674113Y-154780896D01*
X64678003Y-154775042D01*
X64855962Y-154471719D01*
X64859176Y-154465465D01*
X65002214Y-154144195D01*
X65004711Y-154137620D01*
X65111048Y-153802405D01*
X65112794Y-153795603D01*
X65181100Y-153450635D01*
X65182081Y-153443654D01*
X65211619Y-153091898D01*
X65211833Y-153087529D01*
X65213025Y-153002178D01*
X65212934Y-152997828D01*
X65211679Y-152975383D01*
X75737388Y-152975383D01*
X75753245Y-153293914D01*
X75754076Y-153301443D01*
X75808085Y-153615759D01*
X75809818Y-153623146D01*
X75901196Y-153928695D01*
X75903799Y-153935808D01*
X76031227Y-154228173D01*
X76034669Y-154234929D01*
X76196296Y-154509865D01*
X76200519Y-154516150D01*
X76351463Y-154713934D01*
X76362989Y-154722396D01*
X76375054Y-154715735D01*
X78077980Y-153012810D01*
X78084357Y-153001131D01*
X78814408Y-153001131D01*
X78814539Y-153002966D01*
X78818790Y-153009580D01*
X80523285Y-154714074D01*
X80536408Y-154721240D01*
X80546709Y-154713851D01*
X80650751Y-154586055D01*
X80655164Y-154579914D01*
X80825349Y-154310187D01*
X80829005Y-154303536D01*
X80965544Y-154015335D01*
X80968375Y-154008295D01*
X81069306Y-153705767D01*
X81071270Y-153698433D01*
X81135122Y-153385989D01*
X81136194Y-153378465D01*
X81162173Y-153059051D01*
X81162378Y-153054576D01*
X81162927Y-153002221D01*
X81162817Y-152997789D01*
X81161466Y-152975383D01*
X118837388Y-152975383D01*
X118853245Y-153293914D01*
X118854076Y-153301443D01*
X118908085Y-153615759D01*
X118909818Y-153623146D01*
X119001196Y-153928695D01*
X119003799Y-153935808D01*
X119131227Y-154228173D01*
X119134669Y-154234929D01*
X119296296Y-154509865D01*
X119300519Y-154516150D01*
X119451463Y-154713934D01*
X119462989Y-154722396D01*
X119475054Y-154715735D01*
X121177980Y-153012810D01*
X121184357Y-153001131D01*
X121914408Y-153001131D01*
X121914539Y-153002966D01*
X121918790Y-153009580D01*
X123623285Y-154714074D01*
X123636408Y-154721240D01*
X123646709Y-154713851D01*
X123750751Y-154586055D01*
X123755164Y-154579914D01*
X123925349Y-154310187D01*
X123929005Y-154303536D01*
X124065544Y-154015335D01*
X124068375Y-154008295D01*
X124169306Y-153705767D01*
X124171270Y-153698433D01*
X124235122Y-153385989D01*
X124236194Y-153378465D01*
X124262173Y-153059051D01*
X124262378Y-153054576D01*
X124262927Y-153002221D01*
X124262817Y-152997789D01*
X124260458Y-152958666D01*
X134787406Y-152958666D01*
X134802133Y-153310021D01*
X134802818Y-153317013D01*
X134856620Y-153664559D01*
X134858080Y-153671426D01*
X134950288Y-154010807D01*
X134952502Y-154017463D01*
X135081970Y-154344462D01*
X135084909Y-154350823D01*
X135250019Y-154661347D01*
X135253653Y-154667348D01*
X135452339Y-154957523D01*
X135456633Y-154963098D01*
X135547208Y-155068030D01*
X135560251Y-155076447D01*
X135570282Y-155070508D01*
X137627978Y-153012812D01*
X137634356Y-153001132D01*
X138364408Y-153001132D01*
X138364539Y-153002965D01*
X138368790Y-153009580D01*
X140430699Y-155071489D01*
X140444643Y-155079103D01*
X140445423Y-155079048D01*
X140453470Y-155073696D01*
X140458932Y-155067880D01*
X140463454Y-155062491D01*
X140674113Y-154780896D01*
X140678003Y-154775042D01*
X140855962Y-154471719D01*
X140859176Y-154465465D01*
X141002214Y-154144195D01*
X141004711Y-154137620D01*
X141111048Y-153802405D01*
X141112794Y-153795603D01*
X141181100Y-153450635D01*
X141182081Y-153443654D01*
X141211619Y-153091898D01*
X141211833Y-153087529D01*
X141213025Y-153002178D01*
X141212934Y-152997828D01*
X141193227Y-152645352D01*
X141192445Y-152638380D01*
X141133794Y-152291612D01*
X141132241Y-152284776D01*
X141035300Y-151946704D01*
X141032997Y-151940091D01*
X140898976Y-151614930D01*
X140895947Y-151608610D01*
X140726521Y-151300424D01*
X140722795Y-151294462D01*
X140520076Y-151007090D01*
X140515715Y-151001588D01*
X140453394Y-150931394D01*
X140440004Y-150923015D01*
X140430446Y-150928764D01*
X138372022Y-152987188D01*
X138364408Y-153001132D01*
X137634356Y-153001132D01*
X137635592Y-152998868D01*
X137635461Y-152997035D01*
X137631210Y-152990420D01*
X135570595Y-150929805D01*
X135556651Y-150922191D01*
X135556342Y-150922213D01*
X135547671Y-150928068D01*
X135512436Y-150966654D01*
X135507992Y-150972103D01*
X135301287Y-151256608D01*
X135297470Y-151262530D01*
X135123771Y-151568297D01*
X135120641Y-151574602D01*
X134982101Y-151897838D01*
X134979699Y-151904439D01*
X134878055Y-152241099D01*
X134876400Y-152247942D01*
X134812918Y-152593824D01*
X134812035Y-152600819D01*
X134787504Y-152951621D01*
X134787406Y-152958666D01*
X124260458Y-152958666D01*
X124243529Y-152677853D01*
X124242621Y-152670351D01*
X124185319Y-152356593D01*
X124183518Y-152349260D01*
X124088935Y-152044655D01*
X124086263Y-152037583D01*
X123955781Y-151746570D01*
X123952264Y-151739843D01*
X123787771Y-151466621D01*
X123783481Y-151460377D01*
X123647991Y-151286647D01*
X123636199Y-151278178D01*
X123624486Y-151284725D01*
X121922020Y-152987190D01*
X121914408Y-153001131D01*
X121184357Y-153001131D01*
X121185592Y-152998869D01*
X121185461Y-152997034D01*
X121181210Y-152990420D01*
X119476445Y-151285656D01*
X119463510Y-151278592D01*
X119452949Y-151286252D01*
X119332766Y-151437072D01*
X119328410Y-151443270D01*
X119161059Y-151714764D01*
X119157479Y-151721440D01*
X119023956Y-152011074D01*
X119021206Y-152018125D01*
X118923444Y-152321708D01*
X118921561Y-152329041D01*
X118860979Y-152642170D01*
X118859992Y-152649670D01*
X118837467Y-152967802D01*
X118837388Y-152975383D01*
X81161466Y-152975383D01*
X81143529Y-152677853D01*
X81142621Y-152670351D01*
X81085319Y-152356593D01*
X81083518Y-152349260D01*
X80988935Y-152044655D01*
X80986263Y-152037583D01*
X80855781Y-151746570D01*
X80852264Y-151739843D01*
X80687771Y-151466621D01*
X80683481Y-151460377D01*
X80547991Y-151286647D01*
X80536199Y-151278178D01*
X80524486Y-151284725D01*
X78822020Y-152987190D01*
X78814408Y-153001131D01*
X78084357Y-153001131D01*
X78085592Y-152998869D01*
X78085461Y-152997034D01*
X78081210Y-152990420D01*
X76376445Y-151285656D01*
X76363510Y-151278592D01*
X76352949Y-151286252D01*
X76232766Y-151437072D01*
X76228410Y-151443270D01*
X76061059Y-151714764D01*
X76057479Y-151721440D01*
X75923956Y-152011074D01*
X75921206Y-152018125D01*
X75823444Y-152321708D01*
X75821561Y-152329041D01*
X75760979Y-152642170D01*
X75759992Y-152649670D01*
X75737467Y-152967802D01*
X75737388Y-152975383D01*
X65211679Y-152975383D01*
X65193227Y-152645352D01*
X65192445Y-152638380D01*
X65133794Y-152291612D01*
X65132241Y-152284776D01*
X65035300Y-151946704D01*
X65032997Y-151940091D01*
X64898976Y-151614930D01*
X64895947Y-151608610D01*
X64726521Y-151300424D01*
X64722795Y-151294462D01*
X64520076Y-151007090D01*
X64515715Y-151001588D01*
X64453394Y-150931394D01*
X64440004Y-150923015D01*
X64430446Y-150928764D01*
X62372022Y-152987188D01*
X62364408Y-153001132D01*
X61634356Y-153001132D01*
X61635592Y-152998868D01*
X61635461Y-152997035D01*
X61631210Y-152990420D01*
X59570595Y-150929805D01*
X59556651Y-150922191D01*
X59556342Y-150922213D01*
X59547671Y-150928068D01*
X59512436Y-150966654D01*
X59507992Y-150972103D01*
X59301287Y-151256608D01*
X59297470Y-151262530D01*
X59123771Y-151568297D01*
X59120641Y-151574602D01*
X58982101Y-151897838D01*
X58979699Y-151904439D01*
X58878055Y-152241099D01*
X58876400Y-152247942D01*
X58812918Y-152593824D01*
X58812035Y-152600819D01*
X58787504Y-152951621D01*
X58787406Y-152958666D01*
X58008519Y-152958666D01*
X58008500Y-152958378D01*
X58008500Y-150560178D01*
X59923338Y-150560178D01*
X59929184Y-150569974D01*
X61987188Y-152627978D01*
X62001132Y-152635592D01*
X62002965Y-152635461D01*
X62009580Y-152631210D01*
X63727367Y-150913423D01*
X76727917Y-150913423D01*
X76734520Y-150925309D01*
X78437190Y-152627980D01*
X78451131Y-152635592D01*
X78452966Y-152635461D01*
X78459580Y-152631210D01*
X80164559Y-150926230D01*
X80171571Y-150913389D01*
X80163777Y-150902701D01*
X80001298Y-150774613D01*
X79995075Y-150770288D01*
X79722702Y-150604357D01*
X79716025Y-150600822D01*
X79425686Y-150468813D01*
X79418616Y-150466099D01*
X79114537Y-150369932D01*
X79107186Y-150368085D01*
X78793746Y-150309142D01*
X78786237Y-150308194D01*
X78467989Y-150287335D01*
X78460424Y-150287295D01*
X78141964Y-150304821D01*
X78134450Y-150305690D01*
X77820405Y-150361348D01*
X77813044Y-150363115D01*
X77507980Y-150456092D01*
X77500860Y-150458740D01*
X77209182Y-150587690D01*
X77202445Y-150591167D01*
X76928355Y-150754233D01*
X76922091Y-150758490D01*
X76736385Y-150901762D01*
X76727917Y-150913423D01*
X63727367Y-150913423D01*
X64069714Y-150571076D01*
X64077328Y-150557132D01*
X64077323Y-150557057D01*
X64071217Y-150548081D01*
X64015933Y-150498303D01*
X64010445Y-150493891D01*
X63724508Y-150289180D01*
X63718561Y-150285407D01*
X63411586Y-150113844D01*
X63405268Y-150110762D01*
X63081073Y-149974484D01*
X63074437Y-149972121D01*
X62737084Y-149872832D01*
X62730241Y-149871226D01*
X62383898Y-149810157D01*
X62376927Y-149809326D01*
X62025949Y-149787244D01*
X62018918Y-149787195D01*
X61667651Y-149804374D01*
X61660673Y-149805108D01*
X61313519Y-149861335D01*
X61306651Y-149862845D01*
X60967935Y-149957417D01*
X60961279Y-149959683D01*
X60635212Y-150091422D01*
X60628857Y-150094412D01*
X60319501Y-150261681D01*
X60313512Y-150265365D01*
X60024731Y-150466073D01*
X60019200Y-150470394D01*
X59931736Y-150546964D01*
X59923338Y-150560178D01*
X58008500Y-150560178D01*
X58008500Y-144753507D01*
X73712850Y-144753507D01*
X73713195Y-144760094D01*
X73713195Y-144760098D01*
X73716327Y-144819850D01*
X73716500Y-144826445D01*
X73716500Y-144846306D01*
X73718079Y-144861331D01*
X73718576Y-144866059D01*
X73719093Y-144872628D01*
X73722570Y-144938971D01*
X73726042Y-144951929D01*
X73729645Y-144971372D01*
X73731046Y-144984702D01*
X73751578Y-145047894D01*
X73753444Y-145054196D01*
X73770638Y-145118363D01*
X73773634Y-145124242D01*
X73773637Y-145124251D01*
X73776728Y-145130317D01*
X73784292Y-145148579D01*
X73786392Y-145155043D01*
X73786395Y-145155051D01*
X73788436Y-145161331D01*
X73791738Y-145167050D01*
X73791740Y-145167055D01*
X73821654Y-145218867D01*
X73824787Y-145224637D01*
X73854953Y-145283839D01*
X73859109Y-145288971D01*
X73863391Y-145294259D01*
X73874589Y-145310552D01*
X73881296Y-145322169D01*
X73885713Y-145327075D01*
X73885717Y-145327080D01*
X73925747Y-145371538D01*
X73930031Y-145376554D01*
X73940441Y-145389409D01*
X73942528Y-145391986D01*
X73956573Y-145406031D01*
X73961114Y-145410816D01*
X74005566Y-145460185D01*
X74016426Y-145468075D01*
X74031454Y-145480912D01*
X77419088Y-148868546D01*
X77431925Y-148883574D01*
X77439815Y-148894434D01*
X77444725Y-148898855D01*
X77444726Y-148898856D01*
X77489184Y-148938886D01*
X77493969Y-148943427D01*
X77508014Y-148957472D01*
X77523458Y-148969979D01*
X77528464Y-148974255D01*
X77572919Y-149014282D01*
X77572923Y-149014285D01*
X77577831Y-149018704D01*
X77589451Y-149025413D01*
X77605737Y-149036607D01*
X77606964Y-149037601D01*
X77616160Y-149045047D01*
X77675351Y-149075206D01*
X77681135Y-149078347D01*
X77732951Y-149108263D01*
X77732953Y-149108264D01*
X77738669Y-149111564D01*
X77744945Y-149113603D01*
X77744949Y-149113605D01*
X77751421Y-149115708D01*
X77769683Y-149123272D01*
X77775752Y-149126364D01*
X77775756Y-149126366D01*
X77781637Y-149129362D01*
X77788008Y-149131069D01*
X77788013Y-149131071D01*
X77845803Y-149146555D01*
X77852122Y-149148427D01*
X77915298Y-149168954D01*
X77921869Y-149169645D01*
X77921870Y-149169645D01*
X77928635Y-149170356D01*
X77948069Y-149173958D01*
X77954639Y-149175718D01*
X77954646Y-149175719D01*
X77961028Y-149177429D01*
X77967626Y-149177775D01*
X77967627Y-149177775D01*
X78027346Y-149180905D01*
X78033922Y-149181422D01*
X78053694Y-149183500D01*
X78073574Y-149183500D01*
X78080168Y-149183673D01*
X78139901Y-149186804D01*
X78139906Y-149186804D01*
X78146493Y-149187149D01*
X78159740Y-149185051D01*
X78179450Y-149183500D01*
X84232130Y-149183500D01*
X84300251Y-149203502D01*
X84346744Y-149257158D01*
X84350112Y-149265270D01*
X84381079Y-149347874D01*
X84399385Y-149396705D01*
X84486739Y-149513261D01*
X84603295Y-149600615D01*
X84739684Y-149651745D01*
X84801866Y-149658500D01*
X86598134Y-149658500D01*
X86660316Y-149651745D01*
X86796705Y-149600615D01*
X86913261Y-149513261D01*
X87000615Y-149396705D01*
X87051745Y-149260316D01*
X87058500Y-149198134D01*
X87058500Y-147401866D01*
X87051745Y-147339684D01*
X87000615Y-147203295D01*
X86913261Y-147086739D01*
X86796705Y-146999385D01*
X86660316Y-146948255D01*
X86598134Y-146941500D01*
X84801866Y-146941500D01*
X84739684Y-146948255D01*
X84603295Y-146999385D01*
X84486739Y-147086739D01*
X84399385Y-147203295D01*
X84396233Y-147211703D01*
X84350112Y-147334730D01*
X84307470Y-147391494D01*
X84240909Y-147416194D01*
X84232130Y-147416500D01*
X78518148Y-147416500D01*
X78450027Y-147396498D01*
X78429053Y-147379595D01*
X75520405Y-144470947D01*
X75486379Y-144408635D01*
X75483500Y-144381852D01*
X75483500Y-137086423D01*
X76728703Y-137086423D01*
X76736227Y-137096854D01*
X76875483Y-137209020D01*
X76881657Y-137213408D01*
X77152271Y-137382178D01*
X77158931Y-137385794D01*
X77447852Y-137520827D01*
X77454905Y-137523620D01*
X77757970Y-137622970D01*
X77765282Y-137624888D01*
X78078092Y-137687109D01*
X78085590Y-137688137D01*
X78403610Y-137712328D01*
X78411173Y-137712446D01*
X78729785Y-137698257D01*
X78737326Y-137697465D01*
X79051924Y-137645101D01*
X79059302Y-137643411D01*
X79365355Y-137553625D01*
X79372450Y-137551071D01*
X79665496Y-137425169D01*
X79672263Y-137421765D01*
X79948042Y-137261580D01*
X79954349Y-137257390D01*
X80164305Y-137098889D01*
X80172761Y-137087496D01*
X80166045Y-137075256D01*
X78462810Y-135372020D01*
X78448869Y-135364408D01*
X78447034Y-135364539D01*
X78440420Y-135368790D01*
X76735818Y-137073393D01*
X76728703Y-137086423D01*
X75483500Y-137086423D01*
X75483500Y-134975383D01*
X75737388Y-134975383D01*
X75753245Y-135293914D01*
X75754076Y-135301443D01*
X75808085Y-135615759D01*
X75809818Y-135623146D01*
X75901196Y-135928695D01*
X75903799Y-135935808D01*
X76031227Y-136228173D01*
X76034669Y-136234929D01*
X76196296Y-136509865D01*
X76200519Y-136516150D01*
X76351463Y-136713934D01*
X76362989Y-136722396D01*
X76375054Y-136715735D01*
X78077980Y-135012810D01*
X78084357Y-135001131D01*
X78814408Y-135001131D01*
X78814539Y-135002966D01*
X78818790Y-135009580D01*
X80523285Y-136714074D01*
X80536408Y-136721240D01*
X80546709Y-136713851D01*
X80650751Y-136586055D01*
X80655164Y-136579914D01*
X80825349Y-136310187D01*
X80829005Y-136303536D01*
X80965544Y-136015335D01*
X80968375Y-136008295D01*
X81069306Y-135705767D01*
X81071270Y-135698433D01*
X81135122Y-135385989D01*
X81136194Y-135378465D01*
X81162173Y-135059051D01*
X81162378Y-135054576D01*
X81162927Y-135002221D01*
X81162817Y-134997789D01*
X81143529Y-134677853D01*
X81142621Y-134670351D01*
X81085319Y-134356593D01*
X81083518Y-134349260D01*
X80988935Y-134044655D01*
X80986263Y-134037583D01*
X80855781Y-133746570D01*
X80852264Y-133739843D01*
X80687771Y-133466621D01*
X80683481Y-133460377D01*
X80547991Y-133286647D01*
X80536199Y-133278178D01*
X80524486Y-133284725D01*
X78822020Y-134987190D01*
X78814408Y-135001131D01*
X78084357Y-135001131D01*
X78085592Y-134998869D01*
X78085461Y-134997034D01*
X78081210Y-134990420D01*
X76376445Y-133285656D01*
X76363510Y-133278592D01*
X76352949Y-133286252D01*
X76232766Y-133437072D01*
X76228410Y-133443270D01*
X76061059Y-133714764D01*
X76057479Y-133721440D01*
X75923956Y-134011074D01*
X75921206Y-134018125D01*
X75823444Y-134321708D01*
X75821561Y-134329041D01*
X75760979Y-134642170D01*
X75759992Y-134649670D01*
X75737467Y-134967802D01*
X75737388Y-134975383D01*
X75483500Y-134975383D01*
X75483500Y-132913423D01*
X76727917Y-132913423D01*
X76734520Y-132925309D01*
X78437190Y-134627980D01*
X78451131Y-134635592D01*
X78452966Y-134635461D01*
X78459580Y-134631210D01*
X80164559Y-132926230D01*
X80171571Y-132913389D01*
X80163777Y-132902701D01*
X80001298Y-132774613D01*
X79995075Y-132770288D01*
X79722702Y-132604357D01*
X79716025Y-132600822D01*
X79425686Y-132468813D01*
X79418616Y-132466099D01*
X79114537Y-132369932D01*
X79107186Y-132368085D01*
X78793746Y-132309142D01*
X78786237Y-132308194D01*
X78467989Y-132287335D01*
X78460424Y-132287295D01*
X78141964Y-132304821D01*
X78134450Y-132305690D01*
X77820405Y-132361348D01*
X77813044Y-132363115D01*
X77507980Y-132456092D01*
X77500860Y-132458740D01*
X77209182Y-132587690D01*
X77202445Y-132591167D01*
X76928355Y-132754233D01*
X76922091Y-132758490D01*
X76736385Y-132901762D01*
X76727917Y-132913423D01*
X75483500Y-132913423D01*
X75483500Y-109900000D01*
X77386496Y-109900000D01*
X77406458Y-110089928D01*
X77408498Y-110096206D01*
X77410333Y-110101854D01*
X77416500Y-110140790D01*
X77416500Y-129120543D01*
X77414949Y-129140255D01*
X77412850Y-129153507D01*
X77413195Y-129160094D01*
X77413195Y-129160098D01*
X77416327Y-129219850D01*
X77416500Y-129226445D01*
X77416500Y-129246306D01*
X77416844Y-129249577D01*
X77418576Y-129266059D01*
X77419093Y-129272628D01*
X77422570Y-129338971D01*
X77426042Y-129351929D01*
X77429645Y-129371372D01*
X77431046Y-129384702D01*
X77451578Y-129447894D01*
X77453444Y-129454196D01*
X77470638Y-129518363D01*
X77473634Y-129524242D01*
X77473637Y-129524251D01*
X77476728Y-129530317D01*
X77484292Y-129548579D01*
X77486392Y-129555043D01*
X77486395Y-129555051D01*
X77488436Y-129561331D01*
X77491738Y-129567050D01*
X77491740Y-129567055D01*
X77521654Y-129618867D01*
X77524787Y-129624637D01*
X77554953Y-129683839D01*
X77559109Y-129688971D01*
X77563391Y-129694259D01*
X77574589Y-129710552D01*
X77581296Y-129722169D01*
X77585713Y-129727075D01*
X77585717Y-129727080D01*
X77625747Y-129771538D01*
X77630031Y-129776554D01*
X77640441Y-129789409D01*
X77642528Y-129791986D01*
X77656573Y-129806031D01*
X77661114Y-129810816D01*
X77705566Y-129860185D01*
X77716426Y-129868075D01*
X77731454Y-129880912D01*
X84779595Y-136929053D01*
X84813621Y-136991365D01*
X84816500Y-137018148D01*
X84816500Y-138232130D01*
X84796498Y-138300251D01*
X84742842Y-138346744D01*
X84734730Y-138350112D01*
X84603295Y-138399385D01*
X84486739Y-138486739D01*
X84399385Y-138603295D01*
X84348255Y-138739684D01*
X84341500Y-138801866D01*
X84341500Y-140598134D01*
X84348255Y-140660316D01*
X84399385Y-140796705D01*
X84486739Y-140913261D01*
X84603295Y-141000615D01*
X84739684Y-141051745D01*
X84801866Y-141058500D01*
X86598134Y-141058500D01*
X86660316Y-141051745D01*
X86796705Y-141000615D01*
X86913261Y-140913261D01*
X87000615Y-140796705D01*
X87051745Y-140660316D01*
X87058500Y-140598134D01*
X87058500Y-138801866D01*
X87051745Y-138739684D01*
X87000615Y-138603295D01*
X86913261Y-138486739D01*
X86796705Y-138399385D01*
X86665270Y-138350112D01*
X86608506Y-138307470D01*
X86583806Y-138240909D01*
X86583500Y-138232130D01*
X86583500Y-136679457D01*
X86585051Y-136659745D01*
X86586118Y-136653008D01*
X86587150Y-136646493D01*
X86583983Y-136586055D01*
X86583673Y-136580150D01*
X86583500Y-136573555D01*
X86583500Y-136553694D01*
X86581423Y-136533931D01*
X86580907Y-136527367D01*
X86577776Y-136467623D01*
X86577775Y-136467619D01*
X86577430Y-136461029D01*
X86573958Y-136448071D01*
X86570355Y-136428628D01*
X86569644Y-136421866D01*
X86568954Y-136415298D01*
X86548422Y-136352106D01*
X86546556Y-136345804D01*
X86531071Y-136288015D01*
X86529362Y-136281637D01*
X86526366Y-136275758D01*
X86526363Y-136275749D01*
X86523272Y-136269683D01*
X86515708Y-136251421D01*
X86513608Y-136244957D01*
X86513605Y-136244949D01*
X86511564Y-136238669D01*
X86508262Y-136232950D01*
X86508260Y-136232945D01*
X86478346Y-136181133D01*
X86475213Y-136175363D01*
X86445047Y-136116161D01*
X86436609Y-136105741D01*
X86425411Y-136089448D01*
X86425209Y-136089097D01*
X86418704Y-136077831D01*
X86414287Y-136072925D01*
X86414283Y-136072920D01*
X86374253Y-136028462D01*
X86369969Y-136023446D01*
X86359559Y-136010591D01*
X86359556Y-136010588D01*
X86357472Y-136008014D01*
X86343427Y-135993969D01*
X86338886Y-135989184D01*
X86298856Y-135944726D01*
X86298855Y-135944725D01*
X86294434Y-135939815D01*
X86283574Y-135931925D01*
X86268546Y-135919088D01*
X79220405Y-128870947D01*
X79186379Y-128808635D01*
X79183500Y-128781852D01*
X79183500Y-121836423D01*
X98278703Y-121836423D01*
X98286227Y-121846854D01*
X98425483Y-121959020D01*
X98431657Y-121963408D01*
X98702271Y-122132178D01*
X98708931Y-122135794D01*
X98997852Y-122270827D01*
X99004905Y-122273620D01*
X99307970Y-122372970D01*
X99315282Y-122374888D01*
X99628092Y-122437109D01*
X99635590Y-122438137D01*
X99953610Y-122462328D01*
X99961173Y-122462446D01*
X100279785Y-122448257D01*
X100287326Y-122447465D01*
X100601924Y-122395101D01*
X100609302Y-122393411D01*
X100915355Y-122303625D01*
X100922450Y-122301071D01*
X101215496Y-122175169D01*
X101222263Y-122171765D01*
X101498042Y-122011580D01*
X101504349Y-122007390D01*
X101714305Y-121848889D01*
X101722761Y-121837496D01*
X101716045Y-121825256D01*
X100012810Y-120122020D01*
X99998869Y-120114408D01*
X99997034Y-120114539D01*
X99990420Y-120118790D01*
X98285818Y-121823393D01*
X98278703Y-121836423D01*
X79183500Y-121836423D01*
X79183500Y-119725383D01*
X97287388Y-119725383D01*
X97303245Y-120043914D01*
X97304076Y-120051443D01*
X97358085Y-120365759D01*
X97359818Y-120373146D01*
X97451196Y-120678695D01*
X97453799Y-120685808D01*
X97581227Y-120978173D01*
X97584669Y-120984929D01*
X97746296Y-121259865D01*
X97750519Y-121266150D01*
X97901463Y-121463934D01*
X97912989Y-121472396D01*
X97925054Y-121465735D01*
X99627980Y-119762810D01*
X99634357Y-119751131D01*
X100364408Y-119751131D01*
X100364539Y-119752966D01*
X100368790Y-119759580D01*
X102073285Y-121464074D01*
X102086408Y-121471240D01*
X102096709Y-121463851D01*
X102200751Y-121336055D01*
X102205164Y-121329914D01*
X102375349Y-121060187D01*
X102379005Y-121053536D01*
X102515544Y-120765335D01*
X102518375Y-120758295D01*
X102619306Y-120455767D01*
X102621270Y-120448433D01*
X102685122Y-120135989D01*
X102686194Y-120128465D01*
X102712173Y-119809051D01*
X102712378Y-119804576D01*
X102712927Y-119752221D01*
X102712817Y-119747789D01*
X102693529Y-119427853D01*
X102692621Y-119420351D01*
X102635319Y-119106593D01*
X102633518Y-119099260D01*
X102538935Y-118794655D01*
X102536263Y-118787583D01*
X102405781Y-118496570D01*
X102402264Y-118489843D01*
X102237771Y-118216621D01*
X102233481Y-118210377D01*
X102097991Y-118036647D01*
X102086199Y-118028178D01*
X102074486Y-118034725D01*
X100372020Y-119737190D01*
X100364408Y-119751131D01*
X99634357Y-119751131D01*
X99635592Y-119748869D01*
X99635461Y-119747034D01*
X99631210Y-119740420D01*
X97926445Y-118035656D01*
X97913510Y-118028592D01*
X97902949Y-118036252D01*
X97782766Y-118187072D01*
X97778410Y-118193270D01*
X97611059Y-118464764D01*
X97607479Y-118471440D01*
X97473956Y-118761074D01*
X97471206Y-118768125D01*
X97373444Y-119071708D01*
X97371561Y-119079041D01*
X97310979Y-119392170D01*
X97309992Y-119399670D01*
X97287467Y-119717802D01*
X97287388Y-119725383D01*
X79183500Y-119725383D01*
X79183500Y-117663423D01*
X98277917Y-117663423D01*
X98284520Y-117675309D01*
X99987190Y-119377980D01*
X100001131Y-119385592D01*
X100002966Y-119385461D01*
X100009580Y-119381210D01*
X101714559Y-117676230D01*
X101721571Y-117663389D01*
X101713777Y-117652701D01*
X101551298Y-117524613D01*
X101545075Y-117520288D01*
X101272702Y-117354357D01*
X101266025Y-117350822D01*
X100975686Y-117218813D01*
X100968616Y-117216099D01*
X100664537Y-117119932D01*
X100657186Y-117118085D01*
X100343746Y-117059142D01*
X100336237Y-117058194D01*
X100017989Y-117037335D01*
X100010424Y-117037295D01*
X99691964Y-117054821D01*
X99684450Y-117055690D01*
X99370405Y-117111348D01*
X99363044Y-117113115D01*
X99057980Y-117206092D01*
X99050860Y-117208740D01*
X98759182Y-117337690D01*
X98752445Y-117341167D01*
X98478355Y-117504233D01*
X98472091Y-117508490D01*
X98286385Y-117651762D01*
X98277917Y-117663423D01*
X79183500Y-117663423D01*
X79183500Y-110140790D01*
X79189667Y-110101854D01*
X79191502Y-110096206D01*
X79193542Y-110089928D01*
X79213504Y-109900000D01*
X79193542Y-109710072D01*
X79134527Y-109528444D01*
X79130134Y-109520834D01*
X79042341Y-109368774D01*
X79039040Y-109363056D01*
X78911253Y-109221134D01*
X78756752Y-109108882D01*
X78750724Y-109106198D01*
X78750722Y-109106197D01*
X78588319Y-109033891D01*
X78588318Y-109033891D01*
X78582288Y-109031206D01*
X78488887Y-109011353D01*
X78401944Y-108992872D01*
X78401939Y-108992872D01*
X78395487Y-108991500D01*
X78204513Y-108991500D01*
X78198061Y-108992872D01*
X78198056Y-108992872D01*
X78111113Y-109011353D01*
X78017712Y-109031206D01*
X78011682Y-109033891D01*
X78011681Y-109033891D01*
X77849278Y-109106197D01*
X77849276Y-109106198D01*
X77843248Y-109108882D01*
X77688747Y-109221134D01*
X77560960Y-109363056D01*
X77557659Y-109368774D01*
X77469867Y-109520834D01*
X77465473Y-109528444D01*
X77406458Y-109710072D01*
X77386496Y-109900000D01*
X75483500Y-109900000D01*
X75483500Y-108900000D01*
X82686496Y-108900000D01*
X82706458Y-109089928D01*
X82765473Y-109271556D01*
X82860960Y-109436944D01*
X82865378Y-109441851D01*
X82865379Y-109441852D01*
X82904780Y-109485611D01*
X82988747Y-109578866D01*
X83143248Y-109691118D01*
X83149276Y-109693802D01*
X83149278Y-109693803D01*
X83200560Y-109716635D01*
X83317712Y-109768794D01*
X83382890Y-109782648D01*
X83498056Y-109807128D01*
X83498061Y-109807128D01*
X83504513Y-109808500D01*
X83695487Y-109808500D01*
X83701939Y-109807128D01*
X83701944Y-109807128D01*
X83817110Y-109782648D01*
X83882288Y-109768794D01*
X83999440Y-109716635D01*
X84050722Y-109693803D01*
X84050724Y-109693802D01*
X84056752Y-109691118D01*
X84211253Y-109578866D01*
X84215668Y-109573963D01*
X84220580Y-109569540D01*
X84221705Y-109570789D01*
X84275014Y-109537949D01*
X84308200Y-109533500D01*
X89891800Y-109533500D01*
X89959921Y-109553502D01*
X89979147Y-109569843D01*
X89979420Y-109569540D01*
X89984332Y-109573963D01*
X89988747Y-109578866D01*
X90143248Y-109691118D01*
X90149276Y-109693802D01*
X90149278Y-109693803D01*
X90200560Y-109716635D01*
X90317712Y-109768794D01*
X90382890Y-109782648D01*
X90498056Y-109807128D01*
X90498061Y-109807128D01*
X90504513Y-109808500D01*
X90695487Y-109808500D01*
X90701939Y-109807128D01*
X90701944Y-109807128D01*
X90817110Y-109782648D01*
X90882288Y-109768794D01*
X90999440Y-109716635D01*
X91050722Y-109693803D01*
X91050724Y-109693802D01*
X91056752Y-109691118D01*
X91211253Y-109578866D01*
X91295220Y-109485611D01*
X91334621Y-109441852D01*
X91334622Y-109441851D01*
X91339040Y-109436944D01*
X91434527Y-109271556D01*
X91493542Y-109089928D01*
X91513504Y-108900000D01*
X91493542Y-108710072D01*
X91434527Y-108528444D01*
X91339040Y-108363056D01*
X91211253Y-108221134D01*
X91056752Y-108108882D01*
X91050724Y-108106198D01*
X91050722Y-108106197D01*
X90888319Y-108033891D01*
X90888318Y-108033891D01*
X90882288Y-108031206D01*
X90788888Y-108011353D01*
X90701944Y-107992872D01*
X90701939Y-107992872D01*
X90695487Y-107991500D01*
X90504513Y-107991500D01*
X90498061Y-107992872D01*
X90498056Y-107992872D01*
X90411113Y-108011353D01*
X90317712Y-108031206D01*
X90311682Y-108033891D01*
X90311681Y-108033891D01*
X90149278Y-108106197D01*
X90149276Y-108106198D01*
X90143248Y-108108882D01*
X89988747Y-108221134D01*
X89984332Y-108226037D01*
X89979420Y-108230460D01*
X89978295Y-108229211D01*
X89924986Y-108262051D01*
X89891800Y-108266500D01*
X84308200Y-108266500D01*
X84240079Y-108246498D01*
X84220853Y-108230157D01*
X84220580Y-108230460D01*
X84215668Y-108226037D01*
X84211253Y-108221134D01*
X84056752Y-108108882D01*
X84050724Y-108106198D01*
X84050722Y-108106197D01*
X83888319Y-108033891D01*
X83888318Y-108033891D01*
X83882288Y-108031206D01*
X83788888Y-108011353D01*
X83701944Y-107992872D01*
X83701939Y-107992872D01*
X83695487Y-107991500D01*
X83504513Y-107991500D01*
X83498061Y-107992872D01*
X83498056Y-107992872D01*
X83411113Y-108011353D01*
X83317712Y-108031206D01*
X83311682Y-108033891D01*
X83311681Y-108033891D01*
X83149278Y-108106197D01*
X83149276Y-108106198D01*
X83143248Y-108108882D01*
X82988747Y-108221134D01*
X82860960Y-108363056D01*
X82765473Y-108528444D01*
X82706458Y-108710072D01*
X82686496Y-108900000D01*
X75483500Y-108900000D01*
X75483500Y-105518148D01*
X75503502Y-105450027D01*
X75520405Y-105429053D01*
X77455542Y-103493915D01*
X77470576Y-103481074D01*
X77605909Y-103382749D01*
X77605911Y-103382747D01*
X77611253Y-103378866D01*
X77739040Y-103236944D01*
X77797314Y-103136010D01*
X77831223Y-103077279D01*
X77831224Y-103077278D01*
X77834527Y-103071556D01*
X77893542Y-102889928D01*
X77913504Y-102700000D01*
X77893542Y-102510072D01*
X77834527Y-102328444D01*
X77739040Y-102163056D01*
X77611253Y-102021134D01*
X77456752Y-101908882D01*
X77450724Y-101906198D01*
X77450722Y-101906197D01*
X77288319Y-101833891D01*
X77288318Y-101833891D01*
X77282288Y-101831206D01*
X77188888Y-101811353D01*
X77101944Y-101792872D01*
X77101939Y-101792872D01*
X77095487Y-101791500D01*
X76904513Y-101791500D01*
X76898061Y-101792872D01*
X76898056Y-101792872D01*
X76811112Y-101811353D01*
X76717712Y-101831206D01*
X76711682Y-101833891D01*
X76711681Y-101833891D01*
X76549278Y-101906197D01*
X76549276Y-101906198D01*
X76543248Y-101908882D01*
X76388747Y-102021134D01*
X76260960Y-102163056D01*
X76257661Y-102168769D01*
X76257658Y-102168774D01*
X76233016Y-102211456D01*
X76212992Y-102237551D01*
X74031454Y-104419088D01*
X74016426Y-104431925D01*
X74005566Y-104439815D01*
X74001145Y-104444725D01*
X74001144Y-104444726D01*
X73961114Y-104489184D01*
X73956573Y-104493969D01*
X73942528Y-104508014D01*
X73940444Y-104510588D01*
X73940441Y-104510591D01*
X73930031Y-104523446D01*
X73925747Y-104528462D01*
X73885717Y-104572920D01*
X73885713Y-104572925D01*
X73881296Y-104577831D01*
X73874791Y-104589097D01*
X73874589Y-104589448D01*
X73863391Y-104605741D01*
X73854953Y-104616161D01*
X73824787Y-104675363D01*
X73821654Y-104681133D01*
X73791740Y-104732945D01*
X73791738Y-104732950D01*
X73788436Y-104738669D01*
X73786395Y-104744949D01*
X73786392Y-104744957D01*
X73784292Y-104751421D01*
X73776728Y-104769683D01*
X73773637Y-104775749D01*
X73773634Y-104775758D01*
X73770638Y-104781637D01*
X73768929Y-104788015D01*
X73753444Y-104845804D01*
X73751578Y-104852106D01*
X73731046Y-104915298D01*
X73729689Y-104928205D01*
X73729645Y-104928628D01*
X73726042Y-104948071D01*
X73722570Y-104961029D01*
X73722225Y-104967619D01*
X73722224Y-104967623D01*
X73719093Y-105027367D01*
X73718577Y-105033931D01*
X73716500Y-105053694D01*
X73716500Y-105073555D01*
X73716327Y-105080150D01*
X73712850Y-105146493D01*
X73713882Y-105153007D01*
X73714949Y-105159744D01*
X73716500Y-105179456D01*
X73716500Y-144720543D01*
X73714949Y-144740255D01*
X73712850Y-144753507D01*
X58008500Y-144753507D01*
X58008500Y-135848134D01*
X60791500Y-135848134D01*
X60798255Y-135910316D01*
X60849385Y-136046705D01*
X60936739Y-136163261D01*
X61053295Y-136250615D01*
X61189684Y-136301745D01*
X61251866Y-136308500D01*
X62948134Y-136308500D01*
X63010316Y-136301745D01*
X63146705Y-136250615D01*
X63263261Y-136163261D01*
X63321119Y-136086062D01*
X67878493Y-136086062D01*
X67887789Y-136098077D01*
X67938994Y-136133931D01*
X67948489Y-136139414D01*
X68145947Y-136231490D01*
X68156239Y-136235236D01*
X68366688Y-136291625D01*
X68377481Y-136293528D01*
X68594525Y-136312517D01*
X68605475Y-136312517D01*
X68822519Y-136293528D01*
X68833312Y-136291625D01*
X69043761Y-136235236D01*
X69054053Y-136231490D01*
X69251511Y-136139414D01*
X69261006Y-136133931D01*
X69313048Y-136097491D01*
X69321424Y-136087012D01*
X69314356Y-136073566D01*
X68612812Y-135372022D01*
X68598868Y-135364408D01*
X68597035Y-135364539D01*
X68590420Y-135368790D01*
X67884923Y-136074287D01*
X67878493Y-136086062D01*
X63321119Y-136086062D01*
X63350615Y-136046705D01*
X63401745Y-135910316D01*
X63408500Y-135848134D01*
X63408500Y-135005475D01*
X67287483Y-135005475D01*
X67306472Y-135222519D01*
X67308375Y-135233312D01*
X67364764Y-135443761D01*
X67368510Y-135454053D01*
X67460586Y-135651511D01*
X67466069Y-135661006D01*
X67502509Y-135713048D01*
X67512988Y-135721424D01*
X67526434Y-135714356D01*
X68227978Y-135012812D01*
X68234356Y-135001132D01*
X68964408Y-135001132D01*
X68964539Y-135002965D01*
X68968790Y-135009580D01*
X69674287Y-135715077D01*
X69686062Y-135721507D01*
X69698077Y-135712211D01*
X69733931Y-135661006D01*
X69739414Y-135651511D01*
X69831490Y-135454053D01*
X69835236Y-135443761D01*
X69891625Y-135233312D01*
X69893528Y-135222519D01*
X69912517Y-135005475D01*
X69912517Y-134994525D01*
X69893528Y-134777481D01*
X69891625Y-134766688D01*
X69835236Y-134556239D01*
X69831490Y-134545947D01*
X69739414Y-134348489D01*
X69733931Y-134338994D01*
X69697491Y-134286952D01*
X69687012Y-134278576D01*
X69673566Y-134285644D01*
X68972022Y-134987188D01*
X68964408Y-135001132D01*
X68234356Y-135001132D01*
X68235592Y-134998868D01*
X68235461Y-134997035D01*
X68231210Y-134990420D01*
X67525713Y-134284923D01*
X67513938Y-134278493D01*
X67501923Y-134287789D01*
X67466069Y-134338994D01*
X67460586Y-134348489D01*
X67368510Y-134545947D01*
X67364764Y-134556239D01*
X67308375Y-134766688D01*
X67306472Y-134777481D01*
X67287483Y-134994525D01*
X67287483Y-135005475D01*
X63408500Y-135005475D01*
X63408500Y-134151866D01*
X63401745Y-134089684D01*
X63350615Y-133953295D01*
X63320407Y-133912988D01*
X67878576Y-133912988D01*
X67885644Y-133926434D01*
X68587188Y-134627978D01*
X68601132Y-134635592D01*
X68602965Y-134635461D01*
X68609580Y-134631210D01*
X69315077Y-133925713D01*
X69321507Y-133913938D01*
X69312211Y-133901923D01*
X69261006Y-133866069D01*
X69251511Y-133860586D01*
X69054053Y-133768510D01*
X69043761Y-133764764D01*
X68833312Y-133708375D01*
X68822519Y-133706472D01*
X68605475Y-133687483D01*
X68594525Y-133687483D01*
X68377481Y-133706472D01*
X68366688Y-133708375D01*
X68156239Y-133764764D01*
X68145947Y-133768510D01*
X67948489Y-133860586D01*
X67938994Y-133866069D01*
X67886952Y-133902509D01*
X67878576Y-133912988D01*
X63320407Y-133912988D01*
X63263261Y-133836739D01*
X63146705Y-133749385D01*
X63010316Y-133698255D01*
X62948134Y-133691500D01*
X61251866Y-133691500D01*
X61189684Y-133698255D01*
X61053295Y-133749385D01*
X60936739Y-133836739D01*
X60849385Y-133953295D01*
X60798255Y-134089684D01*
X60791500Y-134151866D01*
X60791500Y-135848134D01*
X58008500Y-135848134D01*
X58008500Y-91147219D01*
X70161996Y-91147219D01*
X70181958Y-91337147D01*
X70240973Y-91518775D01*
X70336460Y-91684163D01*
X70409637Y-91765434D01*
X70440353Y-91829440D01*
X70442000Y-91849743D01*
X70442000Y-93696733D01*
X70441473Y-93707916D01*
X70439798Y-93715409D01*
X70440047Y-93723335D01*
X70440047Y-93723336D01*
X70441938Y-93783486D01*
X70442000Y-93787445D01*
X70442000Y-93815356D01*
X70442497Y-93819290D01*
X70442497Y-93819291D01*
X70442505Y-93819356D01*
X70443438Y-93831193D01*
X70444827Y-93875389D01*
X70450478Y-93894839D01*
X70454487Y-93914200D01*
X70457026Y-93934297D01*
X70459945Y-93941668D01*
X70459945Y-93941670D01*
X70473304Y-93975412D01*
X70477149Y-93986642D01*
X70489482Y-94029093D01*
X70493515Y-94035912D01*
X70493517Y-94035917D01*
X70499793Y-94046528D01*
X70508488Y-94064276D01*
X70515948Y-94083117D01*
X70520610Y-94089533D01*
X70520610Y-94089534D01*
X70541936Y-94118887D01*
X70548452Y-94128807D01*
X70570958Y-94166862D01*
X70585279Y-94181183D01*
X70598119Y-94196216D01*
X70610028Y-94212607D01*
X70644105Y-94240798D01*
X70652884Y-94248788D01*
X71646343Y-95242247D01*
X71653887Y-95250537D01*
X71658000Y-95257018D01*
X71663777Y-95262443D01*
X71707667Y-95303658D01*
X71710509Y-95306413D01*
X71730230Y-95326134D01*
X71733425Y-95328612D01*
X71742447Y-95336318D01*
X71774679Y-95366586D01*
X71781628Y-95370406D01*
X71792432Y-95376346D01*
X71808956Y-95387199D01*
X71824959Y-95399613D01*
X71865543Y-95417176D01*
X71876173Y-95422383D01*
X71914940Y-95443695D01*
X71922617Y-95445666D01*
X71922622Y-95445668D01*
X71934558Y-95448732D01*
X71953266Y-95455137D01*
X71971855Y-95463181D01*
X71979680Y-95464420D01*
X71979682Y-95464421D01*
X72015519Y-95470097D01*
X72027140Y-95472504D01*
X72062289Y-95481528D01*
X72069970Y-95483500D01*
X72090231Y-95483500D01*
X72109940Y-95485051D01*
X72129943Y-95488219D01*
X72137835Y-95487473D01*
X72143062Y-95486979D01*
X72173954Y-95484059D01*
X72185811Y-95483500D01*
X92335406Y-95483500D01*
X92403527Y-95503502D01*
X92424501Y-95520405D01*
X97252878Y-100348782D01*
X97286904Y-100411094D01*
X97289096Y-100424739D01*
X97289371Y-100427362D01*
X97276581Y-100497197D01*
X97228066Y-100549031D01*
X97164058Y-100566500D01*
X84378767Y-100566500D01*
X84367584Y-100565973D01*
X84360091Y-100564298D01*
X84352165Y-100564547D01*
X84352164Y-100564547D01*
X84292014Y-100566438D01*
X84288055Y-100566500D01*
X84260144Y-100566500D01*
X84256210Y-100566997D01*
X84256209Y-100566997D01*
X84256144Y-100567005D01*
X84244307Y-100567938D01*
X84212490Y-100568938D01*
X84208029Y-100569078D01*
X84200110Y-100569327D01*
X84182454Y-100574456D01*
X84180658Y-100574978D01*
X84161306Y-100578986D01*
X84154235Y-100579880D01*
X84141203Y-100581526D01*
X84133834Y-100584443D01*
X84133832Y-100584444D01*
X84100097Y-100597800D01*
X84088869Y-100601645D01*
X84046407Y-100613982D01*
X84039585Y-100618016D01*
X84039579Y-100618019D01*
X84028968Y-100624294D01*
X84011218Y-100632990D01*
X83999756Y-100637528D01*
X83999751Y-100637531D01*
X83992383Y-100640448D01*
X83985968Y-100645109D01*
X83956625Y-100666427D01*
X83946707Y-100672943D01*
X83928019Y-100683995D01*
X83908637Y-100695458D01*
X83894313Y-100709782D01*
X83879281Y-100722621D01*
X83862893Y-100734528D01*
X83834712Y-100768593D01*
X83826722Y-100777373D01*
X78974500Y-105629595D01*
X78912188Y-105663621D01*
X78885405Y-105666500D01*
X77908200Y-105666500D01*
X77840079Y-105646498D01*
X77820853Y-105630157D01*
X77820580Y-105630460D01*
X77815668Y-105626037D01*
X77811253Y-105621134D01*
X77656752Y-105508882D01*
X77650724Y-105506198D01*
X77650722Y-105506197D01*
X77488319Y-105433891D01*
X77488318Y-105433891D01*
X77482288Y-105431206D01*
X77382861Y-105410072D01*
X77301944Y-105392872D01*
X77301939Y-105392872D01*
X77295487Y-105391500D01*
X77104513Y-105391500D01*
X77098061Y-105392872D01*
X77098056Y-105392872D01*
X77017139Y-105410072D01*
X76917712Y-105431206D01*
X76911682Y-105433891D01*
X76911681Y-105433891D01*
X76749278Y-105506197D01*
X76749276Y-105506198D01*
X76743248Y-105508882D01*
X76588747Y-105621134D01*
X76584326Y-105626044D01*
X76584325Y-105626045D01*
X76498048Y-105721866D01*
X76460960Y-105763056D01*
X76365473Y-105928444D01*
X76306458Y-106110072D01*
X76305768Y-106116633D01*
X76305768Y-106116635D01*
X76298900Y-106181983D01*
X76286496Y-106300000D01*
X76287186Y-106306565D01*
X76303955Y-106466109D01*
X76306458Y-106489928D01*
X76365473Y-106671556D01*
X76460960Y-106836944D01*
X76465378Y-106841851D01*
X76465379Y-106841852D01*
X76547452Y-106933003D01*
X76588747Y-106978866D01*
X76743248Y-107091118D01*
X76749276Y-107093802D01*
X76749278Y-107093803D01*
X76911681Y-107166109D01*
X76917712Y-107168794D01*
X77011113Y-107188647D01*
X77098056Y-107207128D01*
X77098061Y-107207128D01*
X77104513Y-107208500D01*
X77295487Y-107208500D01*
X77301939Y-107207128D01*
X77301944Y-107207128D01*
X77388888Y-107188647D01*
X77482288Y-107168794D01*
X77488319Y-107166109D01*
X77650722Y-107093803D01*
X77650724Y-107093802D01*
X77656752Y-107091118D01*
X77811253Y-106978866D01*
X77815668Y-106973963D01*
X77820580Y-106969540D01*
X77821705Y-106970789D01*
X77875014Y-106937949D01*
X77908200Y-106933500D01*
X79121233Y-106933500D01*
X79132416Y-106934027D01*
X79139909Y-106935702D01*
X79147835Y-106935453D01*
X79147836Y-106935453D01*
X79207986Y-106933562D01*
X79211945Y-106933500D01*
X79239856Y-106933500D01*
X79243791Y-106933003D01*
X79243856Y-106932995D01*
X79255693Y-106932062D01*
X79287951Y-106931048D01*
X79291970Y-106930922D01*
X79299889Y-106930673D01*
X79319343Y-106925021D01*
X79338700Y-106921013D01*
X79350930Y-106919468D01*
X79350931Y-106919468D01*
X79358797Y-106918474D01*
X79366168Y-106915555D01*
X79366170Y-106915555D01*
X79399912Y-106902196D01*
X79411142Y-106898351D01*
X79445983Y-106888229D01*
X79445984Y-106888229D01*
X79453593Y-106886018D01*
X79460412Y-106881985D01*
X79460417Y-106881983D01*
X79471028Y-106875707D01*
X79488776Y-106867012D01*
X79507617Y-106859552D01*
X79543387Y-106833564D01*
X79553307Y-106827048D01*
X79584535Y-106808580D01*
X79584538Y-106808578D01*
X79591362Y-106804542D01*
X79605683Y-106790221D01*
X79620717Y-106777380D01*
X79630694Y-106770131D01*
X79637107Y-106765472D01*
X79665298Y-106731395D01*
X79673288Y-106722616D01*
X84525499Y-101870405D01*
X84587811Y-101836379D01*
X84614594Y-101833500D01*
X85766406Y-101833500D01*
X85834527Y-101853502D01*
X85881020Y-101907158D01*
X85891124Y-101977432D01*
X85861630Y-102042012D01*
X85855502Y-102048594D01*
X84950593Y-102953502D01*
X84049500Y-103854595D01*
X83987188Y-103888621D01*
X83960405Y-103891500D01*
X83904513Y-103891500D01*
X83898061Y-103892872D01*
X83898056Y-103892872D01*
X83833638Y-103906565D01*
X83717712Y-103931206D01*
X83711682Y-103933891D01*
X83711681Y-103933891D01*
X83549278Y-104006197D01*
X83549276Y-104006198D01*
X83543248Y-104008882D01*
X83388747Y-104121134D01*
X83384326Y-104126044D01*
X83384325Y-104126045D01*
X83279515Y-104242449D01*
X83260960Y-104263056D01*
X83225220Y-104324959D01*
X83173270Y-104414940D01*
X83165473Y-104428444D01*
X83106458Y-104610072D01*
X83105768Y-104616633D01*
X83105768Y-104616635D01*
X83099289Y-104678282D01*
X83086496Y-104800000D01*
X83087186Y-104806565D01*
X83104114Y-104967623D01*
X83106458Y-104989928D01*
X83165473Y-105171556D01*
X83260960Y-105336944D01*
X83265378Y-105341851D01*
X83265379Y-105341852D01*
X83384325Y-105473955D01*
X83388747Y-105478866D01*
X83479713Y-105544957D01*
X83530199Y-105581637D01*
X83543248Y-105591118D01*
X83549276Y-105593802D01*
X83549278Y-105593803D01*
X83706093Y-105663621D01*
X83717712Y-105668794D01*
X83811112Y-105688647D01*
X83898056Y-105707128D01*
X83898061Y-105707128D01*
X83904513Y-105708500D01*
X84095487Y-105708500D01*
X84101939Y-105707128D01*
X84101944Y-105707128D01*
X84188888Y-105688647D01*
X84282288Y-105668794D01*
X84293907Y-105663621D01*
X84450722Y-105593803D01*
X84450724Y-105593802D01*
X84456752Y-105591118D01*
X84469802Y-105581637D01*
X84520287Y-105544957D01*
X84611253Y-105478866D01*
X84615675Y-105473955D01*
X84734621Y-105341852D01*
X84734622Y-105341851D01*
X84739040Y-105336944D01*
X84834527Y-105171556D01*
X84893542Y-104989928D01*
X84896580Y-104961029D01*
X84905569Y-104875499D01*
X84910907Y-104824706D01*
X84937920Y-104759050D01*
X84947122Y-104748782D01*
X86725500Y-102970405D01*
X86787812Y-102936379D01*
X86814595Y-102933500D01*
X94896853Y-102933500D01*
X94964974Y-102953502D01*
X95011467Y-103007158D01*
X95021571Y-103077432D01*
X94992077Y-103142012D01*
X94970914Y-103161436D01*
X94888747Y-103221134D01*
X94760960Y-103363056D01*
X94665473Y-103528444D01*
X94606458Y-103710072D01*
X94586496Y-103900000D01*
X94606458Y-104089928D01*
X94665473Y-104271556D01*
X94760960Y-104436944D01*
X94834137Y-104518215D01*
X94864853Y-104582221D01*
X94866500Y-104602524D01*
X94866500Y-111421233D01*
X94865973Y-111432416D01*
X94864298Y-111439909D01*
X94864547Y-111447835D01*
X94864547Y-111447836D01*
X94866438Y-111507986D01*
X94866500Y-111511945D01*
X94866500Y-111539856D01*
X94866997Y-111543790D01*
X94866997Y-111543791D01*
X94867005Y-111543856D01*
X94867938Y-111555693D01*
X94869327Y-111599889D01*
X94874978Y-111619339D01*
X94878987Y-111638700D01*
X94881526Y-111658797D01*
X94884445Y-111666168D01*
X94884445Y-111666170D01*
X94897804Y-111699912D01*
X94901649Y-111711142D01*
X94907478Y-111731206D01*
X94913982Y-111753593D01*
X94918015Y-111760412D01*
X94918017Y-111760417D01*
X94924293Y-111771028D01*
X94932988Y-111788776D01*
X94940448Y-111807617D01*
X94945110Y-111814033D01*
X94945110Y-111814034D01*
X94966436Y-111843387D01*
X94972952Y-111853307D01*
X94995458Y-111891362D01*
X95009779Y-111905683D01*
X95022619Y-111920716D01*
X95034528Y-111937107D01*
X95040634Y-111942158D01*
X95068605Y-111965298D01*
X95077384Y-111973288D01*
X96096348Y-112992253D01*
X96103888Y-113000539D01*
X96108000Y-113007018D01*
X96113777Y-113012443D01*
X96157651Y-113053643D01*
X96160493Y-113056398D01*
X96180230Y-113076135D01*
X96183427Y-113078615D01*
X96192447Y-113086318D01*
X96224679Y-113116586D01*
X96231625Y-113120405D01*
X96231628Y-113120407D01*
X96242434Y-113126348D01*
X96258953Y-113137199D01*
X96274959Y-113149614D01*
X96282228Y-113152759D01*
X96282232Y-113152762D01*
X96315537Y-113167174D01*
X96326187Y-113172391D01*
X96364940Y-113193695D01*
X96372615Y-113195666D01*
X96372616Y-113195666D01*
X96384562Y-113198733D01*
X96403267Y-113205137D01*
X96421855Y-113213181D01*
X96429678Y-113214420D01*
X96429688Y-113214423D01*
X96465524Y-113220099D01*
X96477144Y-113222505D01*
X96512289Y-113231528D01*
X96519970Y-113233500D01*
X96540224Y-113233500D01*
X96559934Y-113235051D01*
X96579943Y-113238220D01*
X96587835Y-113237474D01*
X96623961Y-113234059D01*
X96635819Y-113233500D01*
X98691800Y-113233500D01*
X98759921Y-113253502D01*
X98779147Y-113269843D01*
X98779420Y-113269540D01*
X98784332Y-113273963D01*
X98788747Y-113278866D01*
X98943248Y-113391118D01*
X98949276Y-113393802D01*
X98949278Y-113393803D01*
X99111681Y-113466109D01*
X99117712Y-113468794D01*
X99211113Y-113488647D01*
X99298056Y-113507128D01*
X99298061Y-113507128D01*
X99304513Y-113508500D01*
X99495487Y-113508500D01*
X99501939Y-113507128D01*
X99501944Y-113507128D01*
X99588887Y-113488647D01*
X99682288Y-113468794D01*
X99688319Y-113466109D01*
X99850722Y-113393803D01*
X99850724Y-113393802D01*
X99856752Y-113391118D01*
X100011253Y-113278866D01*
X100047851Y-113238220D01*
X100134621Y-113141852D01*
X100134622Y-113141851D01*
X100139040Y-113136944D01*
X100234527Y-112971556D01*
X100293542Y-112789928D01*
X100313504Y-112600000D01*
X100293542Y-112410072D01*
X100234527Y-112228444D01*
X100139040Y-112063056D01*
X100051019Y-111965298D01*
X100015675Y-111926045D01*
X100015674Y-111926044D01*
X100011253Y-111921134D01*
X99856752Y-111808882D01*
X99850724Y-111806198D01*
X99850722Y-111806197D01*
X99688319Y-111733891D01*
X99688318Y-111733891D01*
X99682288Y-111731206D01*
X99587895Y-111711142D01*
X99501944Y-111692872D01*
X99501939Y-111692872D01*
X99495487Y-111691500D01*
X99304513Y-111691500D01*
X99298061Y-111692872D01*
X99298056Y-111692872D01*
X99212105Y-111711142D01*
X99117712Y-111731206D01*
X99111682Y-111733891D01*
X99111681Y-111733891D01*
X98949278Y-111806197D01*
X98949276Y-111806198D01*
X98943248Y-111808882D01*
X98937907Y-111812762D01*
X98937906Y-111812763D01*
X98882102Y-111853307D01*
X98788747Y-111921134D01*
X98784332Y-111926037D01*
X98779420Y-111930460D01*
X98778295Y-111929211D01*
X98724986Y-111962051D01*
X98691800Y-111966500D01*
X96914595Y-111966500D01*
X96846474Y-111946498D01*
X96825499Y-111929595D01*
X96170404Y-111274499D01*
X96136379Y-111212187D01*
X96133500Y-111185404D01*
X96133500Y-104602524D01*
X96153502Y-104534403D01*
X96165858Y-104518221D01*
X96239040Y-104436944D01*
X96334527Y-104271556D01*
X96393542Y-104089928D01*
X96413504Y-103900000D01*
X96393542Y-103710072D01*
X96334527Y-103528444D01*
X96239040Y-103363056D01*
X96111253Y-103221134D01*
X96029086Y-103161436D01*
X95985732Y-103105214D01*
X95979657Y-103034477D01*
X96012789Y-102971686D01*
X96074609Y-102936774D01*
X96103147Y-102933500D01*
X98791800Y-102933500D01*
X98859921Y-102953502D01*
X98879147Y-102969843D01*
X98879420Y-102969540D01*
X98884332Y-102973962D01*
X98888747Y-102978866D01*
X98906136Y-102991500D01*
X98906366Y-102991667D01*
X98949719Y-103047890D01*
X98955793Y-103118627D01*
X98921398Y-103182697D01*
X97957747Y-104146348D01*
X97949461Y-104153888D01*
X97942982Y-104158000D01*
X97937557Y-104163777D01*
X97896357Y-104207651D01*
X97893602Y-104210493D01*
X97873865Y-104230230D01*
X97871385Y-104233427D01*
X97863682Y-104242447D01*
X97833414Y-104274679D01*
X97829595Y-104281625D01*
X97829593Y-104281628D01*
X97823652Y-104292434D01*
X97812801Y-104308953D01*
X97800386Y-104324959D01*
X97797241Y-104332228D01*
X97797238Y-104332232D01*
X97782826Y-104365537D01*
X97777609Y-104376187D01*
X97756305Y-104414940D01*
X97754334Y-104422615D01*
X97754334Y-104422616D01*
X97751267Y-104434562D01*
X97744863Y-104453266D01*
X97736819Y-104471855D01*
X97735580Y-104479678D01*
X97735577Y-104479688D01*
X97729901Y-104515524D01*
X97727495Y-104527144D01*
X97720560Y-104554158D01*
X97716500Y-104569970D01*
X97716500Y-104590224D01*
X97714949Y-104609934D01*
X97711780Y-104629943D01*
X97712526Y-104637835D01*
X97715941Y-104673961D01*
X97716500Y-104685819D01*
X97716500Y-109485611D01*
X97696498Y-109553732D01*
X97664561Y-109587547D01*
X97584611Y-109645634D01*
X97580190Y-109650544D01*
X97580189Y-109650545D01*
X97532244Y-109703794D01*
X97456824Y-109787556D01*
X97361337Y-109952944D01*
X97302322Y-110134572D01*
X97282360Y-110324500D01*
X97302322Y-110514428D01*
X97361337Y-110696056D01*
X97456824Y-110861444D01*
X97584611Y-111003366D01*
X97739112Y-111115618D01*
X97745140Y-111118302D01*
X97745142Y-111118303D01*
X97907545Y-111190609D01*
X97913576Y-111193294D01*
X98002460Y-111212187D01*
X98093920Y-111231628D01*
X98093925Y-111231628D01*
X98100377Y-111233000D01*
X98291351Y-111233000D01*
X98297803Y-111231628D01*
X98297808Y-111231628D01*
X98389268Y-111212187D01*
X98478152Y-111193294D01*
X98484183Y-111190609D01*
X98646586Y-111118303D01*
X98646588Y-111118302D01*
X98652616Y-111115618D01*
X98807117Y-111003366D01*
X98934904Y-110861444D01*
X99030391Y-110696056D01*
X99089406Y-110514428D01*
X99109368Y-110324500D01*
X99089406Y-110134572D01*
X99030391Y-109952944D01*
X99000380Y-109900964D01*
X98983500Y-109837966D01*
X98983500Y-106126607D01*
X99003502Y-106058486D01*
X99057158Y-106011993D01*
X99127432Y-106001889D01*
X99192012Y-106031383D01*
X99218618Y-106063606D01*
X99260960Y-106136944D01*
X99265378Y-106141851D01*
X99265379Y-106141852D01*
X99380351Y-106269541D01*
X99388747Y-106278866D01*
X99543248Y-106391118D01*
X99549276Y-106393802D01*
X99549278Y-106393803D01*
X99711681Y-106466109D01*
X99717712Y-106468794D01*
X99786263Y-106483365D01*
X99898056Y-106507128D01*
X99898061Y-106507128D01*
X99904513Y-106508500D01*
X100095487Y-106508500D01*
X100101939Y-106507128D01*
X100101944Y-106507128D01*
X100213737Y-106483365D01*
X100282288Y-106468794D01*
X100288319Y-106466109D01*
X100450722Y-106393803D01*
X100450724Y-106393802D01*
X100456752Y-106391118D01*
X100611253Y-106278866D01*
X100615675Y-106273954D01*
X100620577Y-106269541D01*
X100621734Y-106270826D01*
X100674901Y-106238071D01*
X100704137Y-106233683D01*
X100707992Y-106233562D01*
X100711945Y-106233500D01*
X100739856Y-106233500D01*
X100743791Y-106233003D01*
X100743856Y-106232995D01*
X100755693Y-106232062D01*
X100787951Y-106231048D01*
X100791970Y-106230922D01*
X100799889Y-106230673D01*
X100819343Y-106225021D01*
X100838700Y-106221013D01*
X100850930Y-106219468D01*
X100850931Y-106219468D01*
X100858797Y-106218474D01*
X100866168Y-106215555D01*
X100866170Y-106215555D01*
X100899912Y-106202196D01*
X100911142Y-106198351D01*
X100945983Y-106188229D01*
X100945984Y-106188229D01*
X100953593Y-106186018D01*
X100960412Y-106181985D01*
X100960417Y-106181983D01*
X100971028Y-106175707D01*
X100988776Y-106167012D01*
X101007617Y-106159552D01*
X101043387Y-106133564D01*
X101053307Y-106127048D01*
X101084535Y-106108580D01*
X101084538Y-106108578D01*
X101091362Y-106104542D01*
X101105683Y-106090221D01*
X101120717Y-106077380D01*
X101130694Y-106070131D01*
X101137107Y-106065472D01*
X101165298Y-106031395D01*
X101173288Y-106022616D01*
X101276134Y-105919770D01*
X109892253Y-97303652D01*
X109900539Y-97296112D01*
X109907018Y-97292000D01*
X109953644Y-97242348D01*
X109956398Y-97239507D01*
X109976135Y-97219770D01*
X109978615Y-97216573D01*
X109986320Y-97207551D01*
X110011159Y-97181100D01*
X110016586Y-97175321D01*
X110020405Y-97168375D01*
X110020407Y-97168372D01*
X110026348Y-97157566D01*
X110037199Y-97141047D01*
X110044758Y-97131301D01*
X110049614Y-97125041D01*
X110052759Y-97117772D01*
X110052762Y-97117768D01*
X110067174Y-97084463D01*
X110072391Y-97073813D01*
X110093695Y-97035060D01*
X110098733Y-97015437D01*
X110105137Y-96996734D01*
X110110033Y-96985420D01*
X110110033Y-96985419D01*
X110113181Y-96978145D01*
X110114420Y-96970322D01*
X110114423Y-96970312D01*
X110120099Y-96934476D01*
X110122505Y-96922856D01*
X110131528Y-96887711D01*
X110131528Y-96887710D01*
X110133500Y-96880030D01*
X110133500Y-96859776D01*
X110135051Y-96840065D01*
X110136980Y-96827886D01*
X110138220Y-96820057D01*
X110134059Y-96776038D01*
X110133500Y-96764181D01*
X110133500Y-95102524D01*
X110153502Y-95034403D01*
X110165858Y-95018221D01*
X110239040Y-94936944D01*
X110334527Y-94771556D01*
X110393542Y-94589928D01*
X110408987Y-94442982D01*
X110412814Y-94406565D01*
X110413504Y-94400000D01*
X110403034Y-94300386D01*
X110394232Y-94216635D01*
X110394232Y-94216633D01*
X110393542Y-94210072D01*
X110334527Y-94028444D01*
X110239040Y-93863056D01*
X110205009Y-93825260D01*
X110115675Y-93726045D01*
X110115674Y-93726044D01*
X110111253Y-93721134D01*
X109956752Y-93608882D01*
X109950724Y-93606198D01*
X109950722Y-93606197D01*
X109788319Y-93533891D01*
X109788318Y-93533891D01*
X109782288Y-93531206D01*
X109688887Y-93511353D01*
X109601944Y-93492872D01*
X109601939Y-93492872D01*
X109595487Y-93491500D01*
X109404513Y-93491500D01*
X109398061Y-93492872D01*
X109398056Y-93492872D01*
X109311113Y-93511353D01*
X109217712Y-93531206D01*
X109211682Y-93533891D01*
X109211681Y-93533891D01*
X109049278Y-93606197D01*
X109049276Y-93606198D01*
X109043248Y-93608882D01*
X108888747Y-93721134D01*
X108884326Y-93726044D01*
X108884325Y-93726045D01*
X108794992Y-93825260D01*
X108760960Y-93863056D01*
X108665473Y-94028444D01*
X108606458Y-94210072D01*
X108605768Y-94216633D01*
X108605768Y-94216635D01*
X108596966Y-94300386D01*
X108586496Y-94400000D01*
X108587186Y-94406565D01*
X108591014Y-94442982D01*
X108606458Y-94589928D01*
X108665473Y-94771556D01*
X108760960Y-94936944D01*
X108834137Y-95018215D01*
X108864853Y-95082221D01*
X108866500Y-95102524D01*
X108866500Y-96485406D01*
X108846498Y-96553527D01*
X108829595Y-96574501D01*
X100612393Y-104791702D01*
X100550081Y-104825728D01*
X100479266Y-104820663D01*
X100461344Y-104812218D01*
X100456752Y-104808882D01*
X100450726Y-104806199D01*
X100288319Y-104733891D01*
X100288318Y-104733891D01*
X100282288Y-104731206D01*
X100188888Y-104711353D01*
X100101944Y-104692872D01*
X100101939Y-104692872D01*
X100095487Y-104691500D01*
X99904513Y-104691500D01*
X99898061Y-104692872D01*
X99898056Y-104692872D01*
X99811112Y-104711353D01*
X99717712Y-104731206D01*
X99711682Y-104733891D01*
X99711681Y-104733891D01*
X99549278Y-104806197D01*
X99549276Y-104806198D01*
X99543248Y-104808882D01*
X99537907Y-104812762D01*
X99537906Y-104812763D01*
X99492429Y-104845804D01*
X99388747Y-104921134D01*
X99384326Y-104926044D01*
X99384325Y-104926045D01*
X99269390Y-105053694D01*
X99260960Y-105063056D01*
X99252997Y-105076849D01*
X99218619Y-105136393D01*
X99167237Y-105185386D01*
X99097523Y-105198822D01*
X99031612Y-105172436D01*
X98990430Y-105114604D01*
X98983500Y-105073393D01*
X98983500Y-104964594D01*
X99003502Y-104896473D01*
X99020405Y-104875499D01*
X102092247Y-101803657D01*
X102100537Y-101796113D01*
X102107018Y-101792000D01*
X102153659Y-101742332D01*
X102156413Y-101739491D01*
X102176134Y-101719770D01*
X102178612Y-101716575D01*
X102186318Y-101707553D01*
X102211158Y-101681101D01*
X102216586Y-101675321D01*
X102226346Y-101657568D01*
X102237199Y-101641045D01*
X102244753Y-101631306D01*
X102249613Y-101625041D01*
X102267176Y-101584457D01*
X102272383Y-101573827D01*
X102293695Y-101535060D01*
X102295666Y-101527383D01*
X102295668Y-101527378D01*
X102298732Y-101515442D01*
X102305138Y-101496730D01*
X102310034Y-101485417D01*
X102313181Y-101478145D01*
X102320097Y-101434481D01*
X102322504Y-101422860D01*
X102331528Y-101387711D01*
X102331528Y-101387710D01*
X102333500Y-101380030D01*
X102333500Y-101359769D01*
X102335051Y-101340058D01*
X102336979Y-101327885D01*
X102338219Y-101320057D01*
X102334059Y-101276046D01*
X102333500Y-101264189D01*
X102333500Y-98178763D01*
X102334027Y-98167579D01*
X102335701Y-98160091D01*
X102333562Y-98092032D01*
X102333500Y-98088075D01*
X102333500Y-98060144D01*
X102332994Y-98056138D01*
X102332061Y-98044292D01*
X102330922Y-98008037D01*
X102330673Y-98000110D01*
X102325022Y-97980658D01*
X102321014Y-97961306D01*
X102319467Y-97949063D01*
X102318474Y-97941203D01*
X102314980Y-97932377D01*
X102302200Y-97900097D01*
X102298355Y-97888870D01*
X102297721Y-97886687D01*
X102286018Y-97846407D01*
X102281984Y-97839585D01*
X102281981Y-97839579D01*
X102275706Y-97828968D01*
X102267010Y-97811218D01*
X102262472Y-97799756D01*
X102262469Y-97799751D01*
X102259552Y-97792383D01*
X102233573Y-97756625D01*
X102227057Y-97746707D01*
X102208575Y-97715457D01*
X102204542Y-97708637D01*
X102190218Y-97694313D01*
X102177376Y-97679278D01*
X102165472Y-97662893D01*
X102131406Y-97634711D01*
X102122627Y-97626722D01*
X101147122Y-96651217D01*
X101113096Y-96588905D01*
X101110907Y-96575292D01*
X101108620Y-96553527D01*
X101093542Y-96410072D01*
X101034527Y-96228444D01*
X100939040Y-96063056D01*
X100811253Y-95921134D01*
X100656752Y-95808882D01*
X100650724Y-95806198D01*
X100650722Y-95806197D01*
X100488319Y-95733891D01*
X100488318Y-95733891D01*
X100482288Y-95731206D01*
X100388887Y-95711353D01*
X100301944Y-95692872D01*
X100301939Y-95692872D01*
X100295487Y-95691500D01*
X100104513Y-95691500D01*
X100098061Y-95692872D01*
X100098056Y-95692872D01*
X100011113Y-95711353D01*
X99917712Y-95731206D01*
X99911682Y-95733891D01*
X99911681Y-95733891D01*
X99749278Y-95806197D01*
X99749276Y-95806198D01*
X99743248Y-95808882D01*
X99588747Y-95921134D01*
X99460960Y-96063056D01*
X99365473Y-96228444D01*
X99306458Y-96410072D01*
X99286496Y-96600000D01*
X99287186Y-96606565D01*
X99304377Y-96770125D01*
X99306458Y-96789928D01*
X99365473Y-96971556D01*
X99368776Y-96977278D01*
X99368777Y-96977279D01*
X99385263Y-97005834D01*
X99460960Y-97136944D01*
X99465378Y-97141851D01*
X99465379Y-97141852D01*
X99553308Y-97239507D01*
X99588747Y-97278866D01*
X99743248Y-97391118D01*
X99749276Y-97393802D01*
X99749278Y-97393803D01*
X99875441Y-97449974D01*
X99917712Y-97468794D01*
X100011112Y-97488647D01*
X100098056Y-97507128D01*
X100098061Y-97507128D01*
X100104513Y-97508500D01*
X100160406Y-97508500D01*
X100228527Y-97528502D01*
X100249501Y-97545405D01*
X101029595Y-98325499D01*
X101063621Y-98387811D01*
X101066500Y-98414594D01*
X101066500Y-100985405D01*
X101046498Y-101053526D01*
X101029595Y-101074500D01*
X100719227Y-101384868D01*
X100656915Y-101418894D01*
X100586100Y-101413829D01*
X100529264Y-101371282D01*
X100504453Y-101304762D01*
X100504822Y-101282602D01*
X100506758Y-101264189D01*
X100513504Y-101200000D01*
X100493542Y-101010072D01*
X100434527Y-100828444D01*
X100339040Y-100663056D01*
X100322881Y-100645109D01*
X100215675Y-100526045D01*
X100215674Y-100526044D01*
X100211253Y-100521134D01*
X100089965Y-100433013D01*
X100062094Y-100412763D01*
X100062093Y-100412762D01*
X100056752Y-100408882D01*
X100050724Y-100406198D01*
X100050722Y-100406197D01*
X99888319Y-100333891D01*
X99888318Y-100333891D01*
X99882288Y-100331206D01*
X99788888Y-100311353D01*
X99701944Y-100292872D01*
X99701939Y-100292872D01*
X99695487Y-100291500D01*
X99504513Y-100291500D01*
X99498061Y-100292872D01*
X99498056Y-100292872D01*
X99411113Y-100311353D01*
X99317712Y-100331206D01*
X99278236Y-100348782D01*
X99274157Y-100350598D01*
X99203790Y-100360032D01*
X99139493Y-100329926D01*
X99101679Y-100269837D01*
X99097598Y-100248662D01*
X99094232Y-100216635D01*
X99094232Y-100216633D01*
X99093542Y-100210072D01*
X99034527Y-100028444D01*
X98939040Y-99863056D01*
X98811253Y-99721134D01*
X98656752Y-99608882D01*
X98650724Y-99606198D01*
X98650722Y-99606197D01*
X98488319Y-99533891D01*
X98488318Y-99533891D01*
X98482288Y-99531206D01*
X98388887Y-99511353D01*
X98301944Y-99492872D01*
X98301939Y-99492872D01*
X98295487Y-99491500D01*
X98239595Y-99491500D01*
X98171474Y-99471498D01*
X98150500Y-99454595D01*
X93153652Y-94457747D01*
X93146112Y-94449461D01*
X93142000Y-94442982D01*
X93092348Y-94396356D01*
X93089507Y-94393602D01*
X93069770Y-94373865D01*
X93066573Y-94371385D01*
X93057551Y-94363680D01*
X93031100Y-94338841D01*
X93025321Y-94333414D01*
X93018375Y-94329595D01*
X93018372Y-94329593D01*
X93007566Y-94323652D01*
X92991047Y-94312801D01*
X92990583Y-94312441D01*
X92975041Y-94300386D01*
X92967772Y-94297241D01*
X92967768Y-94297238D01*
X92934463Y-94282826D01*
X92923813Y-94277609D01*
X92885060Y-94256305D01*
X92865437Y-94251267D01*
X92846734Y-94244863D01*
X92835420Y-94239967D01*
X92835419Y-94239967D01*
X92828145Y-94236819D01*
X92820322Y-94235580D01*
X92820312Y-94235577D01*
X92784476Y-94229901D01*
X92772856Y-94227495D01*
X92737711Y-94218472D01*
X92737710Y-94218472D01*
X92730030Y-94216500D01*
X92709776Y-94216500D01*
X92690065Y-94214949D01*
X92677886Y-94213020D01*
X92670057Y-94211780D01*
X92662165Y-94212526D01*
X92626039Y-94215941D01*
X92614181Y-94216500D01*
X72464595Y-94216500D01*
X72396474Y-94196498D01*
X72375500Y-94179595D01*
X71745905Y-93550000D01*
X71711879Y-93487688D01*
X71709000Y-93460905D01*
X71709000Y-92800000D01*
X73386496Y-92800000D01*
X73406458Y-92989928D01*
X73465473Y-93171556D01*
X73560960Y-93336944D01*
X73688747Y-93478866D01*
X73843248Y-93591118D01*
X73849276Y-93593802D01*
X73849278Y-93593803D01*
X74011681Y-93666109D01*
X74017712Y-93668794D01*
X74111112Y-93688647D01*
X74198056Y-93707128D01*
X74198061Y-93707128D01*
X74204513Y-93708500D01*
X74395487Y-93708500D01*
X74401939Y-93707128D01*
X74401944Y-93707128D01*
X74488888Y-93688647D01*
X74582288Y-93668794D01*
X74588319Y-93666109D01*
X74750722Y-93593803D01*
X74750724Y-93593802D01*
X74756752Y-93591118D01*
X74911253Y-93478866D01*
X75039040Y-93336944D01*
X75134527Y-93171556D01*
X75193542Y-92989928D01*
X75213504Y-92800000D01*
X75193542Y-92610072D01*
X75189667Y-92598146D01*
X75183500Y-92559210D01*
X75183500Y-88960000D01*
X79826496Y-88960000D01*
X79827186Y-88966565D01*
X79829642Y-88989928D01*
X79846458Y-89149928D01*
X79905473Y-89331556D01*
X80000960Y-89496944D01*
X80005378Y-89501851D01*
X80005379Y-89501852D01*
X80088172Y-89593803D01*
X80128747Y-89638866D01*
X80283248Y-89751118D01*
X80289276Y-89753802D01*
X80289278Y-89753803D01*
X80451681Y-89826109D01*
X80457712Y-89828794D01*
X80551112Y-89848647D01*
X80638056Y-89867128D01*
X80638061Y-89867128D01*
X80644513Y-89868500D01*
X80835487Y-89868500D01*
X80841939Y-89867128D01*
X80841944Y-89867128D01*
X80928888Y-89848647D01*
X81022288Y-89828794D01*
X81028319Y-89826109D01*
X81190722Y-89753803D01*
X81190724Y-89753802D01*
X81196752Y-89751118D01*
X81351253Y-89638866D01*
X81391828Y-89593803D01*
X81474621Y-89501852D01*
X81474622Y-89501851D01*
X81479040Y-89496944D01*
X81506982Y-89448547D01*
X81527006Y-89422452D01*
X88613034Y-82336423D01*
X98278703Y-82336423D01*
X98286227Y-82346854D01*
X98425483Y-82459020D01*
X98431657Y-82463408D01*
X98702271Y-82632178D01*
X98708931Y-82635794D01*
X98997852Y-82770827D01*
X99004905Y-82773620D01*
X99307970Y-82872970D01*
X99315282Y-82874888D01*
X99628092Y-82937109D01*
X99635590Y-82938137D01*
X99953610Y-82962328D01*
X99961173Y-82962446D01*
X100279785Y-82948257D01*
X100287326Y-82947465D01*
X100601924Y-82895101D01*
X100609302Y-82893411D01*
X100915355Y-82803625D01*
X100922450Y-82801071D01*
X101215496Y-82675169D01*
X101222263Y-82671765D01*
X101498042Y-82511580D01*
X101504349Y-82507390D01*
X101714305Y-82348889D01*
X101722761Y-82337496D01*
X101716045Y-82325256D01*
X100012810Y-80622020D01*
X99998869Y-80614408D01*
X99997034Y-80614539D01*
X99990420Y-80618790D01*
X98285818Y-82323393D01*
X98278703Y-82336423D01*
X88613034Y-82336423D01*
X90724074Y-80225383D01*
X97287388Y-80225383D01*
X97303245Y-80543914D01*
X97304076Y-80551443D01*
X97358085Y-80865759D01*
X97359818Y-80873146D01*
X97451196Y-81178695D01*
X97453799Y-81185808D01*
X97581227Y-81478173D01*
X97584669Y-81484929D01*
X97746296Y-81759865D01*
X97750519Y-81766150D01*
X97901463Y-81963934D01*
X97912989Y-81972396D01*
X97925054Y-81965735D01*
X99627980Y-80262810D01*
X99634357Y-80251131D01*
X100364408Y-80251131D01*
X100364539Y-80252966D01*
X100368790Y-80259580D01*
X102073285Y-81964074D01*
X102086408Y-81971240D01*
X102096709Y-81963851D01*
X102200751Y-81836055D01*
X102205164Y-81829914D01*
X102375349Y-81560187D01*
X102379005Y-81553536D01*
X102515544Y-81265335D01*
X102518375Y-81258295D01*
X102619306Y-80955767D01*
X102621270Y-80948433D01*
X102685122Y-80635989D01*
X102686194Y-80628465D01*
X102712173Y-80309051D01*
X102712378Y-80304576D01*
X102712927Y-80252221D01*
X102712817Y-80247789D01*
X102693529Y-79927853D01*
X102692621Y-79920351D01*
X102635319Y-79606593D01*
X102633518Y-79599260D01*
X102538935Y-79294655D01*
X102536263Y-79287583D01*
X102405781Y-78996570D01*
X102402264Y-78989843D01*
X102237771Y-78716621D01*
X102233481Y-78710377D01*
X102097991Y-78536647D01*
X102086199Y-78528178D01*
X102074486Y-78534725D01*
X100372020Y-80237190D01*
X100364408Y-80251131D01*
X99634357Y-80251131D01*
X99635592Y-80248869D01*
X99635461Y-80247034D01*
X99631210Y-80240420D01*
X97926445Y-78535656D01*
X97913510Y-78528592D01*
X97902949Y-78536252D01*
X97782766Y-78687072D01*
X97778410Y-78693270D01*
X97611059Y-78964764D01*
X97607479Y-78971440D01*
X97473956Y-79261074D01*
X97471206Y-79268125D01*
X97373444Y-79571708D01*
X97371561Y-79579041D01*
X97310979Y-79892170D01*
X97309992Y-79899670D01*
X97287467Y-80217802D01*
X97287388Y-80225383D01*
X90724074Y-80225383D01*
X92786034Y-78163423D01*
X98277917Y-78163423D01*
X98284520Y-78175309D01*
X99987190Y-79877980D01*
X100001131Y-79885592D01*
X100002966Y-79885461D01*
X100009580Y-79881210D01*
X101714559Y-78176230D01*
X101721571Y-78163389D01*
X101713777Y-78152701D01*
X101551298Y-78024613D01*
X101545075Y-78020288D01*
X101272702Y-77854357D01*
X101266025Y-77850822D01*
X100975686Y-77718813D01*
X100968616Y-77716099D01*
X100664537Y-77619932D01*
X100657186Y-77618085D01*
X100343746Y-77559142D01*
X100336237Y-77558194D01*
X100017989Y-77537335D01*
X100010424Y-77537295D01*
X99691964Y-77554821D01*
X99684450Y-77555690D01*
X99370405Y-77611348D01*
X99363044Y-77613115D01*
X99057980Y-77706092D01*
X99050860Y-77708740D01*
X98759182Y-77837690D01*
X98752445Y-77841167D01*
X98478355Y-78004233D01*
X98472091Y-78008490D01*
X98286385Y-78151762D01*
X98277917Y-78163423D01*
X92786034Y-78163423D01*
X93729052Y-77220405D01*
X93791364Y-77186379D01*
X93818147Y-77183500D01*
X101320543Y-77183500D01*
X101340255Y-77185051D01*
X101353507Y-77187150D01*
X101360094Y-77186805D01*
X101360098Y-77186805D01*
X101419850Y-77183673D01*
X101426445Y-77183500D01*
X101446306Y-77183500D01*
X101466069Y-77181423D01*
X101472628Y-77180907D01*
X101488427Y-77180079D01*
X101532377Y-77177776D01*
X101532381Y-77177775D01*
X101538971Y-77177430D01*
X101551929Y-77173958D01*
X101571372Y-77170355D01*
X101571795Y-77170311D01*
X101584702Y-77168954D01*
X101647894Y-77148422D01*
X101654196Y-77146556D01*
X101711985Y-77131071D01*
X101718363Y-77129362D01*
X101724242Y-77126366D01*
X101724251Y-77126363D01*
X101730317Y-77123272D01*
X101748579Y-77115708D01*
X101755043Y-77113608D01*
X101755051Y-77113605D01*
X101761331Y-77111564D01*
X101767050Y-77108262D01*
X101767055Y-77108260D01*
X101818867Y-77078346D01*
X101824637Y-77075213D01*
X101883839Y-77045047D01*
X101894259Y-77036609D01*
X101910552Y-77025411D01*
X101910903Y-77025209D01*
X101922169Y-77018704D01*
X101927075Y-77014287D01*
X101927080Y-77014283D01*
X101971538Y-76974253D01*
X101976554Y-76969969D01*
X101989409Y-76959559D01*
X101989412Y-76959556D01*
X101991986Y-76957472D01*
X102006031Y-76943427D01*
X102010816Y-76938886D01*
X102055274Y-76898856D01*
X102055275Y-76898855D01*
X102060185Y-76894434D01*
X102068068Y-76883584D01*
X102080908Y-76868550D01*
X102968545Y-75980912D01*
X102983581Y-75968070D01*
X102994434Y-75960185D01*
X103038895Y-75910806D01*
X103043436Y-75906021D01*
X103057472Y-75891985D01*
X103063427Y-75884631D01*
X103069969Y-75876553D01*
X103074253Y-75871538D01*
X103114283Y-75827080D01*
X103114287Y-75827075D01*
X103118704Y-75822169D01*
X103125412Y-75810551D01*
X103136607Y-75794263D01*
X103140890Y-75788974D01*
X103140891Y-75788973D01*
X103145048Y-75783839D01*
X103175214Y-75724633D01*
X103178349Y-75718861D01*
X103208260Y-75667056D01*
X103208265Y-75667046D01*
X103211564Y-75661331D01*
X103213607Y-75655045D01*
X103215712Y-75648569D01*
X103223273Y-75630314D01*
X103226366Y-75624244D01*
X103226369Y-75624237D01*
X103229362Y-75618362D01*
X103246567Y-75554155D01*
X103248418Y-75547908D01*
X103268954Y-75484702D01*
X103269645Y-75478131D01*
X103270357Y-75471361D01*
X103273959Y-75451926D01*
X103275719Y-75445357D01*
X103275719Y-75445355D01*
X103277430Y-75438971D01*
X103280907Y-75372628D01*
X103281424Y-75366059D01*
X103283156Y-75349577D01*
X103283500Y-75346306D01*
X103283500Y-75326445D01*
X103283673Y-75319850D01*
X103286805Y-75260098D01*
X103286805Y-75260094D01*
X103287150Y-75253507D01*
X103285051Y-75240253D01*
X103283500Y-75220544D01*
X103283500Y-74609500D01*
X103303502Y-74541379D01*
X103357158Y-74494886D01*
X103409500Y-74483500D01*
X107681852Y-74483500D01*
X107749973Y-74503502D01*
X107770947Y-74520405D01*
X111479595Y-78229053D01*
X111513621Y-78291365D01*
X111516500Y-78318148D01*
X111516500Y-90720543D01*
X111514949Y-90740255D01*
X111512850Y-90753507D01*
X111513195Y-90760094D01*
X111513195Y-90760098D01*
X111516327Y-90819850D01*
X111516500Y-90826445D01*
X111516500Y-97381853D01*
X111496498Y-97449974D01*
X111479595Y-97470948D01*
X107600690Y-101349852D01*
X103731454Y-105219088D01*
X103716426Y-105231925D01*
X103705566Y-105239815D01*
X103701145Y-105244725D01*
X103701144Y-105244726D01*
X103661114Y-105289184D01*
X103656573Y-105293969D01*
X103642528Y-105308014D01*
X103640444Y-105310588D01*
X103640441Y-105310591D01*
X103630031Y-105323446D01*
X103625747Y-105328462D01*
X103585717Y-105372920D01*
X103585713Y-105372925D01*
X103581296Y-105377831D01*
X103574791Y-105389097D01*
X103574589Y-105389448D01*
X103563391Y-105405741D01*
X103554953Y-105416161D01*
X103524787Y-105475363D01*
X103521654Y-105481133D01*
X103491740Y-105532945D01*
X103491738Y-105532950D01*
X103488436Y-105538669D01*
X103486395Y-105544949D01*
X103486392Y-105544957D01*
X103484292Y-105551421D01*
X103476728Y-105569683D01*
X103473637Y-105575749D01*
X103473634Y-105575758D01*
X103470638Y-105581637D01*
X103468929Y-105588015D01*
X103453444Y-105645804D01*
X103451578Y-105652106D01*
X103431046Y-105715298D01*
X103430356Y-105721866D01*
X103429645Y-105728628D01*
X103426042Y-105748071D01*
X103422570Y-105761029D01*
X103422225Y-105767619D01*
X103422224Y-105767623D01*
X103419093Y-105827367D01*
X103418577Y-105833931D01*
X103416500Y-105853694D01*
X103416500Y-105873555D01*
X103416327Y-105880150D01*
X103413467Y-105934729D01*
X103412850Y-105946493D01*
X103413882Y-105953007D01*
X103414949Y-105959744D01*
X103416500Y-105979456D01*
X103416500Y-149020543D01*
X103414949Y-149040255D01*
X103412850Y-149053507D01*
X103413195Y-149060094D01*
X103413195Y-149060098D01*
X103416327Y-149119850D01*
X103416500Y-149126445D01*
X103416500Y-149146306D01*
X103416844Y-149149577D01*
X103418576Y-149166059D01*
X103419093Y-149172628D01*
X103419672Y-149183673D01*
X103420608Y-149201531D01*
X103422570Y-149238971D01*
X103426042Y-149251929D01*
X103429645Y-149271372D01*
X103431046Y-149284702D01*
X103451578Y-149347894D01*
X103453444Y-149354196D01*
X103470638Y-149418363D01*
X103473634Y-149424242D01*
X103473637Y-149424251D01*
X103476728Y-149430317D01*
X103484292Y-149448579D01*
X103486392Y-149455043D01*
X103486395Y-149455051D01*
X103488436Y-149461331D01*
X103491738Y-149467050D01*
X103491740Y-149467055D01*
X103521654Y-149518867D01*
X103524787Y-149524637D01*
X103554953Y-149583839D01*
X103559109Y-149588971D01*
X103563391Y-149594259D01*
X103574589Y-149610552D01*
X103581296Y-149622169D01*
X103585713Y-149627075D01*
X103585717Y-149627080D01*
X103625747Y-149671538D01*
X103630031Y-149676554D01*
X103640441Y-149689409D01*
X103642528Y-149691986D01*
X103656573Y-149706031D01*
X103661114Y-149710816D01*
X103705566Y-149760185D01*
X103716426Y-149768075D01*
X103731454Y-149780912D01*
X105112991Y-151162449D01*
X105133015Y-151188543D01*
X105160960Y-151236944D01*
X105288747Y-151378866D01*
X105443248Y-151491118D01*
X105449276Y-151493802D01*
X105449278Y-151493803D01*
X105611681Y-151566109D01*
X105617712Y-151568794D01*
X105711112Y-151588647D01*
X105798056Y-151607128D01*
X105798061Y-151607128D01*
X105804513Y-151608500D01*
X105995487Y-151608500D01*
X106001939Y-151607128D01*
X106001944Y-151607128D01*
X106088888Y-151588647D01*
X106182288Y-151568794D01*
X106188319Y-151566109D01*
X106350722Y-151493803D01*
X106350724Y-151493802D01*
X106356752Y-151491118D01*
X106511253Y-151378866D01*
X106515675Y-151373955D01*
X106634621Y-151241852D01*
X106634622Y-151241851D01*
X106639040Y-151236944D01*
X106734527Y-151071556D01*
X106785908Y-150913423D01*
X119827917Y-150913423D01*
X119834520Y-150925309D01*
X121537190Y-152627980D01*
X121551131Y-152635592D01*
X121552966Y-152635461D01*
X121559580Y-152631210D01*
X123264559Y-150926230D01*
X123271571Y-150913389D01*
X123263777Y-150902701D01*
X123101298Y-150774613D01*
X123095075Y-150770288D01*
X122822702Y-150604357D01*
X122816025Y-150600822D01*
X122726633Y-150560178D01*
X135923338Y-150560178D01*
X135929184Y-150569974D01*
X137987188Y-152627978D01*
X138001132Y-152635592D01*
X138002965Y-152635461D01*
X138009580Y-152631210D01*
X140069714Y-150571076D01*
X140077328Y-150557132D01*
X140077323Y-150557057D01*
X140071217Y-150548081D01*
X140015933Y-150498303D01*
X140010445Y-150493891D01*
X139724508Y-150289180D01*
X139718561Y-150285407D01*
X139411586Y-150113844D01*
X139405268Y-150110762D01*
X139081073Y-149974484D01*
X139074437Y-149972121D01*
X138737084Y-149872832D01*
X138730241Y-149871226D01*
X138383898Y-149810157D01*
X138376927Y-149809326D01*
X138025949Y-149787244D01*
X138018918Y-149787195D01*
X137667651Y-149804374D01*
X137660673Y-149805108D01*
X137313519Y-149861335D01*
X137306651Y-149862845D01*
X136967935Y-149957417D01*
X136961279Y-149959683D01*
X136635212Y-150091422D01*
X136628857Y-150094412D01*
X136319501Y-150261681D01*
X136313512Y-150265365D01*
X136024731Y-150466073D01*
X136019200Y-150470394D01*
X135931736Y-150546964D01*
X135923338Y-150560178D01*
X122726633Y-150560178D01*
X122525686Y-150468813D01*
X122518616Y-150466099D01*
X122214537Y-150369932D01*
X122207186Y-150368085D01*
X121893746Y-150309142D01*
X121886237Y-150308194D01*
X121567989Y-150287335D01*
X121560424Y-150287295D01*
X121241964Y-150304821D01*
X121234450Y-150305690D01*
X120920405Y-150361348D01*
X120913044Y-150363115D01*
X120607980Y-150456092D01*
X120600860Y-150458740D01*
X120309182Y-150587690D01*
X120302445Y-150591167D01*
X120028355Y-150754233D01*
X120022091Y-150758490D01*
X119836385Y-150901762D01*
X119827917Y-150913423D01*
X106785908Y-150913423D01*
X106793542Y-150889928D01*
X106813504Y-150700000D01*
X106797537Y-150548081D01*
X106794232Y-150516635D01*
X106794232Y-150516633D01*
X106793542Y-150510072D01*
X106734527Y-150328444D01*
X106639040Y-150163056D01*
X106594730Y-150113844D01*
X106515675Y-150026045D01*
X106515674Y-150026044D01*
X106511253Y-150021134D01*
X106370575Y-149918925D01*
X106355542Y-149906085D01*
X105647592Y-149198134D01*
X112941500Y-149198134D01*
X112948255Y-149260316D01*
X112999385Y-149396705D01*
X113086739Y-149513261D01*
X113203295Y-149600615D01*
X113339684Y-149651745D01*
X113401866Y-149658500D01*
X115198134Y-149658500D01*
X115260316Y-149651745D01*
X115396705Y-149600615D01*
X115513261Y-149513261D01*
X115600615Y-149396705D01*
X115618921Y-149347874D01*
X115649888Y-149265270D01*
X115692530Y-149208506D01*
X115759091Y-149183806D01*
X115767870Y-149183500D01*
X121520543Y-149183500D01*
X121540255Y-149185051D01*
X121553507Y-149187150D01*
X121560094Y-149186805D01*
X121560098Y-149186805D01*
X121619850Y-149183673D01*
X121626445Y-149183500D01*
X121646306Y-149183500D01*
X121666069Y-149181423D01*
X121672628Y-149180907D01*
X121688427Y-149180079D01*
X121732377Y-149177776D01*
X121732381Y-149177775D01*
X121738971Y-149177430D01*
X121751929Y-149173958D01*
X121771372Y-149170355D01*
X121771795Y-149170311D01*
X121784702Y-149168954D01*
X121847894Y-149148422D01*
X121854196Y-149146556D01*
X121911985Y-149131071D01*
X121918363Y-149129362D01*
X121924242Y-149126366D01*
X121924251Y-149126363D01*
X121930317Y-149123272D01*
X121948579Y-149115708D01*
X121955043Y-149113608D01*
X121955051Y-149113605D01*
X121961331Y-149111564D01*
X121967050Y-149108262D01*
X121967055Y-149108260D01*
X122018867Y-149078346D01*
X122024637Y-149075213D01*
X122083839Y-149045047D01*
X122094262Y-149036607D01*
X122110552Y-149025411D01*
X122110903Y-149025209D01*
X122122169Y-149018704D01*
X122127075Y-149014287D01*
X122127080Y-149014283D01*
X122171538Y-148974253D01*
X122176554Y-148969969D01*
X122189409Y-148959559D01*
X122189412Y-148959556D01*
X122191986Y-148957472D01*
X122206031Y-148943427D01*
X122210816Y-148938886D01*
X122255274Y-148898856D01*
X122255275Y-148898855D01*
X122260185Y-148894434D01*
X122268075Y-148883574D01*
X122280912Y-148868546D01*
X125968542Y-145180915D01*
X125983577Y-145168074D01*
X125989084Y-145164073D01*
X125989090Y-145164068D01*
X125994434Y-145160185D01*
X126038895Y-145110806D01*
X126043436Y-145106021D01*
X126057472Y-145091985D01*
X126069969Y-145076553D01*
X126074253Y-145071538D01*
X126114283Y-145027080D01*
X126114287Y-145027075D01*
X126118704Y-145022169D01*
X126125412Y-145010551D01*
X126136607Y-144994263D01*
X126140890Y-144988974D01*
X126140891Y-144988973D01*
X126145048Y-144983839D01*
X126175214Y-144924633D01*
X126178349Y-144918861D01*
X126208260Y-144867056D01*
X126208265Y-144867046D01*
X126211564Y-144861331D01*
X126213607Y-144855045D01*
X126215712Y-144848569D01*
X126223273Y-144830314D01*
X126226366Y-144824244D01*
X126226369Y-144824237D01*
X126229362Y-144818362D01*
X126246567Y-144754155D01*
X126248418Y-144747908D01*
X126268954Y-144684702D01*
X126269645Y-144678131D01*
X126270357Y-144671361D01*
X126273959Y-144651926D01*
X126275719Y-144645357D01*
X126275719Y-144645355D01*
X126277430Y-144638971D01*
X126280907Y-144572628D01*
X126281424Y-144566059D01*
X126283156Y-144549577D01*
X126283500Y-144546306D01*
X126283500Y-144526445D01*
X126283673Y-144519850D01*
X126286805Y-144460098D01*
X126286805Y-144460094D01*
X126287150Y-144453507D01*
X126285051Y-144440253D01*
X126283500Y-144420544D01*
X126283500Y-109540790D01*
X126289667Y-109501854D01*
X126291502Y-109496206D01*
X126293542Y-109489928D01*
X126307393Y-109358148D01*
X126312814Y-109306565D01*
X126313504Y-109300000D01*
X126293542Y-109110072D01*
X126234527Y-108928444D01*
X126139040Y-108763056D01*
X126097243Y-108716635D01*
X126015675Y-108626045D01*
X126015674Y-108626044D01*
X126011253Y-108621134D01*
X125856752Y-108508882D01*
X125850724Y-108506198D01*
X125850722Y-108506197D01*
X125688319Y-108433891D01*
X125688318Y-108433891D01*
X125682288Y-108431206D01*
X125588887Y-108411353D01*
X125501944Y-108392872D01*
X125501939Y-108392872D01*
X125495487Y-108391500D01*
X125304513Y-108391500D01*
X125298061Y-108392872D01*
X125298056Y-108392872D01*
X125211113Y-108411353D01*
X125117712Y-108431206D01*
X125111682Y-108433891D01*
X125111681Y-108433891D01*
X124949278Y-108506197D01*
X124949276Y-108506198D01*
X124943248Y-108508882D01*
X124788747Y-108621134D01*
X124784326Y-108626044D01*
X124784325Y-108626045D01*
X124702758Y-108716635D01*
X124660960Y-108763056D01*
X124565473Y-108928444D01*
X124506458Y-109110072D01*
X124486496Y-109300000D01*
X124487186Y-109306565D01*
X124492608Y-109358148D01*
X124506458Y-109489928D01*
X124508498Y-109496206D01*
X124510333Y-109501854D01*
X124516500Y-109540790D01*
X124516500Y-144081853D01*
X124496498Y-144149974D01*
X124479595Y-144170948D01*
X121270947Y-147379595D01*
X121208635Y-147413621D01*
X121181852Y-147416500D01*
X115767870Y-147416500D01*
X115699749Y-147396498D01*
X115653256Y-147342842D01*
X115649888Y-147334730D01*
X115603767Y-147211703D01*
X115600615Y-147203295D01*
X115513261Y-147086739D01*
X115396705Y-146999385D01*
X115260316Y-146948255D01*
X115198134Y-146941500D01*
X113401866Y-146941500D01*
X113339684Y-146948255D01*
X113203295Y-146999385D01*
X113086739Y-147086739D01*
X112999385Y-147203295D01*
X112948255Y-147339684D01*
X112941500Y-147401866D01*
X112941500Y-149198134D01*
X105647592Y-149198134D01*
X105220405Y-148770947D01*
X105186379Y-148708635D01*
X105183500Y-148681852D01*
X105183500Y-140598134D01*
X112941500Y-140598134D01*
X112948255Y-140660316D01*
X112999385Y-140796705D01*
X113086739Y-140913261D01*
X113203295Y-141000615D01*
X113339684Y-141051745D01*
X113401866Y-141058500D01*
X115198134Y-141058500D01*
X115260316Y-141051745D01*
X115396705Y-141000615D01*
X115513261Y-140913261D01*
X115600615Y-140796705D01*
X115651745Y-140660316D01*
X115658500Y-140598134D01*
X115658500Y-139643147D01*
X115678502Y-139575026D01*
X115695405Y-139554052D01*
X116191968Y-139057489D01*
X116191987Y-139057471D01*
X116668545Y-138580912D01*
X116683581Y-138568070D01*
X116694434Y-138560185D01*
X116738895Y-138510806D01*
X116743436Y-138506021D01*
X116757472Y-138491985D01*
X116769966Y-138476557D01*
X116774246Y-138471547D01*
X116814284Y-138427079D01*
X116814288Y-138427074D01*
X116818704Y-138422169D01*
X116825410Y-138410554D01*
X116836610Y-138394258D01*
X116840894Y-138388967D01*
X116845047Y-138383839D01*
X116875213Y-138324637D01*
X116878346Y-138318867D01*
X116908260Y-138267055D01*
X116908262Y-138267050D01*
X116911564Y-138261331D01*
X116913605Y-138255051D01*
X116913608Y-138255043D01*
X116915708Y-138248579D01*
X116923272Y-138230317D01*
X116926363Y-138224251D01*
X116926366Y-138224242D01*
X116929362Y-138218363D01*
X116946556Y-138154196D01*
X116948422Y-138147894D01*
X116968954Y-138084702D01*
X116970355Y-138071372D01*
X116973958Y-138051929D01*
X116977430Y-138038971D01*
X116980907Y-137972628D01*
X116981424Y-137966059D01*
X116983156Y-137949577D01*
X116983500Y-137946306D01*
X116983500Y-137926445D01*
X116983673Y-137919850D01*
X116986805Y-137860098D01*
X116986805Y-137860094D01*
X116987150Y-137853507D01*
X116985051Y-137840253D01*
X116983500Y-137820544D01*
X116983500Y-137086423D01*
X119828703Y-137086423D01*
X119836227Y-137096854D01*
X119975483Y-137209020D01*
X119981657Y-137213408D01*
X120252271Y-137382178D01*
X120258931Y-137385794D01*
X120547852Y-137520827D01*
X120554905Y-137523620D01*
X120857970Y-137622970D01*
X120865282Y-137624888D01*
X121178092Y-137687109D01*
X121185590Y-137688137D01*
X121503610Y-137712328D01*
X121511173Y-137712446D01*
X121829785Y-137698257D01*
X121837326Y-137697465D01*
X122151924Y-137645101D01*
X122159302Y-137643411D01*
X122465355Y-137553625D01*
X122472450Y-137551071D01*
X122765496Y-137425169D01*
X122772263Y-137421765D01*
X123048042Y-137261580D01*
X123054349Y-137257390D01*
X123264305Y-137098889D01*
X123272761Y-137087496D01*
X123266045Y-137075256D01*
X121562810Y-135372020D01*
X121548869Y-135364408D01*
X121547034Y-135364539D01*
X121540420Y-135368790D01*
X119835818Y-137073393D01*
X119828703Y-137086423D01*
X116983500Y-137086423D01*
X116983500Y-134975383D01*
X118837388Y-134975383D01*
X118853245Y-135293914D01*
X118854076Y-135301443D01*
X118908085Y-135615759D01*
X118909818Y-135623146D01*
X119001196Y-135928695D01*
X119003799Y-135935808D01*
X119131227Y-136228173D01*
X119134669Y-136234929D01*
X119296296Y-136509865D01*
X119300519Y-136516150D01*
X119451463Y-136713934D01*
X119462989Y-136722396D01*
X119475054Y-136715735D01*
X121177980Y-135012810D01*
X121184357Y-135001131D01*
X121914408Y-135001131D01*
X121914539Y-135002966D01*
X121918790Y-135009580D01*
X123623285Y-136714074D01*
X123636408Y-136721240D01*
X123646709Y-136713851D01*
X123750751Y-136586055D01*
X123755164Y-136579914D01*
X123925349Y-136310187D01*
X123929005Y-136303536D01*
X124065544Y-136015335D01*
X124068375Y-136008295D01*
X124169306Y-135705767D01*
X124171270Y-135698433D01*
X124235122Y-135385989D01*
X124236194Y-135378465D01*
X124262173Y-135059051D01*
X124262378Y-135054576D01*
X124262927Y-135002221D01*
X124262817Y-134997789D01*
X124243529Y-134677853D01*
X124242621Y-134670351D01*
X124185319Y-134356593D01*
X124183518Y-134349260D01*
X124088935Y-134044655D01*
X124086263Y-134037583D01*
X123955781Y-133746570D01*
X123952264Y-133739843D01*
X123787771Y-133466621D01*
X123783481Y-133460377D01*
X123647991Y-133286647D01*
X123636199Y-133278178D01*
X123624486Y-133284725D01*
X121922020Y-134987190D01*
X121914408Y-135001131D01*
X121184357Y-135001131D01*
X121185592Y-134998869D01*
X121185461Y-134997034D01*
X121181210Y-134990420D01*
X119476445Y-133285656D01*
X119463510Y-133278592D01*
X119452949Y-133286252D01*
X119332766Y-133437072D01*
X119328410Y-133443270D01*
X119161059Y-133714764D01*
X119157479Y-133721440D01*
X119023956Y-134011074D01*
X119021206Y-134018125D01*
X118923444Y-134321708D01*
X118921561Y-134329041D01*
X118860979Y-134642170D01*
X118859992Y-134649670D01*
X118837467Y-134967802D01*
X118837388Y-134975383D01*
X116983500Y-134975383D01*
X116983500Y-132913423D01*
X119827917Y-132913423D01*
X119834520Y-132925309D01*
X121537190Y-134627980D01*
X121551131Y-134635592D01*
X121552966Y-134635461D01*
X121559580Y-134631210D01*
X123264559Y-132926230D01*
X123271571Y-132913389D01*
X123263777Y-132902701D01*
X123101298Y-132774613D01*
X123095075Y-132770288D01*
X122822702Y-132604357D01*
X122816025Y-132600822D01*
X122525686Y-132468813D01*
X122518616Y-132466099D01*
X122214537Y-132369932D01*
X122207186Y-132368085D01*
X121893746Y-132309142D01*
X121886237Y-132308194D01*
X121567989Y-132287335D01*
X121560424Y-132287295D01*
X121241964Y-132304821D01*
X121234450Y-132305690D01*
X120920405Y-132361348D01*
X120913044Y-132363115D01*
X120607980Y-132456092D01*
X120600860Y-132458740D01*
X120309182Y-132587690D01*
X120302445Y-132591167D01*
X120028355Y-132754233D01*
X120022091Y-132758490D01*
X119836385Y-132901762D01*
X119827917Y-132913423D01*
X116983500Y-132913423D01*
X116983500Y-100440790D01*
X116989667Y-100401854D01*
X116991502Y-100396206D01*
X116993542Y-100389928D01*
X116999849Y-100329926D01*
X117012814Y-100206565D01*
X117013504Y-100200000D01*
X116995473Y-100028444D01*
X116994232Y-100016635D01*
X116994232Y-100016633D01*
X116993542Y-100010072D01*
X116934527Y-99828444D01*
X116839040Y-99663056D01*
X116722740Y-99533891D01*
X116715675Y-99526045D01*
X116715674Y-99526044D01*
X116711253Y-99521134D01*
X116556752Y-99408882D01*
X116550724Y-99406198D01*
X116550722Y-99406197D01*
X116388319Y-99333891D01*
X116388318Y-99333891D01*
X116382288Y-99331206D01*
X116288887Y-99311353D01*
X116201944Y-99292872D01*
X116201939Y-99292872D01*
X116195487Y-99291500D01*
X116004513Y-99291500D01*
X115998061Y-99292872D01*
X115998056Y-99292872D01*
X115911113Y-99311353D01*
X115817712Y-99331206D01*
X115811682Y-99333891D01*
X115811681Y-99333891D01*
X115649278Y-99406197D01*
X115649276Y-99406198D01*
X115643248Y-99408882D01*
X115488747Y-99521134D01*
X115484326Y-99526044D01*
X115484325Y-99526045D01*
X115477261Y-99533891D01*
X115360960Y-99663056D01*
X115265473Y-99828444D01*
X115206458Y-100010072D01*
X115205768Y-100016633D01*
X115205768Y-100016635D01*
X115204527Y-100028444D01*
X115186496Y-100200000D01*
X115187186Y-100206565D01*
X115200152Y-100329926D01*
X115206458Y-100389928D01*
X115208498Y-100396206D01*
X115210333Y-100401854D01*
X115216500Y-100440790D01*
X115216500Y-137481852D01*
X115196498Y-137549973D01*
X115179595Y-137570947D01*
X114942528Y-137808014D01*
X114942524Y-137808019D01*
X114445948Y-138304595D01*
X114383636Y-138338621D01*
X114356853Y-138341500D01*
X113401866Y-138341500D01*
X113339684Y-138348255D01*
X113203295Y-138399385D01*
X113086739Y-138486739D01*
X112999385Y-138603295D01*
X112948255Y-138739684D01*
X112941500Y-138801866D01*
X112941500Y-140598134D01*
X105183500Y-140598134D01*
X105183500Y-116617120D01*
X105203502Y-116548999D01*
X105257158Y-116502506D01*
X105327432Y-116492402D01*
X105335696Y-116493873D01*
X105390031Y-116505422D01*
X105404513Y-116508500D01*
X105595487Y-116508500D01*
X105601939Y-116507128D01*
X105601944Y-116507128D01*
X105688888Y-116488647D01*
X105782288Y-116468794D01*
X105788319Y-116466109D01*
X105950722Y-116393803D01*
X105950724Y-116393802D01*
X105956752Y-116391118D01*
X106111253Y-116278866D01*
X106239040Y-116136944D01*
X106334527Y-115971556D01*
X106393542Y-115789928D01*
X106413504Y-115600000D01*
X106393542Y-115410072D01*
X106334527Y-115228444D01*
X106239040Y-115063056D01*
X106111253Y-114921134D01*
X105956752Y-114808882D01*
X105950724Y-114806198D01*
X105950722Y-114806197D01*
X105788319Y-114733891D01*
X105788318Y-114733891D01*
X105782288Y-114731206D01*
X105688887Y-114711353D01*
X105601944Y-114692872D01*
X105601939Y-114692872D01*
X105595487Y-114691500D01*
X105404513Y-114691500D01*
X105398053Y-114692873D01*
X105398054Y-114692873D01*
X105335696Y-114706127D01*
X105264906Y-114700725D01*
X105208273Y-114657908D01*
X105183780Y-114591270D01*
X105183500Y-114582880D01*
X105183500Y-106318148D01*
X105203502Y-106250027D01*
X105220405Y-106229053D01*
X112968542Y-98480915D01*
X112983577Y-98468074D01*
X112989084Y-98464073D01*
X112989090Y-98464068D01*
X112994434Y-98460185D01*
X113038895Y-98410806D01*
X113043436Y-98406021D01*
X113057472Y-98391985D01*
X113069966Y-98376557D01*
X113074246Y-98371547D01*
X113114284Y-98327079D01*
X113114288Y-98327074D01*
X113118704Y-98322169D01*
X113125410Y-98310554D01*
X113136610Y-98294258D01*
X113140894Y-98288967D01*
X113145047Y-98283839D01*
X113175213Y-98224637D01*
X113178346Y-98218867D01*
X113208260Y-98167055D01*
X113208262Y-98167050D01*
X113211564Y-98161331D01*
X113213605Y-98155051D01*
X113213608Y-98155043D01*
X113215708Y-98148579D01*
X113223272Y-98130317D01*
X113226363Y-98124251D01*
X113226366Y-98124242D01*
X113229362Y-98118363D01*
X113246556Y-98054196D01*
X113248422Y-98047894D01*
X113268954Y-97984702D01*
X113270355Y-97971372D01*
X113273958Y-97951929D01*
X113277430Y-97938971D01*
X113280907Y-97872628D01*
X113281424Y-97866059D01*
X113283156Y-97849577D01*
X113283500Y-97846306D01*
X113283500Y-97826445D01*
X113283673Y-97819850D01*
X113286805Y-97760098D01*
X113286805Y-97760094D01*
X113287150Y-97753507D01*
X113285051Y-97740253D01*
X113283500Y-97720544D01*
X113283500Y-92109500D01*
X113303502Y-92041379D01*
X113357158Y-91994886D01*
X113409500Y-91983500D01*
X128173653Y-91983500D01*
X128199850Y-91986253D01*
X128298056Y-92007128D01*
X128298061Y-92007128D01*
X128304513Y-92008500D01*
X128495487Y-92008500D01*
X128501939Y-92007128D01*
X128501944Y-92007128D01*
X128600150Y-91986253D01*
X128682288Y-91968794D01*
X128688319Y-91966109D01*
X128850722Y-91893803D01*
X128850724Y-91893802D01*
X128856752Y-91891118D01*
X129011253Y-91778866D01*
X129096524Y-91684163D01*
X129134621Y-91641852D01*
X129134622Y-91641851D01*
X129139040Y-91636944D01*
X129234527Y-91471556D01*
X129293542Y-91289928D01*
X129313504Y-91100000D01*
X129293542Y-90910072D01*
X129234527Y-90728444D01*
X129229966Y-90720543D01*
X129142341Y-90568774D01*
X129139040Y-90563056D01*
X129011253Y-90421134D01*
X128856752Y-90308882D01*
X128850724Y-90306198D01*
X128850722Y-90306197D01*
X128688319Y-90233891D01*
X128688318Y-90233891D01*
X128682288Y-90231206D01*
X128588888Y-90211353D01*
X128501944Y-90192872D01*
X128501939Y-90192872D01*
X128495487Y-90191500D01*
X128304513Y-90191500D01*
X128298061Y-90192872D01*
X128298056Y-90192872D01*
X128199850Y-90213747D01*
X128173653Y-90216500D01*
X113409500Y-90216500D01*
X113341379Y-90196498D01*
X113294886Y-90142842D01*
X113283500Y-90090500D01*
X113283500Y-78076611D01*
X113303502Y-78008490D01*
X113357158Y-77961997D01*
X113427432Y-77951893D01*
X113492012Y-77981387D01*
X113518615Y-78013604D01*
X113521650Y-78018860D01*
X113524787Y-78024637D01*
X113554953Y-78083839D01*
X113559109Y-78088971D01*
X113563391Y-78094259D01*
X113574589Y-78110552D01*
X113581296Y-78122169D01*
X113585713Y-78127075D01*
X113585717Y-78127080D01*
X113625747Y-78171538D01*
X113630031Y-78176554D01*
X113640441Y-78189409D01*
X113642528Y-78191986D01*
X113656573Y-78206031D01*
X113661114Y-78210816D01*
X113705566Y-78260185D01*
X113716426Y-78268075D01*
X113731454Y-78280912D01*
X121879595Y-86429053D01*
X121913621Y-86491365D01*
X121916500Y-86518148D01*
X121916500Y-88559210D01*
X121910333Y-88598146D01*
X121906458Y-88610072D01*
X121905768Y-88616633D01*
X121905768Y-88616635D01*
X121888952Y-88776635D01*
X121886496Y-88800000D01*
X121887186Y-88806565D01*
X121896608Y-88896206D01*
X121906458Y-88989928D01*
X121965473Y-89171556D01*
X122060960Y-89336944D01*
X122188747Y-89478866D01*
X122343248Y-89591118D01*
X122349276Y-89593802D01*
X122349278Y-89593803D01*
X122511681Y-89666109D01*
X122517712Y-89668794D01*
X122611112Y-89688647D01*
X122698056Y-89707128D01*
X122698061Y-89707128D01*
X122704513Y-89708500D01*
X122895487Y-89708500D01*
X122901939Y-89707128D01*
X122901944Y-89707128D01*
X122988888Y-89688647D01*
X123082288Y-89668794D01*
X123088319Y-89666109D01*
X123250722Y-89593803D01*
X123250724Y-89593802D01*
X123256752Y-89591118D01*
X123411253Y-89478866D01*
X123539040Y-89336944D01*
X123634527Y-89171556D01*
X123693542Y-88989928D01*
X123703393Y-88896206D01*
X123712814Y-88806565D01*
X123713504Y-88800000D01*
X123711048Y-88776635D01*
X123694232Y-88616635D01*
X123694232Y-88616633D01*
X123693542Y-88610072D01*
X123689667Y-88598146D01*
X123683500Y-88559210D01*
X123683500Y-86179450D01*
X123685051Y-86159739D01*
X123686117Y-86153009D01*
X123687149Y-86146493D01*
X123683673Y-86080162D01*
X123683500Y-86073568D01*
X123683500Y-86053694D01*
X123681423Y-86033929D01*
X123680906Y-86027354D01*
X123677776Y-85967624D01*
X123677775Y-85967620D01*
X123677430Y-85961029D01*
X123673958Y-85948071D01*
X123670355Y-85928628D01*
X123669644Y-85921866D01*
X123668954Y-85915298D01*
X123648422Y-85852106D01*
X123646556Y-85845804D01*
X123631071Y-85788015D01*
X123629362Y-85781637D01*
X123626366Y-85775758D01*
X123626363Y-85775749D01*
X123623272Y-85769683D01*
X123615708Y-85751421D01*
X123613608Y-85744957D01*
X123613605Y-85744949D01*
X123611564Y-85738669D01*
X123608262Y-85732950D01*
X123608260Y-85732945D01*
X123578346Y-85681133D01*
X123575213Y-85675363D01*
X123545047Y-85616161D01*
X123536609Y-85605741D01*
X123525411Y-85589448D01*
X123525209Y-85589097D01*
X123518704Y-85577831D01*
X123514287Y-85572925D01*
X123514283Y-85572920D01*
X123474253Y-85528462D01*
X123469969Y-85523446D01*
X123459559Y-85510591D01*
X123459556Y-85510588D01*
X123457472Y-85508014D01*
X123443427Y-85493969D01*
X123438886Y-85489184D01*
X123398856Y-85444726D01*
X123398855Y-85444725D01*
X123394434Y-85439815D01*
X123383574Y-85431925D01*
X123368546Y-85419088D01*
X115220405Y-77270947D01*
X115186379Y-77208635D01*
X115183500Y-77181852D01*
X115183500Y-61767870D01*
X115203502Y-61699749D01*
X115257158Y-61653256D01*
X115265270Y-61649888D01*
X115388297Y-61603767D01*
X115396705Y-61600615D01*
X115513261Y-61513261D01*
X115600615Y-61396705D01*
X115651745Y-61260316D01*
X115658500Y-61198134D01*
X115658500Y-59401866D01*
X115651745Y-59339684D01*
X115600615Y-59203295D01*
X115513261Y-59086739D01*
X115396705Y-58999385D01*
X115260316Y-58948255D01*
X115198134Y-58941500D01*
X113401866Y-58941500D01*
X113339684Y-58948255D01*
X113203295Y-58999385D01*
X113086739Y-59086739D01*
X112999385Y-59203295D01*
X112948255Y-59339684D01*
X112941500Y-59401866D01*
X112941500Y-61198134D01*
X112948255Y-61260316D01*
X112999385Y-61396705D01*
X113086739Y-61513261D01*
X113203295Y-61600615D01*
X113211703Y-61603767D01*
X113334730Y-61649888D01*
X113391494Y-61692530D01*
X113416194Y-61759091D01*
X113416500Y-61767870D01*
X113416500Y-77423389D01*
X113396498Y-77491510D01*
X113342842Y-77538003D01*
X113272568Y-77548107D01*
X113207988Y-77518613D01*
X113181385Y-77486396D01*
X113178350Y-77481140D01*
X113175213Y-77475363D01*
X113145047Y-77416161D01*
X113136609Y-77405741D01*
X113125411Y-77389448D01*
X113125209Y-77389097D01*
X113118704Y-77377831D01*
X113114287Y-77372925D01*
X113114283Y-77372920D01*
X113074253Y-77328462D01*
X113069969Y-77323446D01*
X113059559Y-77310591D01*
X113059556Y-77310588D01*
X113057472Y-77308014D01*
X113043427Y-77293969D01*
X113038886Y-77289184D01*
X112998856Y-77244726D01*
X112998855Y-77244725D01*
X112994434Y-77239815D01*
X112983574Y-77231925D01*
X112968546Y-77219088D01*
X108780912Y-73031454D01*
X108768075Y-73016426D01*
X108760185Y-73005566D01*
X108710816Y-72961114D01*
X108706031Y-72956573D01*
X108691986Y-72942528D01*
X108689409Y-72940441D01*
X108676554Y-72930031D01*
X108671538Y-72925747D01*
X108627080Y-72885717D01*
X108627075Y-72885713D01*
X108622169Y-72881296D01*
X108610552Y-72874589D01*
X108594259Y-72863391D01*
X108588971Y-72859109D01*
X108583839Y-72854953D01*
X108524637Y-72824787D01*
X108518867Y-72821654D01*
X108467055Y-72791740D01*
X108467050Y-72791738D01*
X108461331Y-72788436D01*
X108455051Y-72786395D01*
X108455043Y-72786392D01*
X108448579Y-72784292D01*
X108430317Y-72776728D01*
X108424251Y-72773637D01*
X108424242Y-72773634D01*
X108418363Y-72770638D01*
X108407672Y-72767773D01*
X108354196Y-72753444D01*
X108347894Y-72751578D01*
X108284702Y-72731046D01*
X108271372Y-72729645D01*
X108251929Y-72726042D01*
X108238971Y-72722570D01*
X108232381Y-72722225D01*
X108232377Y-72722224D01*
X108188427Y-72719921D01*
X108172628Y-72719093D01*
X108166069Y-72718577D01*
X108146306Y-72716500D01*
X108126445Y-72716500D01*
X108119850Y-72716327D01*
X108060098Y-72713195D01*
X108060094Y-72713195D01*
X108053507Y-72712850D01*
X108040253Y-72714949D01*
X108020544Y-72716500D01*
X102626347Y-72716500D01*
X102600150Y-72713747D01*
X102501944Y-72692872D01*
X102501939Y-72692872D01*
X102495487Y-72691500D01*
X102304513Y-72691500D01*
X102298061Y-72692872D01*
X102298056Y-72692872D01*
X102211113Y-72711353D01*
X102117712Y-72731206D01*
X102111682Y-72733891D01*
X102111681Y-72733891D01*
X101949278Y-72806197D01*
X101949276Y-72806198D01*
X101943248Y-72808882D01*
X101788747Y-72921134D01*
X101784326Y-72926044D01*
X101784325Y-72926045D01*
X101689415Y-73031454D01*
X101660960Y-73063056D01*
X101565473Y-73228444D01*
X101506458Y-73410072D01*
X101486496Y-73600000D01*
X101506458Y-73789928D01*
X101508498Y-73796206D01*
X101510333Y-73801854D01*
X101516500Y-73840790D01*
X101516500Y-74881852D01*
X101496498Y-74949973D01*
X101479595Y-74970948D01*
X101070946Y-75379596D01*
X101008634Y-75413621D01*
X100981851Y-75416500D01*
X93479457Y-75416500D01*
X93459745Y-75414949D01*
X93453008Y-75413882D01*
X93453009Y-75413882D01*
X93446493Y-75412850D01*
X93439906Y-75413195D01*
X93439902Y-75413195D01*
X93380150Y-75416327D01*
X93373555Y-75416500D01*
X93353694Y-75416500D01*
X93333931Y-75418577D01*
X93327372Y-75419093D01*
X93311573Y-75419921D01*
X93267623Y-75422224D01*
X93267619Y-75422225D01*
X93261029Y-75422570D01*
X93248071Y-75426042D01*
X93228628Y-75429645D01*
X93215298Y-75431046D01*
X93152106Y-75451578D01*
X93145804Y-75453444D01*
X93115725Y-75461504D01*
X93081637Y-75470638D01*
X93075758Y-75473634D01*
X93075749Y-75473637D01*
X93069683Y-75476728D01*
X93051421Y-75484292D01*
X93044958Y-75486392D01*
X93044953Y-75486394D01*
X93038669Y-75488436D01*
X92981119Y-75521663D01*
X92975366Y-75524786D01*
X92916161Y-75554952D01*
X92911027Y-75559109D01*
X92911026Y-75559110D01*
X92905737Y-75563393D01*
X92889449Y-75574588D01*
X92877831Y-75581296D01*
X92872925Y-75585713D01*
X92872920Y-75585717D01*
X92828462Y-75625747D01*
X92823447Y-75630031D01*
X92823098Y-75630314D01*
X92808015Y-75642528D01*
X92793979Y-75656564D01*
X92789194Y-75661105D01*
X92739815Y-75705566D01*
X92735935Y-75710906D01*
X92735928Y-75710914D01*
X92731927Y-75716422D01*
X92719086Y-75731457D01*
X80284455Y-88166087D01*
X80269422Y-88178927D01*
X80128747Y-88281134D01*
X80000960Y-88423056D01*
X79968565Y-88479166D01*
X79910830Y-88579166D01*
X79905473Y-88588444D01*
X79846458Y-88770072D01*
X79845768Y-88776633D01*
X79845768Y-88776635D01*
X79833861Y-88889928D01*
X79826496Y-88960000D01*
X75183500Y-88960000D01*
X75183500Y-87774596D01*
X75203502Y-87706475D01*
X75220405Y-87685501D01*
X86268542Y-76637364D01*
X86283577Y-76624523D01*
X86289084Y-76620522D01*
X86289090Y-76620517D01*
X86294434Y-76616634D01*
X86338895Y-76567255D01*
X86343436Y-76562470D01*
X86357472Y-76548434D01*
X86369966Y-76533006D01*
X86374246Y-76527996D01*
X86414284Y-76483528D01*
X86414288Y-76483523D01*
X86418704Y-76478618D01*
X86425410Y-76467003D01*
X86436610Y-76450707D01*
X86440894Y-76445416D01*
X86445047Y-76440288D01*
X86475213Y-76381086D01*
X86478346Y-76375316D01*
X86508260Y-76323504D01*
X86508262Y-76323499D01*
X86511564Y-76317780D01*
X86513605Y-76311500D01*
X86513608Y-76311492D01*
X86515708Y-76305028D01*
X86523272Y-76286766D01*
X86526363Y-76280700D01*
X86526366Y-76280691D01*
X86529362Y-76274812D01*
X86532227Y-76264121D01*
X86546556Y-76210645D01*
X86548422Y-76204343D01*
X86568954Y-76141151D01*
X86570355Y-76127821D01*
X86573958Y-76108378D01*
X86577430Y-76095420D01*
X86580907Y-76029077D01*
X86581424Y-76022508D01*
X86583156Y-76006026D01*
X86583500Y-76002755D01*
X86583500Y-75982894D01*
X86583673Y-75976299D01*
X86586805Y-75916547D01*
X86586805Y-75916543D01*
X86587150Y-75909956D01*
X86585051Y-75896702D01*
X86583500Y-75876993D01*
X86583500Y-69048134D01*
X95999000Y-69048134D01*
X96005755Y-69110316D01*
X96056885Y-69246705D01*
X96144239Y-69363261D01*
X96260795Y-69450615D01*
X96397184Y-69501745D01*
X96459366Y-69508500D01*
X98460634Y-69508500D01*
X98522816Y-69501745D01*
X98659205Y-69450615D01*
X98775761Y-69363261D01*
X98863115Y-69246705D01*
X98870758Y-69226317D01*
X98913401Y-69169553D01*
X98979962Y-69144854D01*
X99049311Y-69160062D01*
X99066832Y-69171666D01*
X99184944Y-69264945D01*
X99193531Y-69270650D01*
X99394722Y-69381714D01*
X99404134Y-69385944D01*
X99620768Y-69462659D01*
X99630739Y-69465293D01*
X99728163Y-69482647D01*
X99741460Y-69481187D01*
X99745543Y-69468096D01*
X100254000Y-69468096D01*
X100257918Y-69481440D01*
X100272194Y-69483427D01*
X100334515Y-69473890D01*
X100344543Y-69471501D01*
X100562988Y-69400102D01*
X100572497Y-69396105D01*
X100776344Y-69289989D01*
X100785069Y-69284495D01*
X100968852Y-69146507D01*
X100976559Y-69139664D01*
X101135339Y-68973509D01*
X101141823Y-68965502D01*
X101164237Y-68932644D01*
X101219148Y-68887641D01*
X101289672Y-68879468D01*
X101353420Y-68910722D01*
X101374116Y-68935204D01*
X101378498Y-68941977D01*
X101540186Y-69119670D01*
X101591331Y-69160062D01*
X101724670Y-69265367D01*
X101724675Y-69265370D01*
X101728724Y-69268568D01*
X101733240Y-69271061D01*
X101733243Y-69271063D01*
X101934526Y-69382177D01*
X101934530Y-69382179D01*
X101939050Y-69384674D01*
X101943919Y-69386398D01*
X101943923Y-69386400D01*
X102160640Y-69463144D01*
X102160644Y-69463145D01*
X102165515Y-69464870D01*
X102170608Y-69465777D01*
X102170611Y-69465778D01*
X102396948Y-69506095D01*
X102396954Y-69506096D01*
X102402037Y-69507001D01*
X102489400Y-69508068D01*
X102637093Y-69509873D01*
X102637095Y-69509873D01*
X102642263Y-69509936D01*
X102879744Y-69473596D01*
X102991997Y-69436906D01*
X103103183Y-69400566D01*
X103103189Y-69400563D01*
X103108101Y-69398958D01*
X103112687Y-69396571D01*
X103112691Y-69396569D01*
X103316607Y-69290416D01*
X103321200Y-69288025D01*
X103403387Y-69226317D01*
X103509185Y-69146882D01*
X103509188Y-69146880D01*
X103513320Y-69143777D01*
X103679301Y-68970088D01*
X103814686Y-68771622D01*
X103829243Y-68740263D01*
X103913658Y-68558405D01*
X103913659Y-68558401D01*
X103915837Y-68553710D01*
X103980040Y-68322202D01*
X104001000Y-68126072D01*
X104001000Y-67891598D01*
X103999548Y-67873928D01*
X103986746Y-67718224D01*
X103986322Y-67713063D01*
X103927794Y-67480056D01*
X103831997Y-67259737D01*
X103736649Y-67112352D01*
X103704310Y-67062363D01*
X103704308Y-67062360D01*
X103701502Y-67058023D01*
X103539814Y-66880330D01*
X103423770Y-66788684D01*
X103355330Y-66734633D01*
X103355325Y-66734630D01*
X103351276Y-66731432D01*
X103346760Y-66728939D01*
X103346757Y-66728937D01*
X103145474Y-66617823D01*
X103145470Y-66617821D01*
X103140950Y-66615326D01*
X103136081Y-66613602D01*
X103136077Y-66613600D01*
X102919360Y-66536856D01*
X102919356Y-66536855D01*
X102914485Y-66535130D01*
X102909392Y-66534223D01*
X102909389Y-66534222D01*
X102683052Y-66493905D01*
X102683046Y-66493904D01*
X102677963Y-66492999D01*
X102585474Y-66491869D01*
X102442907Y-66490127D01*
X102442905Y-66490127D01*
X102437737Y-66490064D01*
X102200256Y-66526404D01*
X102088003Y-66563094D01*
X101976817Y-66599434D01*
X101976811Y-66599437D01*
X101971899Y-66601042D01*
X101967313Y-66603429D01*
X101967309Y-66603431D01*
X101763393Y-66709584D01*
X101758800Y-66711975D01*
X101754657Y-66715085D01*
X101754658Y-66715085D01*
X101589867Y-66838814D01*
X101566680Y-66856223D01*
X101400699Y-67029912D01*
X101375160Y-67067351D01*
X101320249Y-67112352D01*
X101249725Y-67120523D01*
X101185978Y-67089269D01*
X101165284Y-67064790D01*
X101163915Y-67062674D01*
X101157622Y-67054502D01*
X101002950Y-66884520D01*
X100995417Y-66877494D01*
X100815056Y-66735055D01*
X100806469Y-66729350D01*
X100605278Y-66618286D01*
X100595866Y-66614056D01*
X100379232Y-66537341D01*
X100369261Y-66534707D01*
X100271837Y-66517353D01*
X100258540Y-66518813D01*
X100254000Y-66533370D01*
X100254000Y-69468096D01*
X99745543Y-69468096D01*
X99746000Y-69466630D01*
X99746000Y-66531904D01*
X99742082Y-66518560D01*
X99727806Y-66516573D01*
X99665485Y-66526110D01*
X99655457Y-66528499D01*
X99437012Y-66599898D01*
X99427503Y-66603895D01*
X99223656Y-66710011D01*
X99214939Y-66715500D01*
X99063901Y-66828902D01*
X98997416Y-66853807D01*
X98928020Y-66838814D01*
X98877747Y-66788684D01*
X98870268Y-66772375D01*
X98863115Y-66753295D01*
X98775761Y-66636739D01*
X98659205Y-66549385D01*
X98522816Y-66498255D01*
X98460634Y-66491500D01*
X96459366Y-66491500D01*
X96397184Y-66498255D01*
X96260795Y-66549385D01*
X96144239Y-66636739D01*
X96056885Y-66753295D01*
X96005755Y-66889684D01*
X95999000Y-66951866D01*
X95999000Y-69048134D01*
X86583500Y-69048134D01*
X86583500Y-61767870D01*
X86603502Y-61699749D01*
X86657158Y-61653256D01*
X86665270Y-61649888D01*
X86788297Y-61603767D01*
X86796705Y-61600615D01*
X86913261Y-61513261D01*
X87000615Y-61396705D01*
X87051745Y-61260316D01*
X87058500Y-61198134D01*
X87058500Y-59401866D01*
X87051745Y-59339684D01*
X87000615Y-59203295D01*
X86913261Y-59086739D01*
X86796705Y-58999385D01*
X86660316Y-58948255D01*
X86598134Y-58941500D01*
X84801866Y-58941500D01*
X84739684Y-58948255D01*
X84603295Y-58999385D01*
X84486739Y-59086739D01*
X84399385Y-59203295D01*
X84348255Y-59339684D01*
X84341500Y-59401866D01*
X84341500Y-61198134D01*
X84348255Y-61260316D01*
X84399385Y-61396705D01*
X84486739Y-61513261D01*
X84603295Y-61600615D01*
X84611703Y-61603767D01*
X84734730Y-61649888D01*
X84791494Y-61692530D01*
X84816194Y-61759091D01*
X84816500Y-61767870D01*
X84816500Y-75538302D01*
X84796498Y-75606423D01*
X84779595Y-75627397D01*
X82488628Y-77918363D01*
X75686238Y-84720752D01*
X73731454Y-86675536D01*
X73716426Y-86688373D01*
X73705566Y-86696263D01*
X73701145Y-86701173D01*
X73701144Y-86701174D01*
X73661114Y-86745632D01*
X73656573Y-86750417D01*
X73642528Y-86764462D01*
X73640444Y-86767036D01*
X73640441Y-86767039D01*
X73630031Y-86779894D01*
X73625747Y-86784910D01*
X73585717Y-86829368D01*
X73585713Y-86829373D01*
X73581296Y-86834279D01*
X73574791Y-86845545D01*
X73574589Y-86845896D01*
X73563391Y-86862189D01*
X73554953Y-86872609D01*
X73524787Y-86931811D01*
X73521654Y-86937581D01*
X73491740Y-86989393D01*
X73491738Y-86989398D01*
X73488436Y-86995117D01*
X73486395Y-87001397D01*
X73486392Y-87001405D01*
X73484292Y-87007869D01*
X73476728Y-87026131D01*
X73473637Y-87032197D01*
X73473634Y-87032206D01*
X73470638Y-87038085D01*
X73468929Y-87044463D01*
X73453444Y-87102252D01*
X73451578Y-87108554D01*
X73431046Y-87171746D01*
X73430356Y-87178314D01*
X73429645Y-87185076D01*
X73426042Y-87204519D01*
X73422570Y-87217477D01*
X73422225Y-87224067D01*
X73422224Y-87224071D01*
X73419093Y-87283815D01*
X73418577Y-87290379D01*
X73416500Y-87310142D01*
X73416500Y-87330003D01*
X73416327Y-87336598D01*
X73412850Y-87402941D01*
X73413882Y-87409455D01*
X73414949Y-87416192D01*
X73416500Y-87435904D01*
X73416500Y-92559210D01*
X73410333Y-92598146D01*
X73406458Y-92610072D01*
X73386496Y-92800000D01*
X71709000Y-92800000D01*
X71709000Y-91849743D01*
X71729002Y-91781622D01*
X71741358Y-91765440D01*
X71814540Y-91684163D01*
X71910027Y-91518775D01*
X71969042Y-91337147D01*
X71989004Y-91147219D01*
X71969042Y-90957291D01*
X71910027Y-90775663D01*
X71814540Y-90610275D01*
X71777173Y-90568774D01*
X71691175Y-90473264D01*
X71691174Y-90473263D01*
X71686753Y-90468353D01*
X71532252Y-90356101D01*
X71526224Y-90353417D01*
X71526222Y-90353416D01*
X71363819Y-90281110D01*
X71363818Y-90281110D01*
X71357788Y-90278425D01*
X71264388Y-90258572D01*
X71177444Y-90240091D01*
X71177439Y-90240091D01*
X71170987Y-90238719D01*
X70980013Y-90238719D01*
X70973561Y-90240091D01*
X70973556Y-90240091D01*
X70886612Y-90258572D01*
X70793212Y-90278425D01*
X70787182Y-90281110D01*
X70787181Y-90281110D01*
X70624778Y-90353416D01*
X70624776Y-90353417D01*
X70618748Y-90356101D01*
X70464247Y-90468353D01*
X70459826Y-90473263D01*
X70459825Y-90473264D01*
X70373828Y-90568774D01*
X70336460Y-90610275D01*
X70240973Y-90775663D01*
X70181958Y-90957291D01*
X70161996Y-91147219D01*
X58008500Y-91147219D01*
X58008500Y-85200000D01*
X71886496Y-85200000D01*
X71906458Y-85389928D01*
X71965473Y-85571556D01*
X71968776Y-85577278D01*
X71968777Y-85577279D01*
X71975803Y-85589448D01*
X72060960Y-85736944D01*
X72188747Y-85878866D01*
X72343248Y-85991118D01*
X72349276Y-85993802D01*
X72349278Y-85993803D01*
X72491186Y-86056984D01*
X72517712Y-86068794D01*
X72611112Y-86088647D01*
X72698056Y-86107128D01*
X72698061Y-86107128D01*
X72704513Y-86108500D01*
X72895487Y-86108500D01*
X72901939Y-86107128D01*
X72901944Y-86107128D01*
X72988888Y-86088647D01*
X73082288Y-86068794D01*
X73108814Y-86056984D01*
X73250722Y-85993803D01*
X73250724Y-85993802D01*
X73256752Y-85991118D01*
X73411253Y-85878866D01*
X73539040Y-85736944D01*
X73624197Y-85589448D01*
X73631223Y-85577279D01*
X73631224Y-85577278D01*
X73634527Y-85571556D01*
X73693542Y-85389928D01*
X73713504Y-85200000D01*
X73693542Y-85010072D01*
X73689667Y-84998146D01*
X73683500Y-84959210D01*
X73683500Y-67086423D01*
X76728703Y-67086423D01*
X76736227Y-67096854D01*
X76875483Y-67209020D01*
X76881657Y-67213408D01*
X77152271Y-67382178D01*
X77158931Y-67385794D01*
X77447852Y-67520827D01*
X77454905Y-67523620D01*
X77757970Y-67622970D01*
X77765282Y-67624888D01*
X78078092Y-67687109D01*
X78085590Y-67688137D01*
X78403610Y-67712328D01*
X78411173Y-67712446D01*
X78729785Y-67698257D01*
X78737326Y-67697465D01*
X79051924Y-67645101D01*
X79059302Y-67643411D01*
X79365355Y-67553625D01*
X79372450Y-67551071D01*
X79665496Y-67425169D01*
X79672263Y-67421765D01*
X79948042Y-67261580D01*
X79954349Y-67257390D01*
X80164305Y-67098889D01*
X80172761Y-67087496D01*
X80166045Y-67075256D01*
X78462810Y-65372020D01*
X78448869Y-65364408D01*
X78447034Y-65364539D01*
X78440420Y-65368790D01*
X76735818Y-67073393D01*
X76728703Y-67086423D01*
X73683500Y-67086423D01*
X73683500Y-64975383D01*
X75737388Y-64975383D01*
X75753245Y-65293914D01*
X75754076Y-65301443D01*
X75808085Y-65615759D01*
X75809818Y-65623146D01*
X75901196Y-65928695D01*
X75903799Y-65935808D01*
X76031227Y-66228173D01*
X76034669Y-66234929D01*
X76196296Y-66509865D01*
X76200519Y-66516150D01*
X76351463Y-66713934D01*
X76362989Y-66722396D01*
X76375054Y-66715735D01*
X78077980Y-65012810D01*
X78084357Y-65001131D01*
X78814408Y-65001131D01*
X78814539Y-65002966D01*
X78818790Y-65009580D01*
X80523285Y-66714074D01*
X80536408Y-66721240D01*
X80546709Y-66713851D01*
X80650751Y-66586055D01*
X80655164Y-66579914D01*
X80825349Y-66310187D01*
X80829005Y-66303536D01*
X80965544Y-66015335D01*
X80968375Y-66008295D01*
X81069306Y-65705767D01*
X81071270Y-65698433D01*
X81135122Y-65385989D01*
X81136194Y-65378465D01*
X81162173Y-65059051D01*
X81162378Y-65054576D01*
X81162927Y-65002221D01*
X81162817Y-64997789D01*
X81143529Y-64677853D01*
X81142621Y-64670351D01*
X81085319Y-64356593D01*
X81083518Y-64349260D01*
X80988935Y-64044655D01*
X80986263Y-64037583D01*
X80855781Y-63746570D01*
X80852264Y-63739843D01*
X80687771Y-63466621D01*
X80683481Y-63460377D01*
X80547991Y-63286647D01*
X80536199Y-63278178D01*
X80524486Y-63284725D01*
X78822020Y-64987190D01*
X78814408Y-65001131D01*
X78084357Y-65001131D01*
X78085592Y-64998869D01*
X78085461Y-64997034D01*
X78081210Y-64990420D01*
X76376445Y-63285656D01*
X76363510Y-63278592D01*
X76352949Y-63286252D01*
X76232766Y-63437072D01*
X76228410Y-63443270D01*
X76061059Y-63714764D01*
X76057479Y-63721440D01*
X75923956Y-64011074D01*
X75921206Y-64018125D01*
X75823444Y-64321708D01*
X75821561Y-64329041D01*
X75760979Y-64642170D01*
X75759992Y-64649670D01*
X75737467Y-64967802D01*
X75737388Y-64975383D01*
X73683500Y-64975383D01*
X73683500Y-62913423D01*
X76727917Y-62913423D01*
X76734520Y-62925309D01*
X78437190Y-64627980D01*
X78451131Y-64635592D01*
X78452966Y-64635461D01*
X78459580Y-64631210D01*
X80164559Y-62926230D01*
X80171571Y-62913389D01*
X80163777Y-62902701D01*
X80001298Y-62774613D01*
X79995075Y-62770288D01*
X79722702Y-62604357D01*
X79716025Y-62600822D01*
X79425686Y-62468813D01*
X79418616Y-62466099D01*
X79114537Y-62369932D01*
X79107186Y-62368085D01*
X78793746Y-62309142D01*
X78786237Y-62308194D01*
X78467989Y-62287335D01*
X78460424Y-62287295D01*
X78141964Y-62304821D01*
X78134450Y-62305690D01*
X77820405Y-62361348D01*
X77813044Y-62363115D01*
X77507980Y-62456092D01*
X77500860Y-62458740D01*
X77209182Y-62587690D01*
X77202445Y-62591167D01*
X76928355Y-62754233D01*
X76922091Y-62758490D01*
X76736385Y-62901762D01*
X76727917Y-62913423D01*
X73683500Y-62913423D01*
X73683500Y-58018148D01*
X73703502Y-57950027D01*
X73720405Y-57929053D01*
X79029053Y-52620405D01*
X79091365Y-52586379D01*
X79118148Y-52583500D01*
X84232130Y-52583500D01*
X84300251Y-52603502D01*
X84346744Y-52657158D01*
X84350112Y-52665270D01*
X84399385Y-52796705D01*
X84486739Y-52913261D01*
X84603295Y-53000615D01*
X84739684Y-53051745D01*
X84801866Y-53058500D01*
X86598134Y-53058500D01*
X86660316Y-53051745D01*
X86796705Y-53000615D01*
X86913261Y-52913261D01*
X87000615Y-52796705D01*
X87051745Y-52660316D01*
X87058500Y-52598134D01*
X112941500Y-52598134D01*
X112948255Y-52660316D01*
X112999385Y-52796705D01*
X113086739Y-52913261D01*
X113203295Y-53000615D01*
X113339684Y-53051745D01*
X113401866Y-53058500D01*
X114356852Y-53058500D01*
X114424973Y-53078502D01*
X114445947Y-53095405D01*
X116329595Y-54979053D01*
X116363621Y-55041365D01*
X116366500Y-55068148D01*
X116366500Y-76470543D01*
X116364949Y-76490255D01*
X116362850Y-76503507D01*
X116363195Y-76510094D01*
X116363195Y-76510098D01*
X116366327Y-76569850D01*
X116366500Y-76576445D01*
X116366500Y-76596306D01*
X116366844Y-76599577D01*
X116368576Y-76616059D01*
X116369093Y-76622628D01*
X116372570Y-76688971D01*
X116376042Y-76701929D01*
X116379645Y-76721372D01*
X116381046Y-76734702D01*
X116401578Y-76797894D01*
X116403444Y-76804196D01*
X116420638Y-76868363D01*
X116423634Y-76874242D01*
X116423637Y-76874251D01*
X116426728Y-76880317D01*
X116434292Y-76898579D01*
X116436392Y-76905043D01*
X116436395Y-76905051D01*
X116438436Y-76911331D01*
X116441738Y-76917050D01*
X116441740Y-76917055D01*
X116471654Y-76968867D01*
X116474787Y-76974637D01*
X116504953Y-77033839D01*
X116509109Y-77038971D01*
X116513391Y-77044259D01*
X116524589Y-77060552D01*
X116531296Y-77072169D01*
X116535713Y-77077075D01*
X116535717Y-77077080D01*
X116575747Y-77121538D01*
X116580031Y-77126554D01*
X116590441Y-77139409D01*
X116592528Y-77141986D01*
X116606573Y-77156031D01*
X116611114Y-77160816D01*
X116631695Y-77183673D01*
X116655566Y-77210185D01*
X116666426Y-77218075D01*
X116681454Y-77230912D01*
X120636351Y-81185808D01*
X124579595Y-85129052D01*
X124613621Y-85191364D01*
X124616500Y-85218147D01*
X124616500Y-88459210D01*
X124610333Y-88498146D01*
X124606458Y-88510072D01*
X124605768Y-88516633D01*
X124605768Y-88516635D01*
X124595948Y-88610072D01*
X124586496Y-88700000D01*
X124587186Y-88706565D01*
X124594551Y-88776635D01*
X124606458Y-88889928D01*
X124665473Y-89071556D01*
X124760960Y-89236944D01*
X124888747Y-89378866D01*
X124948738Y-89422452D01*
X125026385Y-89478866D01*
X125043248Y-89491118D01*
X125049276Y-89493802D01*
X125049278Y-89493803D01*
X125211681Y-89566109D01*
X125217712Y-89568794D01*
X125304479Y-89587237D01*
X125398056Y-89607128D01*
X125398061Y-89607128D01*
X125404513Y-89608500D01*
X125595487Y-89608500D01*
X125601939Y-89607128D01*
X125601944Y-89607128D01*
X125695521Y-89587237D01*
X125782288Y-89568794D01*
X125788319Y-89566109D01*
X125950722Y-89493803D01*
X125950724Y-89493802D01*
X125956752Y-89491118D01*
X125973616Y-89478866D01*
X126051262Y-89422452D01*
X126111253Y-89378866D01*
X126239040Y-89236944D01*
X126334527Y-89071556D01*
X126393542Y-88889928D01*
X126405450Y-88776635D01*
X126412814Y-88706565D01*
X126413504Y-88700000D01*
X126404052Y-88610072D01*
X126394232Y-88516635D01*
X126394232Y-88516633D01*
X126393542Y-88510072D01*
X126389667Y-88498146D01*
X126383500Y-88459210D01*
X126383500Y-84879457D01*
X126385051Y-84859745D01*
X126386118Y-84853008D01*
X126387150Y-84846493D01*
X126383673Y-84780150D01*
X126383500Y-84773555D01*
X126383500Y-84753694D01*
X126381423Y-84733931D01*
X126380907Y-84727367D01*
X126377776Y-84667623D01*
X126377775Y-84667619D01*
X126377430Y-84661029D01*
X126373958Y-84648071D01*
X126370355Y-84628628D01*
X126369644Y-84621866D01*
X126368954Y-84615298D01*
X126348422Y-84552106D01*
X126346556Y-84545804D01*
X126331071Y-84488015D01*
X126329362Y-84481637D01*
X126326366Y-84475758D01*
X126326363Y-84475749D01*
X126323272Y-84469683D01*
X126315708Y-84451421D01*
X126313608Y-84444957D01*
X126313605Y-84444949D01*
X126311564Y-84438669D01*
X126308262Y-84432950D01*
X126308260Y-84432945D01*
X126278346Y-84381133D01*
X126275213Y-84375363D01*
X126245047Y-84316161D01*
X126236610Y-84305742D01*
X126225410Y-84289446D01*
X126222004Y-84283546D01*
X126222002Y-84283543D01*
X126218704Y-84277831D01*
X126214288Y-84272926D01*
X126214284Y-84272921D01*
X126174246Y-84228453D01*
X126169966Y-84223443D01*
X126159546Y-84210576D01*
X126159545Y-84210575D01*
X126157472Y-84208015D01*
X126143436Y-84193979D01*
X126138895Y-84189194D01*
X126098856Y-84144726D01*
X126098855Y-84144725D01*
X126094434Y-84139815D01*
X126089094Y-84135935D01*
X126089086Y-84135928D01*
X126083578Y-84131927D01*
X126068543Y-84119086D01*
X118170405Y-76220947D01*
X118136379Y-76158635D01*
X118133500Y-76131852D01*
X118133500Y-67086423D01*
X119828703Y-67086423D01*
X119836227Y-67096854D01*
X119975483Y-67209020D01*
X119981657Y-67213408D01*
X120252271Y-67382178D01*
X120258931Y-67385794D01*
X120547852Y-67520827D01*
X120554905Y-67523620D01*
X120857970Y-67622970D01*
X120865282Y-67624888D01*
X121178092Y-67687109D01*
X121185590Y-67688137D01*
X121503610Y-67712328D01*
X121511173Y-67712446D01*
X121829785Y-67698257D01*
X121837326Y-67697465D01*
X122151924Y-67645101D01*
X122159302Y-67643411D01*
X122465355Y-67553625D01*
X122472450Y-67551071D01*
X122765496Y-67425169D01*
X122772263Y-67421765D01*
X123048042Y-67261580D01*
X123054349Y-67257390D01*
X123264305Y-67098889D01*
X123272761Y-67087496D01*
X123266045Y-67075256D01*
X121562810Y-65372020D01*
X121548869Y-65364408D01*
X121547034Y-65364539D01*
X121540420Y-65368790D01*
X119835818Y-67073393D01*
X119828703Y-67086423D01*
X118133500Y-67086423D01*
X118133500Y-64975383D01*
X118837388Y-64975383D01*
X118853245Y-65293914D01*
X118854076Y-65301443D01*
X118908085Y-65615759D01*
X118909818Y-65623146D01*
X119001196Y-65928695D01*
X119003799Y-65935808D01*
X119131227Y-66228173D01*
X119134669Y-66234929D01*
X119296296Y-66509865D01*
X119300519Y-66516150D01*
X119451463Y-66713934D01*
X119462989Y-66722396D01*
X119475054Y-66715735D01*
X121177980Y-65012810D01*
X121184357Y-65001131D01*
X121914408Y-65001131D01*
X121914539Y-65002966D01*
X121918790Y-65009580D01*
X123623285Y-66714074D01*
X123636408Y-66721240D01*
X123646709Y-66713851D01*
X123750751Y-66586055D01*
X123755164Y-66579914D01*
X123925349Y-66310187D01*
X123929005Y-66303536D01*
X124065544Y-66015335D01*
X124068375Y-66008295D01*
X124169306Y-65705767D01*
X124171270Y-65698433D01*
X124235122Y-65385989D01*
X124236194Y-65378465D01*
X124262173Y-65059051D01*
X124262378Y-65054576D01*
X124262927Y-65002221D01*
X124262817Y-64997789D01*
X124243529Y-64677853D01*
X124242621Y-64670351D01*
X124185319Y-64356593D01*
X124183518Y-64349260D01*
X124088935Y-64044655D01*
X124086263Y-64037583D01*
X123955781Y-63746570D01*
X123952264Y-63739843D01*
X123787771Y-63466621D01*
X123783481Y-63460377D01*
X123647991Y-63286647D01*
X123636199Y-63278178D01*
X123624486Y-63284725D01*
X121922020Y-64987190D01*
X121914408Y-65001131D01*
X121184357Y-65001131D01*
X121185592Y-64998869D01*
X121185461Y-64997034D01*
X121181210Y-64990420D01*
X119476445Y-63285656D01*
X119463510Y-63278592D01*
X119452949Y-63286252D01*
X119332766Y-63437072D01*
X119328410Y-63443270D01*
X119161059Y-63714764D01*
X119157479Y-63721440D01*
X119023956Y-64011074D01*
X119021206Y-64018125D01*
X118923444Y-64321708D01*
X118921561Y-64329041D01*
X118860979Y-64642170D01*
X118859992Y-64649670D01*
X118837467Y-64967802D01*
X118837388Y-64975383D01*
X118133500Y-64975383D01*
X118133500Y-62913423D01*
X119827917Y-62913423D01*
X119834520Y-62925309D01*
X121537190Y-64627980D01*
X121551131Y-64635592D01*
X121552966Y-64635461D01*
X121559580Y-64631210D01*
X123264559Y-62926230D01*
X123271571Y-62913389D01*
X123263777Y-62902701D01*
X123101298Y-62774613D01*
X123095075Y-62770288D01*
X122822702Y-62604357D01*
X122816025Y-62600822D01*
X122525686Y-62468813D01*
X122518616Y-62466099D01*
X122214537Y-62369932D01*
X122207186Y-62368085D01*
X121893746Y-62309142D01*
X121886237Y-62308194D01*
X121567989Y-62287335D01*
X121560424Y-62287295D01*
X121241964Y-62304821D01*
X121234450Y-62305690D01*
X120920405Y-62361348D01*
X120913044Y-62363115D01*
X120607980Y-62456092D01*
X120600860Y-62458740D01*
X120309182Y-62587690D01*
X120302445Y-62591167D01*
X120028355Y-62754233D01*
X120022091Y-62758490D01*
X119836385Y-62901762D01*
X119827917Y-62913423D01*
X118133500Y-62913423D01*
X118133500Y-54729457D01*
X118135051Y-54709745D01*
X118136118Y-54703008D01*
X118137150Y-54696493D01*
X118133673Y-54630150D01*
X118133500Y-54623555D01*
X118133500Y-54603694D01*
X118131423Y-54583931D01*
X118130907Y-54577367D01*
X118127776Y-54517623D01*
X118127775Y-54517619D01*
X118127430Y-54511029D01*
X118123958Y-54498071D01*
X118120355Y-54478628D01*
X118119644Y-54471866D01*
X118118954Y-54465298D01*
X118098422Y-54402106D01*
X118096556Y-54395804D01*
X118081071Y-54338015D01*
X118079362Y-54331637D01*
X118076366Y-54325758D01*
X118076363Y-54325749D01*
X118073272Y-54319683D01*
X118065708Y-54301421D01*
X118063608Y-54294957D01*
X118063605Y-54294949D01*
X118061564Y-54288669D01*
X118058262Y-54282950D01*
X118058260Y-54282945D01*
X118028346Y-54231133D01*
X118025213Y-54225363D01*
X117995047Y-54166161D01*
X117986609Y-54155741D01*
X117975411Y-54139448D01*
X117975209Y-54139097D01*
X117968704Y-54127831D01*
X117964287Y-54122925D01*
X117964283Y-54122920D01*
X117924253Y-54078462D01*
X117919969Y-54073446D01*
X117909559Y-54060591D01*
X117909556Y-54060588D01*
X117907472Y-54058014D01*
X117893427Y-54043969D01*
X117888886Y-54039184D01*
X117848856Y-53994726D01*
X117848855Y-53994725D01*
X117844434Y-53989815D01*
X117833574Y-53981925D01*
X117818546Y-53969088D01*
X115695405Y-51845947D01*
X115661379Y-51783635D01*
X115658500Y-51756852D01*
X115658500Y-50801866D01*
X115651745Y-50739684D01*
X115600615Y-50603295D01*
X115513261Y-50486739D01*
X115396705Y-50399385D01*
X115260316Y-50348255D01*
X115198134Y-50341500D01*
X113401866Y-50341500D01*
X113339684Y-50348255D01*
X113203295Y-50399385D01*
X113086739Y-50486739D01*
X112999385Y-50603295D01*
X112948255Y-50739684D01*
X112941500Y-50801866D01*
X112941500Y-52598134D01*
X87058500Y-52598134D01*
X87058500Y-51044669D01*
X95452001Y-51044669D01*
X95452371Y-51051490D01*
X95457895Y-51102352D01*
X95461521Y-51117604D01*
X95506676Y-51238054D01*
X95515214Y-51253649D01*
X95591715Y-51355724D01*
X95604276Y-51368285D01*
X95706351Y-51444786D01*
X95721946Y-51453324D01*
X95842394Y-51498478D01*
X95857649Y-51502105D01*
X95908514Y-51507631D01*
X95915328Y-51508000D01*
X97187885Y-51508000D01*
X97203124Y-51503525D01*
X97204329Y-51502135D01*
X97206000Y-51494452D01*
X97206000Y-51489884D01*
X97714000Y-51489884D01*
X97718475Y-51505123D01*
X97719865Y-51506328D01*
X97727548Y-51507999D01*
X99004669Y-51507999D01*
X99011490Y-51507629D01*
X99062352Y-51502105D01*
X99077604Y-51498479D01*
X99198054Y-51453324D01*
X99213649Y-51444786D01*
X99315724Y-51368285D01*
X99328285Y-51355724D01*
X99404786Y-51253649D01*
X99413324Y-51238054D01*
X99458478Y-51117606D01*
X99462105Y-51102351D01*
X99467631Y-51051486D01*
X99468000Y-51044672D01*
X99468000Y-49772115D01*
X99463525Y-49756876D01*
X99462135Y-49755671D01*
X99454452Y-49754000D01*
X97732115Y-49754000D01*
X97716876Y-49758475D01*
X97715671Y-49759865D01*
X97714000Y-49767548D01*
X97714000Y-51489884D01*
X97206000Y-51489884D01*
X97206000Y-49772115D01*
X97201525Y-49756876D01*
X97200135Y-49755671D01*
X97192452Y-49754000D01*
X95470116Y-49754000D01*
X95454877Y-49758475D01*
X95453672Y-49759865D01*
X95452001Y-49767548D01*
X95452001Y-51044669D01*
X87058500Y-51044669D01*
X87058500Y-50801866D01*
X87051745Y-50739684D01*
X87000615Y-50603295D01*
X86913261Y-50486739D01*
X86796705Y-50399385D01*
X86660316Y-50348255D01*
X86598134Y-50341500D01*
X84801866Y-50341500D01*
X84739684Y-50348255D01*
X84603295Y-50399385D01*
X84486739Y-50486739D01*
X84399385Y-50603295D01*
X84396233Y-50611703D01*
X84350112Y-50734730D01*
X84307470Y-50791494D01*
X84240909Y-50816194D01*
X84232130Y-50816500D01*
X78779457Y-50816500D01*
X78759745Y-50814949D01*
X78753008Y-50813882D01*
X78753009Y-50813882D01*
X78746493Y-50812850D01*
X78739906Y-50813195D01*
X78739902Y-50813195D01*
X78680150Y-50816327D01*
X78673555Y-50816500D01*
X78653694Y-50816500D01*
X78633931Y-50818577D01*
X78627372Y-50819093D01*
X78611573Y-50819921D01*
X78567623Y-50822224D01*
X78567619Y-50822225D01*
X78561029Y-50822570D01*
X78548071Y-50826042D01*
X78528628Y-50829645D01*
X78515298Y-50831046D01*
X78452106Y-50851578D01*
X78445804Y-50853444D01*
X78392328Y-50867773D01*
X78381637Y-50870638D01*
X78375758Y-50873634D01*
X78375749Y-50873637D01*
X78369683Y-50876728D01*
X78351421Y-50884292D01*
X78344957Y-50886392D01*
X78344949Y-50886395D01*
X78338669Y-50888436D01*
X78332950Y-50891738D01*
X78332945Y-50891740D01*
X78281133Y-50921654D01*
X78275363Y-50924787D01*
X78216161Y-50954953D01*
X78211029Y-50959109D01*
X78205741Y-50963391D01*
X78189448Y-50974589D01*
X78177831Y-50981296D01*
X78172925Y-50985713D01*
X78172920Y-50985717D01*
X78128462Y-51025747D01*
X78123446Y-51030031D01*
X78110591Y-51040441D01*
X78108014Y-51042528D01*
X78093969Y-51056573D01*
X78089184Y-51061114D01*
X78039815Y-51105566D01*
X78031925Y-51116426D01*
X78019088Y-51131454D01*
X72231454Y-56919088D01*
X72216426Y-56931925D01*
X72205566Y-56939815D01*
X72201145Y-56944725D01*
X72201144Y-56944726D01*
X72161114Y-56989184D01*
X72156573Y-56993969D01*
X72142528Y-57008014D01*
X72140444Y-57010588D01*
X72140441Y-57010591D01*
X72130031Y-57023446D01*
X72125747Y-57028462D01*
X72085717Y-57072920D01*
X72085713Y-57072925D01*
X72081296Y-57077831D01*
X72074791Y-57089097D01*
X72074589Y-57089448D01*
X72063391Y-57105741D01*
X72054953Y-57116161D01*
X72024787Y-57175363D01*
X72021654Y-57181133D01*
X71991740Y-57232945D01*
X71991738Y-57232950D01*
X71988436Y-57238669D01*
X71986395Y-57244949D01*
X71986392Y-57244957D01*
X71984292Y-57251421D01*
X71976728Y-57269683D01*
X71973637Y-57275749D01*
X71973634Y-57275758D01*
X71970638Y-57281637D01*
X71968929Y-57288015D01*
X71953444Y-57345804D01*
X71951578Y-57352106D01*
X71931046Y-57415298D01*
X71930356Y-57421866D01*
X71929645Y-57428628D01*
X71926042Y-57448071D01*
X71922570Y-57461029D01*
X71922225Y-57467619D01*
X71922224Y-57467623D01*
X71919093Y-57527367D01*
X71918577Y-57533931D01*
X71916500Y-57553694D01*
X71916500Y-57573555D01*
X71916327Y-57580150D01*
X71912850Y-57646493D01*
X71913882Y-57653007D01*
X71914949Y-57659744D01*
X71916500Y-57679456D01*
X71916500Y-84959210D01*
X71910333Y-84998146D01*
X71906458Y-85010072D01*
X71886496Y-85200000D01*
X58008500Y-85200000D01*
X58008500Y-49443941D01*
X59921599Y-49443941D01*
X59921637Y-49444486D01*
X59927240Y-49452846D01*
X59949336Y-49473306D01*
X59954759Y-49477793D01*
X60237811Y-49686478D01*
X60243701Y-49690332D01*
X60548258Y-49866167D01*
X60554527Y-49869334D01*
X60876798Y-50010132D01*
X60883381Y-50012580D01*
X61219332Y-50116574D01*
X61226147Y-50118273D01*
X61571588Y-50184169D01*
X61578565Y-50185100D01*
X61929214Y-50212081D01*
X61936222Y-50212227D01*
X62287692Y-50199954D01*
X62294688Y-50199317D01*
X62642582Y-50147945D01*
X62649481Y-50146529D01*
X62989498Y-50056693D01*
X62996158Y-50054529D01*
X63324047Y-49927349D01*
X63330446Y-49924446D01*
X63642099Y-49761517D01*
X63648144Y-49757914D01*
X63939694Y-49561261D01*
X63945288Y-49557015D01*
X64067910Y-49452656D01*
X64076342Y-49439788D01*
X64070313Y-49429523D01*
X63727213Y-49086423D01*
X76728703Y-49086423D01*
X76736227Y-49096854D01*
X76875483Y-49209020D01*
X76881657Y-49213408D01*
X77152271Y-49382178D01*
X77158931Y-49385794D01*
X77447852Y-49520827D01*
X77454905Y-49523620D01*
X77757970Y-49622970D01*
X77765282Y-49624888D01*
X78078092Y-49687109D01*
X78085590Y-49688137D01*
X78403610Y-49712328D01*
X78411173Y-49712446D01*
X78729785Y-49698257D01*
X78737326Y-49697465D01*
X79051924Y-49645101D01*
X79059302Y-49643411D01*
X79365355Y-49553625D01*
X79372450Y-49551071D01*
X79540391Y-49478918D01*
X100526917Y-49478918D01*
X100542682Y-49752320D01*
X100543507Y-49756525D01*
X100543508Y-49756533D01*
X100554127Y-49810657D01*
X100595405Y-50021053D01*
X100596792Y-50025103D01*
X100596793Y-50025108D01*
X100682723Y-50276088D01*
X100684112Y-50280144D01*
X100686039Y-50283975D01*
X100785312Y-50481358D01*
X100807160Y-50524799D01*
X100809586Y-50528328D01*
X100809589Y-50528334D01*
X100949762Y-50732285D01*
X100962274Y-50750490D01*
X100965161Y-50753663D01*
X100965162Y-50753664D01*
X101077141Y-50876728D01*
X101146582Y-50953043D01*
X101149877Y-50955798D01*
X101149878Y-50955799D01*
X101236171Y-51027951D01*
X101356675Y-51128707D01*
X101360316Y-51130991D01*
X101585024Y-51271951D01*
X101585028Y-51271953D01*
X101588664Y-51274234D01*
X101656544Y-51304883D01*
X101834345Y-51385164D01*
X101834349Y-51385166D01*
X101838257Y-51386930D01*
X101842377Y-51388150D01*
X101842376Y-51388150D01*
X102096723Y-51463491D01*
X102096727Y-51463492D01*
X102100836Y-51464709D01*
X102105070Y-51465357D01*
X102105075Y-51465358D01*
X102367298Y-51505483D01*
X102367300Y-51505483D01*
X102371540Y-51506132D01*
X102510912Y-51508322D01*
X102641071Y-51510367D01*
X102641077Y-51510367D01*
X102645362Y-51510434D01*
X102917235Y-51477534D01*
X103182127Y-51408041D01*
X103186087Y-51406401D01*
X103186092Y-51406399D01*
X103308632Y-51355641D01*
X103435136Y-51303241D01*
X103671582Y-51165073D01*
X103887089Y-50996094D01*
X103901430Y-50981296D01*
X104047032Y-50831046D01*
X104077669Y-50799431D01*
X104080202Y-50795983D01*
X104080206Y-50795978D01*
X104237257Y-50582178D01*
X104239795Y-50578723D01*
X104267154Y-50528334D01*
X104368418Y-50341830D01*
X104368419Y-50341828D01*
X104370468Y-50338054D01*
X104467269Y-50081877D01*
X104492107Y-49973427D01*
X104527449Y-49819117D01*
X104527450Y-49819113D01*
X104528407Y-49814933D01*
X104532229Y-49772115D01*
X104552531Y-49544627D01*
X104552531Y-49544625D01*
X104552751Y-49542161D01*
X104553193Y-49500000D01*
X104551373Y-49473306D01*
X104534859Y-49231055D01*
X104534858Y-49231049D01*
X104534567Y-49226778D01*
X104530890Y-49209020D01*
X104505501Y-49086423D01*
X119828703Y-49086423D01*
X119836227Y-49096854D01*
X119975483Y-49209020D01*
X119981657Y-49213408D01*
X120252271Y-49382178D01*
X120258931Y-49385794D01*
X120547852Y-49520827D01*
X120554905Y-49523620D01*
X120857970Y-49622970D01*
X120865282Y-49624888D01*
X121178092Y-49687109D01*
X121185590Y-49688137D01*
X121503610Y-49712328D01*
X121511173Y-49712446D01*
X121829785Y-49698257D01*
X121837326Y-49697465D01*
X122151924Y-49645101D01*
X122159302Y-49643411D01*
X122465355Y-49553625D01*
X122472450Y-49551071D01*
X122721803Y-49443941D01*
X135921599Y-49443941D01*
X135921637Y-49444486D01*
X135927240Y-49452846D01*
X135949336Y-49473306D01*
X135954759Y-49477793D01*
X136237811Y-49686478D01*
X136243701Y-49690332D01*
X136548258Y-49866167D01*
X136554527Y-49869334D01*
X136876798Y-50010132D01*
X136883381Y-50012580D01*
X137219332Y-50116574D01*
X137226147Y-50118273D01*
X137571588Y-50184169D01*
X137578565Y-50185100D01*
X137929214Y-50212081D01*
X137936222Y-50212227D01*
X138287692Y-50199954D01*
X138294688Y-50199317D01*
X138642582Y-50147945D01*
X138649481Y-50146529D01*
X138989498Y-50056693D01*
X138996158Y-50054529D01*
X139324047Y-49927349D01*
X139330446Y-49924446D01*
X139642099Y-49761517D01*
X139648144Y-49757914D01*
X139939694Y-49561261D01*
X139945288Y-49557015D01*
X140067910Y-49452656D01*
X140076342Y-49439788D01*
X140070313Y-49429523D01*
X138012812Y-47372022D01*
X137998868Y-47364408D01*
X137997035Y-47364539D01*
X137990420Y-47368790D01*
X135929213Y-49429997D01*
X135921599Y-49443941D01*
X122721803Y-49443941D01*
X122765496Y-49425169D01*
X122772263Y-49421765D01*
X123048042Y-49261580D01*
X123054349Y-49257390D01*
X123264305Y-49098889D01*
X123272761Y-49087496D01*
X123266045Y-49075256D01*
X121562810Y-47372020D01*
X121548869Y-47364408D01*
X121547034Y-47364539D01*
X121540420Y-47368790D01*
X119835818Y-49073393D01*
X119828703Y-49086423D01*
X104505501Y-49086423D01*
X104501692Y-49068030D01*
X104479032Y-48958612D01*
X104387617Y-48700465D01*
X104262013Y-48457112D01*
X104252040Y-48442921D01*
X104183279Y-48345084D01*
X104104545Y-48233057D01*
X103918125Y-48032445D01*
X103914810Y-48029731D01*
X103914806Y-48029728D01*
X103709523Y-47861706D01*
X103706205Y-47858990D01*
X103472704Y-47715901D01*
X103468768Y-47714173D01*
X103225873Y-47607549D01*
X103225869Y-47607548D01*
X103221945Y-47605825D01*
X102958566Y-47530800D01*
X102954324Y-47530196D01*
X102954318Y-47530195D01*
X102727366Y-47497895D01*
X102687443Y-47492213D01*
X102543589Y-47491460D01*
X102417877Y-47490802D01*
X102417871Y-47490802D01*
X102413591Y-47490780D01*
X102409347Y-47491339D01*
X102409343Y-47491339D01*
X102301416Y-47505548D01*
X102142078Y-47526525D01*
X102137938Y-47527658D01*
X102137936Y-47527658D01*
X102068418Y-47546676D01*
X101877928Y-47598788D01*
X101873980Y-47600472D01*
X101629982Y-47704546D01*
X101629978Y-47704548D01*
X101626030Y-47706232D01*
X101606125Y-47718145D01*
X101394725Y-47844664D01*
X101394721Y-47844667D01*
X101391043Y-47846868D01*
X101177318Y-48018094D01*
X100988808Y-48216742D01*
X100829002Y-48439136D01*
X100700857Y-48681161D01*
X100699385Y-48685184D01*
X100699383Y-48685188D01*
X100686190Y-48721240D01*
X100606743Y-48938337D01*
X100548404Y-49205907D01*
X100526917Y-49478918D01*
X79540391Y-49478918D01*
X79665496Y-49425169D01*
X79672263Y-49421765D01*
X79948042Y-49261580D01*
X79954349Y-49257390D01*
X79993432Y-49227885D01*
X95452000Y-49227885D01*
X95456475Y-49243124D01*
X95457865Y-49244329D01*
X95465548Y-49246000D01*
X97187885Y-49246000D01*
X97203124Y-49241525D01*
X97204329Y-49240135D01*
X97206000Y-49232452D01*
X97206000Y-49227885D01*
X97714000Y-49227885D01*
X97718475Y-49243124D01*
X97719865Y-49244329D01*
X97727548Y-49246000D01*
X99449884Y-49246000D01*
X99465123Y-49241525D01*
X99466328Y-49240135D01*
X99467999Y-49232452D01*
X99467999Y-47955331D01*
X99467629Y-47948510D01*
X99462105Y-47897648D01*
X99458479Y-47882396D01*
X99413324Y-47761946D01*
X99404786Y-47746351D01*
X99328285Y-47644276D01*
X99315724Y-47631715D01*
X99213649Y-47555214D01*
X99198054Y-47546676D01*
X99077606Y-47501522D01*
X99062351Y-47497895D01*
X99011486Y-47492369D01*
X99004672Y-47492000D01*
X97732115Y-47492000D01*
X97716876Y-47496475D01*
X97715671Y-47497865D01*
X97714000Y-47505548D01*
X97714000Y-49227885D01*
X97206000Y-49227885D01*
X97206000Y-47510116D01*
X97201525Y-47494877D01*
X97200135Y-47493672D01*
X97192452Y-47492001D01*
X95915331Y-47492001D01*
X95908510Y-47492371D01*
X95857648Y-47497895D01*
X95842396Y-47501521D01*
X95721946Y-47546676D01*
X95706351Y-47555214D01*
X95604276Y-47631715D01*
X95591715Y-47644276D01*
X95515214Y-47746351D01*
X95506676Y-47761946D01*
X95461522Y-47882394D01*
X95457895Y-47897649D01*
X95452369Y-47948514D01*
X95452000Y-47955328D01*
X95452000Y-49227885D01*
X79993432Y-49227885D01*
X80164305Y-49098889D01*
X80172761Y-49087496D01*
X80166045Y-49075256D01*
X78462810Y-47372020D01*
X78448869Y-47364408D01*
X78447034Y-47364539D01*
X78440420Y-47368790D01*
X76735818Y-49073393D01*
X76728703Y-49086423D01*
X63727213Y-49086423D01*
X62012812Y-47372022D01*
X61998868Y-47364408D01*
X61997035Y-47364539D01*
X61990420Y-47368790D01*
X59929213Y-49429997D01*
X59921599Y-49443941D01*
X58008500Y-49443941D01*
X58008500Y-47053250D01*
X58010246Y-47032345D01*
X58012770Y-47017344D01*
X58012770Y-47017341D01*
X58013576Y-47012552D01*
X58013729Y-47000000D01*
X58011464Y-46984183D01*
X58010326Y-46960508D01*
X58010411Y-46958666D01*
X58787406Y-46958666D01*
X58802133Y-47310021D01*
X58802818Y-47317013D01*
X58856620Y-47664559D01*
X58858080Y-47671426D01*
X58950288Y-48010807D01*
X58952502Y-48017463D01*
X59081970Y-48344462D01*
X59084909Y-48350823D01*
X59250019Y-48661347D01*
X59253653Y-48667348D01*
X59452339Y-48957523D01*
X59456633Y-48963098D01*
X59547208Y-49068030D01*
X59560251Y-49076447D01*
X59570282Y-49070508D01*
X61627978Y-47012812D01*
X61634356Y-47001132D01*
X62364408Y-47001132D01*
X62364539Y-47002965D01*
X62368790Y-47009580D01*
X64430699Y-49071489D01*
X64444643Y-49079103D01*
X64445423Y-49079048D01*
X64453470Y-49073696D01*
X64458932Y-49067880D01*
X64463454Y-49062491D01*
X64674113Y-48780896D01*
X64678003Y-48775042D01*
X64855962Y-48471719D01*
X64859176Y-48465465D01*
X65002214Y-48144195D01*
X65004711Y-48137620D01*
X65111048Y-47802405D01*
X65112794Y-47795603D01*
X65181100Y-47450635D01*
X65182081Y-47443654D01*
X65211619Y-47091898D01*
X65211833Y-47087529D01*
X65213025Y-47002178D01*
X65212934Y-46997828D01*
X65211679Y-46975383D01*
X75737388Y-46975383D01*
X75753245Y-47293914D01*
X75754076Y-47301443D01*
X75808085Y-47615759D01*
X75809818Y-47623146D01*
X75901196Y-47928695D01*
X75903799Y-47935808D01*
X76031227Y-48228173D01*
X76034669Y-48234929D01*
X76196296Y-48509865D01*
X76200519Y-48516150D01*
X76351463Y-48713934D01*
X76362989Y-48722396D01*
X76375054Y-48715735D01*
X78077980Y-47012810D01*
X78084357Y-47001131D01*
X78814408Y-47001131D01*
X78814539Y-47002966D01*
X78818790Y-47009580D01*
X80523285Y-48714074D01*
X80536408Y-48721240D01*
X80546709Y-48713851D01*
X80650751Y-48586055D01*
X80655164Y-48579914D01*
X80825349Y-48310187D01*
X80829005Y-48303536D01*
X80965544Y-48015335D01*
X80968375Y-48008295D01*
X81069306Y-47705767D01*
X81071270Y-47698433D01*
X81135122Y-47385989D01*
X81136194Y-47378465D01*
X81162173Y-47059051D01*
X81162378Y-47054576D01*
X81162927Y-47002221D01*
X81162817Y-46997789D01*
X81161466Y-46975383D01*
X118837388Y-46975383D01*
X118853245Y-47293914D01*
X118854076Y-47301443D01*
X118908085Y-47615759D01*
X118909818Y-47623146D01*
X119001196Y-47928695D01*
X119003799Y-47935808D01*
X119131227Y-48228173D01*
X119134669Y-48234929D01*
X119296296Y-48509865D01*
X119300519Y-48516150D01*
X119451463Y-48713934D01*
X119462989Y-48722396D01*
X119475054Y-48715735D01*
X121177980Y-47012810D01*
X121184357Y-47001131D01*
X121914408Y-47001131D01*
X121914539Y-47002966D01*
X121918790Y-47009580D01*
X123623285Y-48714074D01*
X123636408Y-48721240D01*
X123646709Y-48713851D01*
X123750751Y-48586055D01*
X123755164Y-48579914D01*
X123925349Y-48310187D01*
X123929005Y-48303536D01*
X124065544Y-48015335D01*
X124068375Y-48008295D01*
X124169306Y-47705767D01*
X124171270Y-47698433D01*
X124235122Y-47385989D01*
X124236194Y-47378465D01*
X124262173Y-47059051D01*
X124262378Y-47054576D01*
X124262927Y-47002221D01*
X124262817Y-46997789D01*
X124260458Y-46958666D01*
X134787406Y-46958666D01*
X134802133Y-47310021D01*
X134802818Y-47317013D01*
X134856620Y-47664559D01*
X134858080Y-47671426D01*
X134950288Y-48010807D01*
X134952502Y-48017463D01*
X135081970Y-48344462D01*
X135084909Y-48350823D01*
X135250019Y-48661347D01*
X135253653Y-48667348D01*
X135452339Y-48957523D01*
X135456633Y-48963098D01*
X135547208Y-49068030D01*
X135560251Y-49076447D01*
X135570282Y-49070508D01*
X137627978Y-47012812D01*
X137634356Y-47001132D01*
X138364408Y-47001132D01*
X138364539Y-47002965D01*
X138368790Y-47009580D01*
X140430699Y-49071489D01*
X140444643Y-49079103D01*
X140445423Y-49079048D01*
X140453470Y-49073696D01*
X140458932Y-49067880D01*
X140463454Y-49062491D01*
X140674113Y-48780896D01*
X140678003Y-48775042D01*
X140855962Y-48471719D01*
X140859176Y-48465465D01*
X141002214Y-48144195D01*
X141004711Y-48137620D01*
X141111048Y-47802405D01*
X141112794Y-47795603D01*
X141181100Y-47450635D01*
X141182081Y-47443654D01*
X141211619Y-47091898D01*
X141211833Y-47087529D01*
X141213025Y-47002178D01*
X141212934Y-46997828D01*
X141193227Y-46645352D01*
X141192445Y-46638380D01*
X141133794Y-46291612D01*
X141132241Y-46284776D01*
X141035300Y-45946704D01*
X141032997Y-45940091D01*
X140898976Y-45614930D01*
X140895947Y-45608610D01*
X140726521Y-45300424D01*
X140722795Y-45294462D01*
X140520076Y-45007090D01*
X140515715Y-45001588D01*
X140453394Y-44931394D01*
X140440004Y-44923015D01*
X140430446Y-44928764D01*
X138372022Y-46987188D01*
X138364408Y-47001132D01*
X137634356Y-47001132D01*
X137635592Y-46998868D01*
X137635461Y-46997035D01*
X137631210Y-46990420D01*
X135570595Y-44929805D01*
X135556651Y-44922191D01*
X135556342Y-44922213D01*
X135547671Y-44928068D01*
X135512436Y-44966654D01*
X135507992Y-44972103D01*
X135301287Y-45256608D01*
X135297470Y-45262530D01*
X135123771Y-45568297D01*
X135120641Y-45574602D01*
X134982101Y-45897838D01*
X134979699Y-45904439D01*
X134878055Y-46241099D01*
X134876400Y-46247942D01*
X134812918Y-46593824D01*
X134812035Y-46600819D01*
X134787504Y-46951621D01*
X134787406Y-46958666D01*
X124260458Y-46958666D01*
X124243529Y-46677853D01*
X124242621Y-46670351D01*
X124185319Y-46356593D01*
X124183518Y-46349260D01*
X124088935Y-46044655D01*
X124086263Y-46037583D01*
X123955781Y-45746570D01*
X123952264Y-45739843D01*
X123787771Y-45466621D01*
X123783481Y-45460377D01*
X123647991Y-45286647D01*
X123636199Y-45278178D01*
X123624486Y-45284725D01*
X121922020Y-46987190D01*
X121914408Y-47001131D01*
X121184357Y-47001131D01*
X121185592Y-46998869D01*
X121185461Y-46997034D01*
X121181210Y-46990420D01*
X119476445Y-45285656D01*
X119463510Y-45278592D01*
X119452949Y-45286252D01*
X119332766Y-45437072D01*
X119328410Y-45443270D01*
X119161059Y-45714764D01*
X119157479Y-45721440D01*
X119023956Y-46011074D01*
X119021206Y-46018125D01*
X118923444Y-46321708D01*
X118921561Y-46329041D01*
X118860979Y-46642170D01*
X118859992Y-46649670D01*
X118837467Y-46967802D01*
X118837388Y-46975383D01*
X81161466Y-46975383D01*
X81143529Y-46677853D01*
X81142621Y-46670351D01*
X81085319Y-46356593D01*
X81083518Y-46349260D01*
X80988935Y-46044655D01*
X80986263Y-46037583D01*
X80855781Y-45746570D01*
X80852264Y-45739843D01*
X80687771Y-45466621D01*
X80683481Y-45460377D01*
X80547991Y-45286647D01*
X80536199Y-45278178D01*
X80524486Y-45284725D01*
X78822020Y-46987190D01*
X78814408Y-47001131D01*
X78084357Y-47001131D01*
X78085592Y-46998869D01*
X78085461Y-46997034D01*
X78081210Y-46990420D01*
X76376445Y-45285656D01*
X76363510Y-45278592D01*
X76352949Y-45286252D01*
X76232766Y-45437072D01*
X76228410Y-45443270D01*
X76061059Y-45714764D01*
X76057479Y-45721440D01*
X75923956Y-46011074D01*
X75921206Y-46018125D01*
X75823444Y-46321708D01*
X75821561Y-46329041D01*
X75760979Y-46642170D01*
X75759992Y-46649670D01*
X75737467Y-46967802D01*
X75737388Y-46975383D01*
X65211679Y-46975383D01*
X65193227Y-46645352D01*
X65192445Y-46638380D01*
X65133794Y-46291612D01*
X65132241Y-46284776D01*
X65035300Y-45946704D01*
X65032997Y-45940091D01*
X64898976Y-45614930D01*
X64895947Y-45608610D01*
X64726521Y-45300424D01*
X64722795Y-45294462D01*
X64520076Y-45007090D01*
X64515715Y-45001588D01*
X64453394Y-44931394D01*
X64440004Y-44923015D01*
X64430446Y-44928764D01*
X62372022Y-46987188D01*
X62364408Y-47001132D01*
X61634356Y-47001132D01*
X61635592Y-46998868D01*
X61635461Y-46997035D01*
X61631210Y-46990420D01*
X59570595Y-44929805D01*
X59556651Y-44922191D01*
X59556342Y-44922213D01*
X59547671Y-44928068D01*
X59512436Y-44966654D01*
X59507992Y-44972103D01*
X59301287Y-45256608D01*
X59297470Y-45262530D01*
X59123771Y-45568297D01*
X59120641Y-45574602D01*
X58982101Y-45897838D01*
X58979699Y-45904439D01*
X58878055Y-46241099D01*
X58876400Y-46247942D01*
X58812918Y-46593824D01*
X58812035Y-46600819D01*
X58787504Y-46951621D01*
X58787406Y-46958666D01*
X58010411Y-46958666D01*
X58025258Y-46637529D01*
X58026332Y-46625940D01*
X58075659Y-46272328D01*
X58077798Y-46260888D01*
X58128655Y-46044655D01*
X58159541Y-45913335D01*
X58162724Y-45902150D01*
X58164170Y-45897838D01*
X58261109Y-45608610D01*
X58276186Y-45563628D01*
X58280390Y-45552776D01*
X58424605Y-45226160D01*
X58429785Y-45215755D01*
X58603530Y-44903823D01*
X58609646Y-44893946D01*
X58811422Y-44599390D01*
X58818436Y-44590102D01*
X58843285Y-44560178D01*
X59923338Y-44560178D01*
X59929184Y-44569974D01*
X61987188Y-46627978D01*
X62001132Y-46635592D01*
X62002965Y-46635461D01*
X62009580Y-46631210D01*
X63727367Y-44913423D01*
X76727917Y-44913423D01*
X76734520Y-44925309D01*
X78437190Y-46627980D01*
X78451131Y-46635592D01*
X78452966Y-46635461D01*
X78459580Y-46631210D01*
X80164559Y-44926230D01*
X80171552Y-44913423D01*
X119827917Y-44913423D01*
X119834520Y-44925309D01*
X121537190Y-46627980D01*
X121551131Y-46635592D01*
X121552966Y-46635461D01*
X121559580Y-46631210D01*
X123264559Y-44926230D01*
X123271571Y-44913389D01*
X123263777Y-44902701D01*
X123101298Y-44774613D01*
X123095075Y-44770288D01*
X122822702Y-44604357D01*
X122816025Y-44600822D01*
X122726633Y-44560178D01*
X135923338Y-44560178D01*
X135929184Y-44569974D01*
X137987188Y-46627978D01*
X138001132Y-46635592D01*
X138002965Y-46635461D01*
X138009580Y-46631210D01*
X140069714Y-44571076D01*
X140077328Y-44557132D01*
X140077323Y-44557057D01*
X140071217Y-44548081D01*
X140015933Y-44498303D01*
X140010445Y-44493891D01*
X139724508Y-44289180D01*
X139718561Y-44285407D01*
X139411586Y-44113844D01*
X139405268Y-44110762D01*
X139081073Y-43974484D01*
X139074437Y-43972121D01*
X138737084Y-43872832D01*
X138730241Y-43871226D01*
X138383898Y-43810157D01*
X138376927Y-43809326D01*
X138025949Y-43787244D01*
X138018918Y-43787195D01*
X137667651Y-43804374D01*
X137660673Y-43805108D01*
X137313519Y-43861335D01*
X137306651Y-43862845D01*
X136967935Y-43957417D01*
X136961279Y-43959683D01*
X136635212Y-44091422D01*
X136628857Y-44094412D01*
X136319501Y-44261681D01*
X136313512Y-44265365D01*
X136024731Y-44466073D01*
X136019200Y-44470394D01*
X135931736Y-44546964D01*
X135923338Y-44560178D01*
X122726633Y-44560178D01*
X122525686Y-44468813D01*
X122518616Y-44466099D01*
X122214537Y-44369932D01*
X122207186Y-44368085D01*
X121893746Y-44309142D01*
X121886237Y-44308194D01*
X121567989Y-44287335D01*
X121560424Y-44287295D01*
X121241964Y-44304821D01*
X121234450Y-44305690D01*
X120920405Y-44361348D01*
X120913044Y-44363115D01*
X120607980Y-44456092D01*
X120600860Y-44458740D01*
X120309182Y-44587690D01*
X120302445Y-44591167D01*
X120028355Y-44754233D01*
X120022091Y-44758490D01*
X119836385Y-44901762D01*
X119827917Y-44913423D01*
X80171552Y-44913423D01*
X80171571Y-44913389D01*
X80163777Y-44902701D01*
X80001298Y-44774613D01*
X79995075Y-44770288D01*
X79722702Y-44604357D01*
X79716025Y-44600822D01*
X79425686Y-44468813D01*
X79418616Y-44466099D01*
X79114537Y-44369932D01*
X79107186Y-44368085D01*
X78793746Y-44309142D01*
X78786237Y-44308194D01*
X78467989Y-44287335D01*
X78460424Y-44287295D01*
X78141964Y-44304821D01*
X78134450Y-44305690D01*
X77820405Y-44361348D01*
X77813044Y-44363115D01*
X77507980Y-44456092D01*
X77500860Y-44458740D01*
X77209182Y-44587690D01*
X77202445Y-44591167D01*
X76928355Y-44754233D01*
X76922091Y-44758490D01*
X76736385Y-44901762D01*
X76727917Y-44913423D01*
X63727367Y-44913423D01*
X64069714Y-44571076D01*
X64077328Y-44557132D01*
X64077323Y-44557057D01*
X64071217Y-44548081D01*
X64015933Y-44498303D01*
X64010445Y-44493891D01*
X63724508Y-44289180D01*
X63718561Y-44285407D01*
X63411586Y-44113844D01*
X63405268Y-44110762D01*
X63081073Y-43974484D01*
X63074437Y-43972121D01*
X62737084Y-43872832D01*
X62730241Y-43871226D01*
X62383898Y-43810157D01*
X62376927Y-43809326D01*
X62025949Y-43787244D01*
X62018918Y-43787195D01*
X61667651Y-43804374D01*
X61660673Y-43805108D01*
X61313519Y-43861335D01*
X61306651Y-43862845D01*
X60967935Y-43957417D01*
X60961279Y-43959683D01*
X60635212Y-44091422D01*
X60628857Y-44094412D01*
X60319501Y-44261681D01*
X60313512Y-44265365D01*
X60024731Y-44466073D01*
X60019200Y-44470394D01*
X59931736Y-44546964D01*
X59923338Y-44560178D01*
X58843285Y-44560178D01*
X59046530Y-44315419D01*
X59054371Y-44306819D01*
X59306819Y-44054371D01*
X59315419Y-44046530D01*
X59590102Y-43818436D01*
X59599390Y-43811422D01*
X59893946Y-43609646D01*
X59903823Y-43603530D01*
X60215755Y-43429785D01*
X60226160Y-43424605D01*
X60552776Y-43280390D01*
X60563628Y-43276186D01*
X60732889Y-43219455D01*
X60902159Y-43162721D01*
X60913335Y-43159541D01*
X61260888Y-43077798D01*
X61272328Y-43075659D01*
X61625940Y-43026332D01*
X61637529Y-43025258D01*
X61956785Y-43010498D01*
X61981989Y-43011864D01*
X61984850Y-43012310D01*
X61984856Y-43012310D01*
X61993724Y-43013691D01*
X62002626Y-43012527D01*
X62002628Y-43012527D01*
X62020757Y-43010156D01*
X62025286Y-43009564D01*
X62041621Y-43008500D01*
X137950633Y-43008500D01*
X137970018Y-43010000D01*
G37*
%TD.AperFunction*%
%TD*%
M02*
