%TF.GenerationSoftware,KiCad,Pcbnew,(6.0.5)*%
%TF.CreationDate,2022-06-28T11:16:47+05:30*%
%TF.ProjectId,MecCam_pro,4d656343-616d-45f7-9072-6f2e6b696361,rev?*%
%TF.SameCoordinates,Original*%
%TF.FileFunction,Legend,Top*%
%TF.FilePolarity,Positive*%
%FSLAX46Y46*%
G04 Gerber Fmt 4.6, Leading zero omitted, Abs format (unit mm)*
G04 Created by KiCad (PCBNEW (6.0.5)) date 2022-06-28 11:16:47*
%MOMM*%
%LPD*%
G01*
G04 APERTURE LIST*
%ADD10C,0.120000*%
%ADD11C,0.250000*%
%ADD12C,0.100000*%
%ADD13C,0.150000*%
%ADD14C,0.010000*%
G04 APERTURE END LIST*
D10*
X110600000Y-104000000D02*
X109800000Y-103200000D01*
X88600000Y-97600000D02*
X88000000Y-97000000D01*
X111400000Y-102300000D02*
X109400000Y-102300000D01*
X83300000Y-101100000D02*
X84500000Y-101100000D01*
X84500000Y-98600000D02*
X85300000Y-99400000D01*
X87000000Y-98500000D02*
X89400000Y-98500000D01*
X115500000Y-91200000D02*
X114000000Y-92700000D01*
X117300000Y-108900000D02*
G75*
G03*
X117300000Y-108900000I-300000J0D01*
G01*
X117300000Y-106400000D02*
G75*
G03*
X117300000Y-106400000I-300000J0D01*
G01*
X117300000Y-103900000D02*
G75*
G03*
X117300000Y-103900000I-300000J0D01*
G01*
X117300000Y-101300000D02*
G75*
G03*
X117300000Y-101300000I-300000J0D01*
G01*
X114700000Y-100500000D02*
X107400000Y-100500000D01*
X116700000Y-96200000D02*
X115500000Y-96200000D01*
X116700000Y-106400000D02*
X115500000Y-106400000D01*
X115500000Y-101300000D02*
X114700000Y-100500000D01*
X116700000Y-108900000D02*
X115500000Y-108900000D01*
X116700000Y-93700000D02*
X115500000Y-93700000D01*
X117300000Y-96200000D02*
G75*
G03*
X117300000Y-96200000I-300000J0D01*
G01*
X114700000Y-99600000D02*
X107400000Y-99600000D01*
X111400000Y-97800000D02*
X105600000Y-97800000D01*
X116700000Y-91200000D02*
X115500000Y-91200000D01*
X117300000Y-98800000D02*
G75*
G03*
X117300000Y-98800000I-300000J0D01*
G01*
X109400000Y-102300000D02*
X105600000Y-102300000D01*
X117300000Y-91200000D02*
G75*
G03*
X117300000Y-91200000I-300000J0D01*
G01*
X113000000Y-98700000D02*
X106500000Y-98700000D01*
X116700000Y-98800000D02*
X115500000Y-98800000D01*
X116700000Y-101300000D02*
X115500000Y-101300000D01*
X116700000Y-103900000D02*
X115500000Y-103900000D01*
X110600000Y-101400000D02*
X106500000Y-101400000D01*
X117300000Y-93700000D02*
G75*
G03*
X117300000Y-93700000I-300000J0D01*
G01*
X109800000Y-103200000D02*
X104700000Y-103200000D01*
X110300000Y-96400000D02*
X109800000Y-96900000D01*
X115500000Y-98800000D02*
X114700000Y-99600000D01*
X115500000Y-96200000D02*
X113000000Y-98700000D01*
X115500000Y-106400000D02*
X111400000Y-102300000D01*
X115500000Y-108900000D02*
X114000000Y-107400000D01*
X115500000Y-93700000D02*
X113500000Y-95700000D01*
X104700000Y-96900000D02*
X109800000Y-96900000D01*
X115500000Y-103900000D02*
X113000000Y-101400000D01*
X113000000Y-101400000D02*
X110600000Y-101400000D01*
X108800000Y-141500000D02*
G75*
G03*
X108800000Y-141500000I-300000J0D01*
G01*
X101500000Y-91200000D02*
G75*
G03*
X101500000Y-91200000I-300000J0D01*
G01*
D11*
X90500000Y-75050000D02*
X90500000Y-92000000D01*
X109500000Y-75050000D02*
X109500000Y-92000000D01*
X110050000Y-74500000D02*
G75*
G03*
X110050000Y-74500000I-550000J0D01*
G01*
X106500000Y-95000000D02*
X103000000Y-95000000D01*
X109500000Y-92000000D02*
X106500000Y-95000000D01*
D10*
X84500000Y-91000000D02*
X87000000Y-93500000D01*
X84500000Y-103700000D02*
X87000000Y-101200000D01*
X84500000Y-93500000D02*
X86200000Y-95200000D01*
X83300000Y-103700000D02*
X84500000Y-103700000D01*
X83300000Y-103700000D02*
G75*
G03*
X83300000Y-103700000I-300000J0D01*
G01*
X99500000Y-133900000D02*
X99500000Y-138000000D01*
D11*
X100000000Y-155000000D02*
X100000000Y-152500000D01*
D10*
X84500000Y-101100000D02*
X85300000Y-100300000D01*
X111400000Y-97800000D02*
X112100000Y-97100000D01*
X83300000Y-96000000D02*
G75*
G03*
X83300000Y-96000000I-300000J0D01*
G01*
X100500000Y-93000000D02*
X101200000Y-92300000D01*
X84500000Y-108700000D02*
X85800000Y-107400000D01*
X91800000Y-141500000D02*
X96000000Y-141500000D01*
D11*
X100000000Y-155000000D02*
X100750000Y-154000000D01*
X91050000Y-74500000D02*
G75*
G03*
X91050000Y-74500000I-550000J0D01*
G01*
D10*
X108200000Y-141500000D02*
X104000000Y-141500000D01*
X101200000Y-92300000D02*
X101200000Y-91500000D01*
X100500000Y-133900000D02*
X100500000Y-138000000D01*
X85300000Y-99400000D02*
X92600000Y-99400000D01*
X83300000Y-106200000D02*
X84500000Y-106200000D01*
X83300000Y-98600000D02*
X84500000Y-98600000D01*
X83300000Y-108700000D02*
X84500000Y-108700000D01*
X99500000Y-106000000D02*
X99500000Y-117300000D01*
X83300000Y-98600000D02*
G75*
G03*
X83300000Y-98600000I-300000J0D01*
G01*
X95300000Y-103000000D02*
X90200000Y-103000000D01*
X99500000Y-122200000D02*
X99500000Y-130000000D01*
X88600000Y-97600000D02*
X94400000Y-97600000D01*
X89800000Y-96300000D02*
X90200000Y-96700000D01*
X84500000Y-96000000D02*
X87000000Y-98500000D01*
D11*
X93500000Y-95000000D02*
X90500000Y-92000000D01*
D10*
X83300000Y-93500000D02*
X84500000Y-93500000D01*
X89400000Y-98500000D02*
X93500000Y-98500000D01*
X84500000Y-106200000D02*
X88600000Y-102100000D01*
X88600000Y-102100000D02*
X94400000Y-102100000D01*
X83300000Y-96000000D02*
X84500000Y-96000000D01*
X100500000Y-122200000D02*
X100500000Y-130000000D01*
X85300000Y-100300000D02*
X92600000Y-100300000D01*
X83300000Y-91000000D02*
G75*
G03*
X83300000Y-91000000I-300000J0D01*
G01*
D11*
X100000000Y-155000000D02*
X99250000Y-154000000D01*
D10*
X100500000Y-138000000D02*
X104000000Y-141500000D01*
X99100000Y-91200000D02*
G75*
G03*
X99100000Y-91200000I-300000J0D01*
G01*
X98800000Y-92300000D02*
X98800000Y-91500000D01*
D11*
X97000000Y-95000000D02*
X93500000Y-95000000D01*
D10*
X100500000Y-94000000D02*
X100500000Y-93000000D01*
X83300000Y-108700000D02*
G75*
G03*
X83300000Y-108700000I-300000J0D01*
G01*
X99500000Y-138000000D02*
X96000000Y-141500000D01*
X99500000Y-93000000D02*
X98800000Y-92300000D01*
X113100000Y-93600000D02*
X112700000Y-94000000D01*
X100500000Y-106000000D02*
X100500000Y-117300000D01*
X90200000Y-96700000D02*
X95300000Y-96700000D01*
X87000000Y-101200000D02*
X93500000Y-101200000D01*
X83300000Y-93500000D02*
G75*
G03*
X83300000Y-93500000I-300000J0D01*
G01*
X83300000Y-91000000D02*
X84500000Y-91000000D01*
X83300000Y-101100000D02*
G75*
G03*
X83300000Y-101100000I-300000J0D01*
G01*
X88000000Y-105200000D02*
X90200000Y-103000000D01*
X91800000Y-141500000D02*
G75*
G03*
X91800000Y-141500000I-300000J0D01*
G01*
X83300000Y-106200000D02*
G75*
G03*
X83300000Y-106200000I-300000J0D01*
G01*
X99500000Y-94000000D02*
X99500000Y-93000000D01*
D12*
X86066666Y-77316666D02*
X85733333Y-77316666D01*
X85700000Y-77650000D01*
X85733333Y-77616666D01*
X85800000Y-77583333D01*
X85966666Y-77583333D01*
X86033333Y-77616666D01*
X86066666Y-77650000D01*
X86100000Y-77716666D01*
X86100000Y-77883333D01*
X86066666Y-77950000D01*
X86033333Y-77983333D01*
X85966666Y-78016666D01*
X85800000Y-78016666D01*
X85733333Y-77983333D01*
X85700000Y-77950000D01*
X86300000Y-77316666D02*
X86533333Y-78016666D01*
X86766666Y-77316666D01*
X73700000Y-80583333D02*
X73800000Y-80616666D01*
X73966666Y-80616666D01*
X74033333Y-80583333D01*
X74066666Y-80550000D01*
X74100000Y-80483333D01*
X74100000Y-80416666D01*
X74066666Y-80350000D01*
X74033333Y-80316666D01*
X73966666Y-80283333D01*
X73833333Y-80250000D01*
X73766666Y-80216666D01*
X73733333Y-80183333D01*
X73700000Y-80116666D01*
X73700000Y-80050000D01*
X73733333Y-79983333D01*
X73766666Y-79950000D01*
X73833333Y-79916666D01*
X74000000Y-79916666D01*
X74100000Y-79950000D01*
X74800000Y-80550000D02*
X74766666Y-80583333D01*
X74666666Y-80616666D01*
X74600000Y-80616666D01*
X74500000Y-80583333D01*
X74433333Y-80516666D01*
X74400000Y-80450000D01*
X74366666Y-80316666D01*
X74366666Y-80216666D01*
X74400000Y-80083333D01*
X74433333Y-80016666D01*
X74500000Y-79950000D01*
X74600000Y-79916666D01*
X74666666Y-79916666D01*
X74766666Y-79950000D01*
X74800000Y-79983333D01*
X75100000Y-80616666D02*
X75100000Y-79916666D01*
X75500000Y-80616666D02*
X75200000Y-80216666D01*
X75500000Y-79916666D02*
X75100000Y-80316666D01*
X85800000Y-80516666D02*
X85800000Y-79816666D01*
X86033333Y-80316666D01*
X86266666Y-79816666D01*
X86266666Y-80516666D01*
X86733333Y-79816666D02*
X86866666Y-79816666D01*
X86933333Y-79850000D01*
X87000000Y-79916666D01*
X87033333Y-80050000D01*
X87033333Y-80283333D01*
X87000000Y-80416666D01*
X86933333Y-80483333D01*
X86866666Y-80516666D01*
X86733333Y-80516666D01*
X86666666Y-80483333D01*
X86600000Y-80416666D01*
X86566666Y-80283333D01*
X86566666Y-80050000D01*
X86600000Y-79916666D01*
X86666666Y-79850000D01*
X86733333Y-79816666D01*
X87300000Y-80483333D02*
X87400000Y-80516666D01*
X87566666Y-80516666D01*
X87633333Y-80483333D01*
X87666666Y-80450000D01*
X87700000Y-80383333D01*
X87700000Y-80316666D01*
X87666666Y-80250000D01*
X87633333Y-80216666D01*
X87566666Y-80183333D01*
X87433333Y-80150000D01*
X87366666Y-80116666D01*
X87333333Y-80083333D01*
X87300000Y-80016666D01*
X87300000Y-79950000D01*
X87333333Y-79883333D01*
X87366666Y-79850000D01*
X87433333Y-79816666D01*
X87600000Y-79816666D01*
X87700000Y-79850000D01*
X88000000Y-80516666D02*
X88000000Y-79816666D01*
X74316666Y-83116666D02*
X74083333Y-82783333D01*
X73916666Y-83116666D02*
X73916666Y-82416666D01*
X74183333Y-82416666D01*
X74250000Y-82450000D01*
X74283333Y-82483333D01*
X74316666Y-82550000D01*
X74316666Y-82650000D01*
X74283333Y-82716666D01*
X74250000Y-82750000D01*
X74183333Y-82783333D01*
X73916666Y-82783333D01*
X74583333Y-83083333D02*
X74683333Y-83116666D01*
X74850000Y-83116666D01*
X74916666Y-83083333D01*
X74950000Y-83050000D01*
X74983333Y-82983333D01*
X74983333Y-82916666D01*
X74950000Y-82850000D01*
X74916666Y-82816666D01*
X74850000Y-82783333D01*
X74716666Y-82750000D01*
X74650000Y-82716666D01*
X74616666Y-82683333D01*
X74583333Y-82616666D01*
X74583333Y-82550000D01*
X74616666Y-82483333D01*
X74650000Y-82450000D01*
X74716666Y-82416666D01*
X74883333Y-82416666D01*
X74983333Y-82450000D01*
X75183333Y-82416666D02*
X75583333Y-82416666D01*
X75383333Y-83116666D02*
X75383333Y-82416666D01*
X73400000Y-78016666D02*
X73400000Y-77316666D01*
X73633333Y-77816666D01*
X73866666Y-77316666D01*
X73866666Y-78016666D01*
X74200000Y-78016666D02*
X74200000Y-77316666D01*
X74500000Y-77983333D02*
X74600000Y-78016666D01*
X74766666Y-78016666D01*
X74833333Y-77983333D01*
X74866666Y-77950000D01*
X74900000Y-77883333D01*
X74900000Y-77816666D01*
X74866666Y-77750000D01*
X74833333Y-77716666D01*
X74766666Y-77683333D01*
X74633333Y-77650000D01*
X74566666Y-77616666D01*
X74533333Y-77583333D01*
X74500000Y-77516666D01*
X74500000Y-77450000D01*
X74533333Y-77383333D01*
X74566666Y-77350000D01*
X74633333Y-77316666D01*
X74800000Y-77316666D01*
X74900000Y-77350000D01*
X75333333Y-77316666D02*
X75466666Y-77316666D01*
X75533333Y-77350000D01*
X75600000Y-77416666D01*
X75633333Y-77550000D01*
X75633333Y-77783333D01*
X75600000Y-77916666D01*
X75533333Y-77983333D01*
X75466666Y-78016666D01*
X75333333Y-78016666D01*
X75266666Y-77983333D01*
X75200000Y-77916666D01*
X75166666Y-77783333D01*
X75166666Y-77550000D01*
X75200000Y-77416666D01*
X75266666Y-77350000D01*
X75333333Y-77316666D01*
X86066666Y-82450000D02*
X86000000Y-82416666D01*
X85900000Y-82416666D01*
X85800000Y-82450000D01*
X85733333Y-82516666D01*
X85700000Y-82583333D01*
X85666666Y-82716666D01*
X85666666Y-82816666D01*
X85700000Y-82950000D01*
X85733333Y-83016666D01*
X85800000Y-83083333D01*
X85900000Y-83116666D01*
X85966666Y-83116666D01*
X86066666Y-83083333D01*
X86100000Y-83050000D01*
X86100000Y-82816666D01*
X85966666Y-82816666D01*
X86400000Y-83116666D02*
X86400000Y-82416666D01*
X86800000Y-83116666D01*
X86800000Y-82416666D01*
X87133333Y-83116666D02*
X87133333Y-82416666D01*
X87300000Y-82416666D01*
X87400000Y-82450000D01*
X87466666Y-82516666D01*
X87500000Y-82583333D01*
X87533333Y-82716666D01*
X87533333Y-82816666D01*
X87500000Y-82950000D01*
X87466666Y-83016666D01*
X87400000Y-83083333D01*
X87300000Y-83116666D01*
X87133333Y-83116666D01*
D13*
%TO.C,C6*%
X95583333Y-81957142D02*
X95535714Y-82004761D01*
X95392857Y-82052380D01*
X95297619Y-82052380D01*
X95154761Y-82004761D01*
X95059523Y-81909523D01*
X95011904Y-81814285D01*
X94964285Y-81623809D01*
X94964285Y-81480952D01*
X95011904Y-81290476D01*
X95059523Y-81195238D01*
X95154761Y-81100000D01*
X95297619Y-81052380D01*
X95392857Y-81052380D01*
X95535714Y-81100000D01*
X95583333Y-81147619D01*
X96440476Y-81052380D02*
X96250000Y-81052380D01*
X96154761Y-81100000D01*
X96107142Y-81147619D01*
X96011904Y-81290476D01*
X95964285Y-81480952D01*
X95964285Y-81861904D01*
X96011904Y-81957142D01*
X96059523Y-82004761D01*
X96154761Y-82052380D01*
X96345238Y-82052380D01*
X96440476Y-82004761D01*
X96488095Y-81957142D01*
X96535714Y-81861904D01*
X96535714Y-81623809D01*
X96488095Y-81528571D01*
X96440476Y-81480952D01*
X96345238Y-81433333D01*
X96154761Y-81433333D01*
X96059523Y-81480952D01*
X96011904Y-81528571D01*
X95964285Y-81623809D01*
%TO.C,J13*%
X110590476Y-132942380D02*
X110590476Y-133656666D01*
X110542857Y-133799523D01*
X110447619Y-133894761D01*
X110304761Y-133942380D01*
X110209523Y-133942380D01*
X111590476Y-133942380D02*
X111019047Y-133942380D01*
X111304761Y-133942380D02*
X111304761Y-132942380D01*
X111209523Y-133085238D01*
X111114285Y-133180476D01*
X111019047Y-133228095D01*
X111923809Y-132942380D02*
X112542857Y-132942380D01*
X112209523Y-133323333D01*
X112352380Y-133323333D01*
X112447619Y-133370952D01*
X112495238Y-133418571D01*
X112542857Y-133513809D01*
X112542857Y-133751904D01*
X112495238Y-133847142D01*
X112447619Y-133894761D01*
X112352380Y-133942380D01*
X112066666Y-133942380D01*
X111971428Y-133894761D01*
X111923809Y-133847142D01*
%TO.C,J3*%
X87666666Y-115852380D02*
X87666666Y-116566666D01*
X87619047Y-116709523D01*
X87523809Y-116804761D01*
X87380952Y-116852380D01*
X87285714Y-116852380D01*
X88047619Y-115852380D02*
X88666666Y-115852380D01*
X88333333Y-116233333D01*
X88476190Y-116233333D01*
X88571428Y-116280952D01*
X88619047Y-116328571D01*
X88666666Y-116423809D01*
X88666666Y-116661904D01*
X88619047Y-116757142D01*
X88571428Y-116804761D01*
X88476190Y-116852380D01*
X88190476Y-116852380D01*
X88095238Y-116804761D01*
X88047619Y-116757142D01*
%TO.C,R6*%
X111833333Y-95322380D02*
X111500000Y-94846190D01*
X111261904Y-95322380D02*
X111261904Y-94322380D01*
X111642857Y-94322380D01*
X111738095Y-94370000D01*
X111785714Y-94417619D01*
X111833333Y-94512857D01*
X111833333Y-94655714D01*
X111785714Y-94750952D01*
X111738095Y-94798571D01*
X111642857Y-94846190D01*
X111261904Y-94846190D01*
X112690476Y-94322380D02*
X112500000Y-94322380D01*
X112404761Y-94370000D01*
X112357142Y-94417619D01*
X112261904Y-94560476D01*
X112214285Y-94750952D01*
X112214285Y-95131904D01*
X112261904Y-95227142D01*
X112309523Y-95274761D01*
X112404761Y-95322380D01*
X112595238Y-95322380D01*
X112690476Y-95274761D01*
X112738095Y-95227142D01*
X112785714Y-95131904D01*
X112785714Y-94893809D01*
X112738095Y-94798571D01*
X112690476Y-94750952D01*
X112595238Y-94703333D01*
X112404761Y-94703333D01*
X112309523Y-94750952D01*
X112261904Y-94798571D01*
X112214285Y-94893809D01*
%TO.C,R3*%
X91333333Y-108552380D02*
X91000000Y-108076190D01*
X90761904Y-108552380D02*
X90761904Y-107552380D01*
X91142857Y-107552380D01*
X91238095Y-107600000D01*
X91285714Y-107647619D01*
X91333333Y-107742857D01*
X91333333Y-107885714D01*
X91285714Y-107980952D01*
X91238095Y-108028571D01*
X91142857Y-108076190D01*
X90761904Y-108076190D01*
X91666666Y-107552380D02*
X92285714Y-107552380D01*
X91952380Y-107933333D01*
X92095238Y-107933333D01*
X92190476Y-107980952D01*
X92238095Y-108028571D01*
X92285714Y-108123809D01*
X92285714Y-108361904D01*
X92238095Y-108457142D01*
X92190476Y-108504761D01*
X92095238Y-108552380D01*
X91809523Y-108552380D01*
X91714285Y-108504761D01*
X91666666Y-108457142D01*
%TO.C,U1*%
X124238095Y-88232380D02*
X124238095Y-89041904D01*
X124285714Y-89137142D01*
X124333333Y-89184761D01*
X124428571Y-89232380D01*
X124619047Y-89232380D01*
X124714285Y-89184761D01*
X124761904Y-89137142D01*
X124809523Y-89041904D01*
X124809523Y-88232380D01*
X125809523Y-89232380D02*
X125238095Y-89232380D01*
X125523809Y-89232380D02*
X125523809Y-88232380D01*
X125428571Y-88375238D01*
X125333333Y-88470476D01*
X125238095Y-88518095D01*
%TO.C,U3*%
X74238095Y-88232380D02*
X74238095Y-89041904D01*
X74285714Y-89137142D01*
X74333333Y-89184761D01*
X74428571Y-89232380D01*
X74619047Y-89232380D01*
X74714285Y-89184761D01*
X74761904Y-89137142D01*
X74809523Y-89041904D01*
X74809523Y-88232380D01*
X75190476Y-88232380D02*
X75809523Y-88232380D01*
X75476190Y-88613333D01*
X75619047Y-88613333D01*
X75714285Y-88660952D01*
X75761904Y-88708571D01*
X75809523Y-88803809D01*
X75809523Y-89041904D01*
X75761904Y-89137142D01*
X75714285Y-89184761D01*
X75619047Y-89232380D01*
X75333333Y-89232380D01*
X75238095Y-89184761D01*
X75190476Y-89137142D01*
%TO.C,U4*%
X102674026Y-104651522D02*
X103246446Y-105223942D01*
X103347461Y-105257614D01*
X103414805Y-105257614D01*
X103515820Y-105223942D01*
X103650507Y-105089255D01*
X103684179Y-104988240D01*
X103684179Y-104920896D01*
X103650507Y-104819881D01*
X103078087Y-104247461D01*
X103953553Y-103843400D02*
X104424957Y-104314805D01*
X103515820Y-103742385D02*
X103852538Y-104415820D01*
X104290270Y-103978087D01*
%TO.C,Y1*%
X99523809Y-84476190D02*
X99523809Y-84952380D01*
X99190476Y-83952380D02*
X99523809Y-84476190D01*
X99857142Y-83952380D01*
X100714285Y-84952380D02*
X100142857Y-84952380D01*
X100428571Y-84952380D02*
X100428571Y-83952380D01*
X100333333Y-84095238D01*
X100238095Y-84190476D01*
X100142857Y-84238095D01*
%TO.C,C5*%
X104083333Y-81927142D02*
X104035714Y-81974761D01*
X103892857Y-82022380D01*
X103797619Y-82022380D01*
X103654761Y-81974761D01*
X103559523Y-81879523D01*
X103511904Y-81784285D01*
X103464285Y-81593809D01*
X103464285Y-81450952D01*
X103511904Y-81260476D01*
X103559523Y-81165238D01*
X103654761Y-81070000D01*
X103797619Y-81022380D01*
X103892857Y-81022380D01*
X104035714Y-81070000D01*
X104083333Y-81117619D01*
X104988095Y-81022380D02*
X104511904Y-81022380D01*
X104464285Y-81498571D01*
X104511904Y-81450952D01*
X104607142Y-81403333D01*
X104845238Y-81403333D01*
X104940476Y-81450952D01*
X104988095Y-81498571D01*
X105035714Y-81593809D01*
X105035714Y-81831904D01*
X104988095Y-81927142D01*
X104940476Y-81974761D01*
X104845238Y-82022380D01*
X104607142Y-82022380D01*
X104511904Y-81974761D01*
X104464285Y-81927142D01*
%TO.C,D2*%
X111261904Y-90952380D02*
X111261904Y-89952380D01*
X111500000Y-89952380D01*
X111642857Y-90000000D01*
X111738095Y-90095238D01*
X111785714Y-90190476D01*
X111833333Y-90380952D01*
X111833333Y-90523809D01*
X111785714Y-90714285D01*
X111738095Y-90809523D01*
X111642857Y-90904761D01*
X111500000Y-90952380D01*
X111261904Y-90952380D01*
X112214285Y-90047619D02*
X112261904Y-90000000D01*
X112357142Y-89952380D01*
X112595238Y-89952380D01*
X112690476Y-90000000D01*
X112738095Y-90047619D01*
X112785714Y-90142857D01*
X112785714Y-90238095D01*
X112738095Y-90380952D01*
X112166666Y-90952380D01*
X112785714Y-90952380D01*
%TO.C,R4*%
X87833333Y-94752380D02*
X87500000Y-94276190D01*
X87261904Y-94752380D02*
X87261904Y-93752380D01*
X87642857Y-93752380D01*
X87738095Y-93800000D01*
X87785714Y-93847619D01*
X87833333Y-93942857D01*
X87833333Y-94085714D01*
X87785714Y-94180952D01*
X87738095Y-94228571D01*
X87642857Y-94276190D01*
X87261904Y-94276190D01*
X88690476Y-94085714D02*
X88690476Y-94752380D01*
X88452380Y-93704761D02*
X88214285Y-94419047D01*
X88833333Y-94419047D01*
%TO.C,R2*%
X86820833Y-108552380D02*
X86487500Y-108076190D01*
X86249404Y-108552380D02*
X86249404Y-107552380D01*
X86630357Y-107552380D01*
X86725595Y-107600000D01*
X86773214Y-107647619D01*
X86820833Y-107742857D01*
X86820833Y-107885714D01*
X86773214Y-107980952D01*
X86725595Y-108028571D01*
X86630357Y-108076190D01*
X86249404Y-108076190D01*
X87201785Y-107647619D02*
X87249404Y-107600000D01*
X87344642Y-107552380D01*
X87582738Y-107552380D01*
X87677976Y-107600000D01*
X87725595Y-107647619D01*
X87773214Y-107742857D01*
X87773214Y-107838095D01*
X87725595Y-107980952D01*
X87154166Y-108552380D01*
X87773214Y-108552380D01*
%TO.C,J16*%
X79890476Y-74832380D02*
X79890476Y-75546666D01*
X79842857Y-75689523D01*
X79747619Y-75784761D01*
X79604761Y-75832380D01*
X79509523Y-75832380D01*
X80890476Y-75832380D02*
X80319047Y-75832380D01*
X80604761Y-75832380D02*
X80604761Y-74832380D01*
X80509523Y-74975238D01*
X80414285Y-75070476D01*
X80319047Y-75118095D01*
X81747619Y-74832380D02*
X81557142Y-74832380D01*
X81461904Y-74880000D01*
X81414285Y-74927619D01*
X81319047Y-75070476D01*
X81271428Y-75260952D01*
X81271428Y-75641904D01*
X81319047Y-75737142D01*
X81366666Y-75784761D01*
X81461904Y-75832380D01*
X81652380Y-75832380D01*
X81747619Y-75784761D01*
X81795238Y-75737142D01*
X81842857Y-75641904D01*
X81842857Y-75403809D01*
X81795238Y-75308571D01*
X81747619Y-75260952D01*
X81652380Y-75213333D01*
X81461904Y-75213333D01*
X81366666Y-75260952D01*
X81319047Y-75308571D01*
X81271428Y-75403809D01*
%TO.C,C2*%
X110533333Y-68357142D02*
X110485714Y-68404761D01*
X110342857Y-68452380D01*
X110247619Y-68452380D01*
X110104761Y-68404761D01*
X110009523Y-68309523D01*
X109961904Y-68214285D01*
X109914285Y-68023809D01*
X109914285Y-67880952D01*
X109961904Y-67690476D01*
X110009523Y-67595238D01*
X110104761Y-67500000D01*
X110247619Y-67452380D01*
X110342857Y-67452380D01*
X110485714Y-67500000D01*
X110533333Y-67547619D01*
X110914285Y-67547619D02*
X110961904Y-67500000D01*
X111057142Y-67452380D01*
X111295238Y-67452380D01*
X111390476Y-67500000D01*
X111438095Y-67547619D01*
X111485714Y-67642857D01*
X111485714Y-67738095D01*
X111438095Y-67880952D01*
X110866666Y-68452380D01*
X111485714Y-68452380D01*
%TO.C,U2*%
X99238095Y-69852380D02*
X99238095Y-70661904D01*
X99285714Y-70757142D01*
X99333333Y-70804761D01*
X99428571Y-70852380D01*
X99619047Y-70852380D01*
X99714285Y-70804761D01*
X99761904Y-70757142D01*
X99809523Y-70661904D01*
X99809523Y-69852380D01*
X100238095Y-69947619D02*
X100285714Y-69900000D01*
X100380952Y-69852380D01*
X100619047Y-69852380D01*
X100714285Y-69900000D01*
X100761904Y-69947619D01*
X100809523Y-70042857D01*
X100809523Y-70138095D01*
X100761904Y-70280952D01*
X100190476Y-70852380D01*
X100809523Y-70852380D01*
%TO.C,D1*%
X72261904Y-68252380D02*
X72261904Y-67252380D01*
X72500000Y-67252380D01*
X72642857Y-67300000D01*
X72738095Y-67395238D01*
X72785714Y-67490476D01*
X72833333Y-67680952D01*
X72833333Y-67823809D01*
X72785714Y-68014285D01*
X72738095Y-68109523D01*
X72642857Y-68204761D01*
X72500000Y-68252380D01*
X72261904Y-68252380D01*
X73785714Y-68252380D02*
X73214285Y-68252380D01*
X73500000Y-68252380D02*
X73500000Y-67252380D01*
X73404761Y-67395238D01*
X73309523Y-67490476D01*
X73214285Y-67538095D01*
%TO.C,BZ1*%
X64469047Y-127928571D02*
X64611904Y-127976190D01*
X64659523Y-128023809D01*
X64707142Y-128119047D01*
X64707142Y-128261904D01*
X64659523Y-128357142D01*
X64611904Y-128404761D01*
X64516666Y-128452380D01*
X64135714Y-128452380D01*
X64135714Y-127452380D01*
X64469047Y-127452380D01*
X64564285Y-127500000D01*
X64611904Y-127547619D01*
X64659523Y-127642857D01*
X64659523Y-127738095D01*
X64611904Y-127833333D01*
X64564285Y-127880952D01*
X64469047Y-127928571D01*
X64135714Y-127928571D01*
X65040476Y-127452380D02*
X65707142Y-127452380D01*
X65040476Y-128452380D01*
X65707142Y-128452380D01*
X66611904Y-128452380D02*
X66040476Y-128452380D01*
X66326190Y-128452380D02*
X66326190Y-127452380D01*
X66230952Y-127595238D01*
X66135714Y-127690476D01*
X66040476Y-127738095D01*
X61719047Y-133271428D02*
X62480952Y-133271428D01*
X62100000Y-133652380D02*
X62100000Y-132890476D01*
%TO.C,SW1*%
X77066666Y-50804761D02*
X77209523Y-50852380D01*
X77447619Y-50852380D01*
X77542857Y-50804761D01*
X77590476Y-50757142D01*
X77638095Y-50661904D01*
X77638095Y-50566666D01*
X77590476Y-50471428D01*
X77542857Y-50423809D01*
X77447619Y-50376190D01*
X77257142Y-50328571D01*
X77161904Y-50280952D01*
X77114285Y-50233333D01*
X77066666Y-50138095D01*
X77066666Y-50042857D01*
X77114285Y-49947619D01*
X77161904Y-49900000D01*
X77257142Y-49852380D01*
X77495238Y-49852380D01*
X77638095Y-49900000D01*
X77971428Y-49852380D02*
X78209523Y-50852380D01*
X78400000Y-50138095D01*
X78590476Y-50852380D01*
X78828571Y-49852380D01*
X79733333Y-50852380D02*
X79161904Y-50852380D01*
X79447619Y-50852380D02*
X79447619Y-49852380D01*
X79352380Y-49995238D01*
X79257142Y-50090476D01*
X79161904Y-50138095D01*
%TO.C,J9*%
X80666666Y-143452380D02*
X80666666Y-144166666D01*
X80619047Y-144309523D01*
X80523809Y-144404761D01*
X80380952Y-144452380D01*
X80285714Y-144452380D01*
X81190476Y-144452380D02*
X81380952Y-144452380D01*
X81476190Y-144404761D01*
X81523809Y-144357142D01*
X81619047Y-144214285D01*
X81666666Y-144023809D01*
X81666666Y-143642857D01*
X81619047Y-143547619D01*
X81571428Y-143500000D01*
X81476190Y-143452380D01*
X81285714Y-143452380D01*
X81190476Y-143500000D01*
X81142857Y-143547619D01*
X81095238Y-143642857D01*
X81095238Y-143880952D01*
X81142857Y-143976190D01*
X81190476Y-144023809D01*
X81285714Y-144071428D01*
X81476190Y-144071428D01*
X81571428Y-144023809D01*
X81619047Y-143976190D01*
X81666666Y-143880952D01*
%TO.C,J12*%
X87790476Y-132942380D02*
X87790476Y-133656666D01*
X87742857Y-133799523D01*
X87647619Y-133894761D01*
X87504761Y-133942380D01*
X87409523Y-133942380D01*
X88790476Y-133942380D02*
X88219047Y-133942380D01*
X88504761Y-133942380D02*
X88504761Y-132942380D01*
X88409523Y-133085238D01*
X88314285Y-133180476D01*
X88219047Y-133228095D01*
X89171428Y-133037619D02*
X89219047Y-132990000D01*
X89314285Y-132942380D01*
X89552380Y-132942380D01*
X89647619Y-132990000D01*
X89695238Y-133037619D01*
X89742857Y-133132857D01*
X89742857Y-133228095D01*
X89695238Y-133370952D01*
X89123809Y-133942380D01*
X89742857Y-133942380D01*
%TO.C,C4*%
X110333333Y-110157142D02*
X110285714Y-110204761D01*
X110142857Y-110252380D01*
X110047619Y-110252380D01*
X109904761Y-110204761D01*
X109809523Y-110109523D01*
X109761904Y-110014285D01*
X109714285Y-109823809D01*
X109714285Y-109680952D01*
X109761904Y-109490476D01*
X109809523Y-109395238D01*
X109904761Y-109300000D01*
X110047619Y-109252380D01*
X110142857Y-109252380D01*
X110285714Y-109300000D01*
X110333333Y-109347619D01*
X111190476Y-109585714D02*
X111190476Y-110252380D01*
X110952380Y-109204761D02*
X110714285Y-109919047D01*
X111333333Y-109919047D01*
%TO.C,R5*%
X74808333Y-119022380D02*
X74475000Y-118546190D01*
X74236904Y-119022380D02*
X74236904Y-118022380D01*
X74617857Y-118022380D01*
X74713095Y-118070000D01*
X74760714Y-118117619D01*
X74808333Y-118212857D01*
X74808333Y-118355714D01*
X74760714Y-118450952D01*
X74713095Y-118498571D01*
X74617857Y-118546190D01*
X74236904Y-118546190D01*
X75713095Y-118022380D02*
X75236904Y-118022380D01*
X75189285Y-118498571D01*
X75236904Y-118450952D01*
X75332142Y-118403333D01*
X75570238Y-118403333D01*
X75665476Y-118450952D01*
X75713095Y-118498571D01*
X75760714Y-118593809D01*
X75760714Y-118831904D01*
X75713095Y-118927142D01*
X75665476Y-118974761D01*
X75570238Y-119022380D01*
X75332142Y-119022380D01*
X75236904Y-118974761D01*
X75189285Y-118927142D01*
%TO.C,J5*%
X111066666Y-113052380D02*
X111066666Y-113766666D01*
X111019047Y-113909523D01*
X110923809Y-114004761D01*
X110780952Y-114052380D01*
X110685714Y-114052380D01*
X112019047Y-113052380D02*
X111542857Y-113052380D01*
X111495238Y-113528571D01*
X111542857Y-113480952D01*
X111638095Y-113433333D01*
X111876190Y-113433333D01*
X111971428Y-113480952D01*
X112019047Y-113528571D01*
X112066666Y-113623809D01*
X112066666Y-113861904D01*
X112019047Y-113957142D01*
X111971428Y-114004761D01*
X111876190Y-114052380D01*
X111638095Y-114052380D01*
X111542857Y-114004761D01*
X111495238Y-113957142D01*
%TO.C,C3*%
X118783333Y-74007142D02*
X118735714Y-74054761D01*
X118592857Y-74102380D01*
X118497619Y-74102380D01*
X118354761Y-74054761D01*
X118259523Y-73959523D01*
X118211904Y-73864285D01*
X118164285Y-73673809D01*
X118164285Y-73530952D01*
X118211904Y-73340476D01*
X118259523Y-73245238D01*
X118354761Y-73150000D01*
X118497619Y-73102380D01*
X118592857Y-73102380D01*
X118735714Y-73150000D01*
X118783333Y-73197619D01*
X119116666Y-73102380D02*
X119735714Y-73102380D01*
X119402380Y-73483333D01*
X119545238Y-73483333D01*
X119640476Y-73530952D01*
X119688095Y-73578571D01*
X119735714Y-73673809D01*
X119735714Y-73911904D01*
X119688095Y-74007142D01*
X119640476Y-74054761D01*
X119545238Y-74102380D01*
X119259523Y-74102380D01*
X119164285Y-74054761D01*
X119116666Y-74007142D01*
%TO.C,C1*%
X89233333Y-68357142D02*
X89185714Y-68404761D01*
X89042857Y-68452380D01*
X88947619Y-68452380D01*
X88804761Y-68404761D01*
X88709523Y-68309523D01*
X88661904Y-68214285D01*
X88614285Y-68023809D01*
X88614285Y-67880952D01*
X88661904Y-67690476D01*
X88709523Y-67595238D01*
X88804761Y-67500000D01*
X88947619Y-67452380D01*
X89042857Y-67452380D01*
X89185714Y-67500000D01*
X89233333Y-67547619D01*
X90185714Y-68452380D02*
X89614285Y-68452380D01*
X89900000Y-68452380D02*
X89900000Y-67452380D01*
X89804761Y-67595238D01*
X89709523Y-67690476D01*
X89614285Y-67738095D01*
%TO.C,R1*%
X72833333Y-63752380D02*
X72500000Y-63276190D01*
X72261904Y-63752380D02*
X72261904Y-62752380D01*
X72642857Y-62752380D01*
X72738095Y-62800000D01*
X72785714Y-62847619D01*
X72833333Y-62942857D01*
X72833333Y-63085714D01*
X72785714Y-63180952D01*
X72738095Y-63228571D01*
X72642857Y-63276190D01*
X72261904Y-63276190D01*
X73785714Y-63752380D02*
X73214285Y-63752380D01*
X73500000Y-63752380D02*
X73500000Y-62752380D01*
X73404761Y-62895238D01*
X73309523Y-62990476D01*
X73214285Y-63038095D01*
%TO.C,J6*%
X121166666Y-113052380D02*
X121166666Y-113766666D01*
X121119047Y-113909523D01*
X121023809Y-114004761D01*
X120880952Y-114052380D01*
X120785714Y-114052380D01*
X122071428Y-113052380D02*
X121880952Y-113052380D01*
X121785714Y-113100000D01*
X121738095Y-113147619D01*
X121642857Y-113290476D01*
X121595238Y-113480952D01*
X121595238Y-113861904D01*
X121642857Y-113957142D01*
X121690476Y-114004761D01*
X121785714Y-114052380D01*
X121976190Y-114052380D01*
X122071428Y-114004761D01*
X122119047Y-113957142D01*
X122166666Y-113861904D01*
X122166666Y-113623809D01*
X122119047Y-113528571D01*
X122071428Y-113480952D01*
X121976190Y-113433333D01*
X121785714Y-113433333D01*
X121690476Y-113480952D01*
X121642857Y-113528571D01*
X121595238Y-113623809D01*
D10*
%TO.C,C6*%
X95890580Y-83510000D02*
X95609420Y-83510000D01*
X95890580Y-82490000D02*
X95609420Y-82490000D01*
%TO.C,J13*%
X112730000Y-142150000D02*
X112730000Y-145750000D01*
X112730000Y-137150000D02*
X112730000Y-140750000D01*
X110100000Y-144750000D02*
X110100000Y-148350000D01*
X110070000Y-134930000D02*
X110070000Y-135600000D01*
X112730000Y-134930000D02*
X112730000Y-135600000D01*
X112730000Y-147250000D02*
X112730000Y-150850000D01*
X110070000Y-139650000D02*
X110070000Y-143250000D01*
X110070000Y-134930000D02*
X112730000Y-134930000D01*
X113940000Y-135600000D02*
X112730000Y-135600000D01*
X110100000Y-149850000D02*
X110100000Y-153450000D01*
X110070000Y-135600000D02*
X110070000Y-138050000D01*
X112750000Y-152350000D02*
X112750000Y-155570000D01*
X110070000Y-155570000D02*
X112730000Y-155570000D01*
%TO.C,J3*%
X90600000Y-119490000D02*
X90600000Y-120510000D01*
X85400000Y-122600000D02*
X90600000Y-122600000D01*
X85400000Y-117400000D02*
X90600000Y-117400000D01*
X85400000Y-117400000D02*
X85400000Y-117970000D01*
X85400000Y-122030000D02*
X85400000Y-122600000D01*
X90600000Y-122030000D02*
X90600000Y-122600000D01*
X85400000Y-119490000D02*
X85400000Y-120510000D01*
X83960000Y-117970000D02*
X85400000Y-117970000D01*
X90600000Y-117400000D02*
X90600000Y-117970000D01*
%TO.C,R6*%
X111762742Y-96822500D02*
X112237258Y-96822500D01*
X111762742Y-95777500D02*
X112237258Y-95777500D01*
%TO.C,R3*%
X91727064Y-107035000D02*
X91272936Y-107035000D01*
X91727064Y-105565000D02*
X91272936Y-105565000D01*
%TO.C,U1*%
X121765000Y-89780000D02*
X121765000Y-110220000D01*
X128235000Y-110220000D02*
X128235000Y-89780000D01*
X128235000Y-89780000D02*
X126000000Y-89780000D01*
X121765000Y-110220000D02*
X128235000Y-110220000D01*
X124000000Y-89780000D02*
X121765000Y-89780000D01*
X124000000Y-89780000D02*
G75*
G03*
X126000000Y-89780000I1000000J0D01*
G01*
%TO.C,U3*%
X78235000Y-89780000D02*
X76000000Y-89780000D01*
X78235000Y-110220000D02*
X78235000Y-89780000D01*
X74000000Y-89780000D02*
X71765000Y-89780000D01*
X71765000Y-110220000D02*
X78235000Y-110220000D01*
X71765000Y-89780000D02*
X71765000Y-110220000D01*
X74000000Y-89780000D02*
G75*
G03*
X76000000Y-89780000I1000000J0D01*
G01*
D13*
%TO.C,U4*%
X94873476Y-100000000D02*
X95103286Y-100229810D01*
X94873476Y-100000000D02*
X95103286Y-99770190D01*
X100000000Y-94873476D02*
X100229810Y-95103286D01*
X100000000Y-105126524D02*
X100229810Y-104896714D01*
X104967425Y-99840901D02*
X105975052Y-98833274D01*
X105126524Y-100000000D02*
X104896714Y-100229810D01*
X105126524Y-100000000D02*
X104967425Y-99840901D01*
X100000000Y-105126524D02*
X99770190Y-104896714D01*
X100000000Y-94873476D02*
X99770190Y-95103286D01*
D10*
%TO.C,Y1*%
X106700000Y-85450000D02*
X94100000Y-85450000D01*
X106700000Y-90550000D02*
X106700000Y-85450000D01*
X94100000Y-90550000D02*
X106700000Y-90550000D01*
%TO.C,C5*%
X104109420Y-82490000D02*
X104390580Y-82490000D01*
X104109420Y-83510000D02*
X104390580Y-83510000D01*
%TO.C,D2*%
X113685000Y-93360000D02*
X113685000Y-91440000D01*
X113685000Y-91440000D02*
X111000000Y-91440000D01*
X111000000Y-93360000D02*
X113685000Y-93360000D01*
%TO.C,R4*%
X88227064Y-95265000D02*
X87772936Y-95265000D01*
X88227064Y-96735000D02*
X87772936Y-96735000D01*
%TO.C,R2*%
X87214564Y-105565000D02*
X86760436Y-105565000D01*
X87214564Y-107035000D02*
X86760436Y-107035000D01*
%TO.C,J16*%
X78100000Y-76380000D02*
X83300000Y-76380000D01*
X78100000Y-81010000D02*
X78100000Y-82030000D01*
X83300000Y-76380000D02*
X83300000Y-76950000D01*
X78100000Y-83550000D02*
X78100000Y-84120000D01*
X78100000Y-76380000D02*
X78100000Y-76950000D01*
X83300000Y-83550000D02*
X83300000Y-84120000D01*
X83300000Y-81010000D02*
X83300000Y-82030000D01*
X78100000Y-84120000D02*
X83300000Y-84120000D01*
X78100000Y-78470000D02*
X78100000Y-79490000D01*
X83300000Y-78470000D02*
X83300000Y-79490000D01*
X76660000Y-76950000D02*
X78100000Y-76950000D01*
%TO.C,C2*%
X109410000Y-68711252D02*
X109410000Y-67288748D01*
X107590000Y-68711252D02*
X107590000Y-67288748D01*
%TO.C,U2*%
X94880000Y-69371000D02*
X105120000Y-69371000D01*
X98150000Y-64730000D02*
X98150000Y-66240000D01*
X101851000Y-64730000D02*
X101851000Y-66240000D01*
X94880000Y-66240000D02*
X105120000Y-66240000D01*
X105120000Y-64730000D02*
X105120000Y-69371000D01*
X94880000Y-64730000D02*
X94880000Y-69371000D01*
X94880000Y-64730000D02*
X105120000Y-64730000D01*
%TO.C,D1*%
X71315000Y-70660000D02*
X74000000Y-70660000D01*
X71315000Y-68740000D02*
X71315000Y-70660000D01*
X74000000Y-68740000D02*
X71315000Y-68740000D01*
%TO.C,BZ1*%
X71450000Y-135000000D02*
G75*
G03*
X71450000Y-135000000I-6100000J0D01*
G01*
%TO.C,SW1*%
X80350000Y-60600000D02*
X76550000Y-60600000D01*
X80350000Y-59200000D02*
X80350000Y-60600000D01*
X80350000Y-51400000D02*
X80350000Y-52800000D01*
X80350000Y-57800000D02*
X80350000Y-56700000D01*
X80350000Y-55300000D02*
X80350000Y-54200000D01*
X80350000Y-56700000D02*
X80350000Y-56700000D01*
X76550000Y-60600000D02*
X76550000Y-51400000D01*
X76550000Y-51400000D02*
X80350000Y-51400000D01*
X80350000Y-54200000D02*
X80350000Y-54200000D01*
%TO.C,J9*%
X79210000Y-139960000D02*
X79210000Y-141400000D01*
X77690000Y-146600000D02*
X77120000Y-146600000D01*
X79780000Y-146600000D02*
X79210000Y-146600000D01*
X77690000Y-141400000D02*
X77120000Y-141400000D01*
X79780000Y-141400000D02*
X79780000Y-146600000D01*
X79780000Y-141400000D02*
X79210000Y-141400000D01*
X77120000Y-141400000D02*
X77120000Y-146600000D01*
%TO.C,J12*%
X89930000Y-154900000D02*
X89930000Y-155570000D01*
X87270000Y-147280000D02*
X87270000Y-150840000D01*
X89930000Y-139660000D02*
X89930000Y-143220000D01*
X89930000Y-144740000D02*
X89930000Y-148300000D01*
X87270000Y-142200000D02*
X87270000Y-145760000D01*
X87270000Y-137120000D02*
X87270000Y-140680000D01*
X87270000Y-155570000D02*
X89930000Y-155570000D01*
X87270000Y-152360000D02*
X87270000Y-155570000D01*
X89930000Y-149820000D02*
X89930000Y-153380000D01*
X86060000Y-135600000D02*
X87270000Y-135600000D01*
X87270000Y-134930000D02*
X87270000Y-135600000D01*
X87270000Y-134930000D02*
X89930000Y-134930000D01*
X89930000Y-134930000D02*
X89930000Y-138140000D01*
%TO.C,C4*%
X107750000Y-104690000D02*
X107750000Y-105190000D01*
X109304437Y-104240000D02*
X112760000Y-104240000D01*
X112760000Y-108760000D02*
X112760000Y-107560000D01*
X107500000Y-104940000D02*
X108000000Y-104940000D01*
X108240000Y-105304437D02*
X109304437Y-104240000D01*
X108240000Y-105304437D02*
X108240000Y-105440000D01*
X108240000Y-107695563D02*
X109304437Y-108760000D01*
X108240000Y-107695563D02*
X108240000Y-107560000D01*
X112760000Y-104240000D02*
X112760000Y-105440000D01*
X109304437Y-108760000D02*
X112760000Y-108760000D01*
%TO.C,R5*%
X74737742Y-120522500D02*
X75212258Y-120522500D01*
X74737742Y-119477500D02*
X75212258Y-119477500D01*
%TO.C,J5*%
X112750000Y-128090000D02*
X112750000Y-124530000D01*
X110090000Y-130180000D02*
X110090000Y-127070000D01*
X110090000Y-125550000D02*
X110090000Y-121990000D01*
X112750000Y-117930000D02*
X112750000Y-114820000D01*
X110090000Y-120470000D02*
X110090000Y-116910000D01*
X112750000Y-123010000D02*
X112750000Y-119450000D01*
X110090000Y-115390000D02*
X110090000Y-114820000D01*
X112750000Y-114820000D02*
X110090000Y-114820000D01*
X112750000Y-129610000D02*
X114270000Y-129610000D01*
X112750000Y-130180000D02*
X112750000Y-129610000D01*
X112750000Y-130180000D02*
X110090000Y-130180000D01*
%TO.C,C3*%
X114512500Y-76152500D02*
X115300000Y-76152500D01*
X122360000Y-81410000D02*
X122360000Y-79060000D01*
X115540000Y-80345563D02*
X115540000Y-79060000D01*
X115540000Y-80345563D02*
X116604437Y-81410000D01*
X122360000Y-74590000D02*
X122360000Y-76940000D01*
X115540000Y-75654437D02*
X115540000Y-76940000D01*
X116604437Y-81410000D02*
X122360000Y-81410000D01*
X116604437Y-74590000D02*
X122360000Y-74590000D01*
X114906250Y-75758750D02*
X114906250Y-76546250D01*
X115540000Y-75654437D02*
X116604437Y-74590000D01*
%TO.C,C1*%
X90590000Y-67288748D02*
X90590000Y-68711252D01*
X92410000Y-67288748D02*
X92410000Y-68711252D01*
%TO.C,R1*%
X73237258Y-65522500D02*
X72762742Y-65522500D01*
X73237258Y-64477500D02*
X72762742Y-64477500D01*
%TO.C,REF\u002A\u002A*%
X98100000Y-64550000D02*
X106300000Y-56350000D01*
X106000000Y-64550000D02*
X112000000Y-58550000D01*
X102000000Y-64550000D02*
X110200000Y-56350000D01*
X88000000Y-56300000D02*
X112000000Y-56300000D01*
X112000000Y-64550000D02*
X88000000Y-64550000D01*
X88000000Y-58550000D02*
X90100000Y-56350000D01*
X108000000Y-64550000D02*
X112000000Y-60550000D01*
X94000000Y-64550000D02*
X102200000Y-56350000D01*
X112000000Y-56300000D02*
X112000000Y-72300000D01*
X92000000Y-64550000D02*
X100200000Y-56350000D01*
X88000000Y-56300000D02*
X88000000Y-72300000D01*
X100000000Y-64550000D02*
X108200000Y-56350000D01*
X90000000Y-64550000D02*
X98200000Y-56350000D01*
X104000000Y-64550000D02*
X112000000Y-56550000D01*
X110000000Y-64550000D02*
X112000000Y-62550000D01*
X88000000Y-62550000D02*
X94200000Y-56350000D01*
X96000000Y-64550000D02*
X104200000Y-56350000D01*
X88000000Y-64550000D02*
X96200000Y-56350000D01*
X88000000Y-60550000D02*
X92100000Y-56350000D01*
X88000000Y-56550000D02*
X88200000Y-56350000D01*
%TO.C,J6*%
X122830000Y-119450000D02*
X122830000Y-123010000D01*
X120170000Y-114820000D02*
X122830000Y-114820000D01*
X122830000Y-129610000D02*
X122830000Y-130180000D01*
X120170000Y-116910000D02*
X120170000Y-120470000D01*
X120170000Y-121990000D02*
X120170000Y-125550000D01*
X120170000Y-114820000D02*
X120170000Y-115390000D01*
X120170000Y-115390000D02*
X118650000Y-115390000D01*
X120170000Y-127070000D02*
X120170000Y-130180000D01*
X122830000Y-124530000D02*
X122830000Y-128090000D01*
X122830000Y-114820000D02*
X122830000Y-117930000D01*
X120170000Y-130180000D02*
X122830000Y-130180000D01*
%TO.C,G\u002A\u002A\u002A*%
G36*
X100118664Y-143309945D02*
G01*
X100138090Y-143338082D01*
X100184417Y-143412085D01*
X100255970Y-143529142D01*
X100351072Y-143686440D01*
X100468050Y-143881168D01*
X100605229Y-144110515D01*
X100760933Y-144371669D01*
X100933488Y-144661817D01*
X101121219Y-144978149D01*
X101322451Y-145317853D01*
X101535508Y-145678116D01*
X101758717Y-146056128D01*
X101990402Y-146449077D01*
X102141947Y-146706411D01*
X102422771Y-147183508D01*
X102676321Y-147614430D01*
X102903943Y-148001652D01*
X103106980Y-148347650D01*
X103286778Y-148654900D01*
X103444681Y-148925877D01*
X103582035Y-149163058D01*
X103700184Y-149368919D01*
X103800473Y-149545934D01*
X103884248Y-149696580D01*
X103952852Y-149823332D01*
X104007631Y-149928666D01*
X104049930Y-150015059D01*
X104081094Y-150084985D01*
X104102467Y-150140921D01*
X104115395Y-150185343D01*
X104121222Y-150220725D01*
X104121293Y-150249544D01*
X104116954Y-150274276D01*
X104109548Y-150297396D01*
X104102585Y-150315702D01*
X104072828Y-150348055D01*
X104005414Y-150402081D01*
X103911151Y-150470519D01*
X103800847Y-150546105D01*
X103685307Y-150621578D01*
X103575340Y-150689673D01*
X103481752Y-150743129D01*
X103425769Y-150770544D01*
X103333344Y-150788971D01*
X103231839Y-150779736D01*
X103145474Y-150746899D01*
X103111184Y-150717795D01*
X103093557Y-150688995D01*
X103049693Y-150614561D01*
X102981497Y-150497782D01*
X102890876Y-150341953D01*
X102779734Y-150150365D01*
X102649978Y-149926310D01*
X102503513Y-149673082D01*
X102342245Y-149393971D01*
X102168080Y-149092272D01*
X101982923Y-148771275D01*
X101788680Y-148434273D01*
X101637157Y-148171222D01*
X101436840Y-147823825D01*
X101243665Y-147489712D01*
X101059581Y-147172203D01*
X100886538Y-146874622D01*
X100726484Y-146600288D01*
X100581366Y-146352523D01*
X100453135Y-146134650D01*
X100343739Y-145949989D01*
X100255126Y-145801862D01*
X100189245Y-145693590D01*
X100148044Y-145628495D01*
X100134568Y-145610056D01*
X100046764Y-145566526D01*
X99951064Y-145571107D01*
X99867317Y-145622755D01*
X99865988Y-145624167D01*
X99843895Y-145657057D01*
X99795662Y-145735531D01*
X99723258Y-145856224D01*
X99628652Y-146015771D01*
X99513812Y-146210808D01*
X99380707Y-146437971D01*
X99231306Y-146693895D01*
X99067578Y-146975216D01*
X98891491Y-147278569D01*
X98705014Y-147600590D01*
X98510116Y-147937914D01*
X98375564Y-148171222D01*
X98176116Y-148516920D01*
X97983759Y-148849560D01*
X97800462Y-149165779D01*
X97628194Y-149462213D01*
X97468925Y-149735500D01*
X97324623Y-149982276D01*
X97197259Y-150199178D01*
X97088801Y-150382842D01*
X97001219Y-150529904D01*
X96936482Y-150637002D01*
X96896559Y-150700771D01*
X96884662Y-150717594D01*
X96806091Y-150770661D01*
X96708715Y-150798568D01*
X96620122Y-150793807D01*
X96613333Y-150791447D01*
X96557435Y-150763516D01*
X96469596Y-150712358D01*
X96361529Y-150645589D01*
X96244944Y-150570825D01*
X96131551Y-150495683D01*
X96033062Y-150427777D01*
X95961187Y-150374725D01*
X95929572Y-150346765D01*
X95912040Y-150326248D01*
X95896655Y-150306946D01*
X95884716Y-150286409D01*
X95877522Y-150262189D01*
X95876373Y-150231835D01*
X95882568Y-150192897D01*
X95897407Y-150142927D01*
X95922188Y-150079474D01*
X95958212Y-150000089D01*
X96006777Y-149902323D01*
X96069183Y-149783725D01*
X96146730Y-149641847D01*
X96240716Y-149474238D01*
X96352442Y-149278449D01*
X96483206Y-149052031D01*
X96634308Y-148792533D01*
X96807047Y-148497507D01*
X97002723Y-148164502D01*
X97222635Y-147791069D01*
X97468082Y-147374759D01*
X97740364Y-146913122D01*
X97845437Y-146734971D01*
X98081354Y-146335193D01*
X98310004Y-145948194D01*
X98529687Y-145576826D01*
X98738705Y-145223942D01*
X98935360Y-144892395D01*
X99117952Y-144585038D01*
X99284782Y-144304723D01*
X99434152Y-144054303D01*
X99564363Y-143836632D01*
X99673716Y-143654561D01*
X99760512Y-143510944D01*
X99823052Y-143408634D01*
X99859637Y-143350483D01*
X99868246Y-143338167D01*
X99946179Y-143287276D01*
X100037956Y-143277400D01*
X100118664Y-143309945D01*
G37*
D14*
X100118664Y-143309945D02*
X100138090Y-143338082D01*
X100184417Y-143412085D01*
X100255970Y-143529142D01*
X100351072Y-143686440D01*
X100468050Y-143881168D01*
X100605229Y-144110515D01*
X100760933Y-144371669D01*
X100933488Y-144661817D01*
X101121219Y-144978149D01*
X101322451Y-145317853D01*
X101535508Y-145678116D01*
X101758717Y-146056128D01*
X101990402Y-146449077D01*
X102141947Y-146706411D01*
X102422771Y-147183508D01*
X102676321Y-147614430D01*
X102903943Y-148001652D01*
X103106980Y-148347650D01*
X103286778Y-148654900D01*
X103444681Y-148925877D01*
X103582035Y-149163058D01*
X103700184Y-149368919D01*
X103800473Y-149545934D01*
X103884248Y-149696580D01*
X103952852Y-149823332D01*
X104007631Y-149928666D01*
X104049930Y-150015059D01*
X104081094Y-150084985D01*
X104102467Y-150140921D01*
X104115395Y-150185343D01*
X104121222Y-150220725D01*
X104121293Y-150249544D01*
X104116954Y-150274276D01*
X104109548Y-150297396D01*
X104102585Y-150315702D01*
X104072828Y-150348055D01*
X104005414Y-150402081D01*
X103911151Y-150470519D01*
X103800847Y-150546105D01*
X103685307Y-150621578D01*
X103575340Y-150689673D01*
X103481752Y-150743129D01*
X103425769Y-150770544D01*
X103333344Y-150788971D01*
X103231839Y-150779736D01*
X103145474Y-150746899D01*
X103111184Y-150717795D01*
X103093557Y-150688995D01*
X103049693Y-150614561D01*
X102981497Y-150497782D01*
X102890876Y-150341953D01*
X102779734Y-150150365D01*
X102649978Y-149926310D01*
X102503513Y-149673082D01*
X102342245Y-149393971D01*
X102168080Y-149092272D01*
X101982923Y-148771275D01*
X101788680Y-148434273D01*
X101637157Y-148171222D01*
X101436840Y-147823825D01*
X101243665Y-147489712D01*
X101059581Y-147172203D01*
X100886538Y-146874622D01*
X100726484Y-146600288D01*
X100581366Y-146352523D01*
X100453135Y-146134650D01*
X100343739Y-145949989D01*
X100255126Y-145801862D01*
X100189245Y-145693590D01*
X100148044Y-145628495D01*
X100134568Y-145610056D01*
X100046764Y-145566526D01*
X99951064Y-145571107D01*
X99867317Y-145622755D01*
X99865988Y-145624167D01*
X99843895Y-145657057D01*
X99795662Y-145735531D01*
X99723258Y-145856224D01*
X99628652Y-146015771D01*
X99513812Y-146210808D01*
X99380707Y-146437971D01*
X99231306Y-146693895D01*
X99067578Y-146975216D01*
X98891491Y-147278569D01*
X98705014Y-147600590D01*
X98510116Y-147937914D01*
X98375564Y-148171222D01*
X98176116Y-148516920D01*
X97983759Y-148849560D01*
X97800462Y-149165779D01*
X97628194Y-149462213D01*
X97468925Y-149735500D01*
X97324623Y-149982276D01*
X97197259Y-150199178D01*
X97088801Y-150382842D01*
X97001219Y-150529904D01*
X96936482Y-150637002D01*
X96896559Y-150700771D01*
X96884662Y-150717594D01*
X96806091Y-150770661D01*
X96708715Y-150798568D01*
X96620122Y-150793807D01*
X96613333Y-150791447D01*
X96557435Y-150763516D01*
X96469596Y-150712358D01*
X96361529Y-150645589D01*
X96244944Y-150570825D01*
X96131551Y-150495683D01*
X96033062Y-150427777D01*
X95961187Y-150374725D01*
X95929572Y-150346765D01*
X95912040Y-150326248D01*
X95896655Y-150306946D01*
X95884716Y-150286409D01*
X95877522Y-150262189D01*
X95876373Y-150231835D01*
X95882568Y-150192897D01*
X95897407Y-150142927D01*
X95922188Y-150079474D01*
X95958212Y-150000089D01*
X96006777Y-149902323D01*
X96069183Y-149783725D01*
X96146730Y-149641847D01*
X96240716Y-149474238D01*
X96352442Y-149278449D01*
X96483206Y-149052031D01*
X96634308Y-148792533D01*
X96807047Y-148497507D01*
X97002723Y-148164502D01*
X97222635Y-147791069D01*
X97468082Y-147374759D01*
X97740364Y-146913122D01*
X97845437Y-146734971D01*
X98081354Y-146335193D01*
X98310004Y-145948194D01*
X98529687Y-145576826D01*
X98738705Y-145223942D01*
X98935360Y-144892395D01*
X99117952Y-144585038D01*
X99284782Y-144304723D01*
X99434152Y-144054303D01*
X99564363Y-143836632D01*
X99673716Y-143654561D01*
X99760512Y-143510944D01*
X99823052Y-143408634D01*
X99859637Y-143350483D01*
X99868246Y-143338167D01*
X99946179Y-143287276D01*
X100037956Y-143277400D01*
X100118664Y-143309945D01*
%TO.C,kibuzzard-62AABCD0*%
G36*
X136205794Y-143858323D02*
G01*
X139794206Y-143858323D01*
X139794206Y-146141677D01*
X136205794Y-146141677D01*
X136205794Y-145627063D01*
X136864938Y-145627063D01*
X136894703Y-145697508D01*
X136970109Y-145728266D01*
X137049484Y-145697508D01*
X137083219Y-145627063D01*
X137083219Y-144801563D01*
X137355078Y-145365125D01*
X137397742Y-145411758D01*
X137458266Y-145426641D01*
X137518789Y-145411758D01*
X137561453Y-145365125D01*
X137835297Y-144801563D01*
X137835297Y-145627063D01*
X137868039Y-145697508D01*
X137946422Y-145728266D01*
X138021828Y-145697508D01*
X138053578Y-145627063D01*
X138053578Y-145601266D01*
X138263922Y-145601266D01*
X138294680Y-145677664D01*
X138375047Y-145708422D01*
X139027906Y-145708422D01*
X139104305Y-145679648D01*
X139135063Y-145609203D01*
X139104305Y-145538758D01*
X139027906Y-145509984D01*
X138533797Y-145509984D01*
X138625078Y-145382984D01*
X138738188Y-145265906D01*
X138798215Y-145208359D01*
X138859234Y-145150813D01*
X138919262Y-145092770D01*
X138976313Y-145033734D01*
X139036092Y-144959568D01*
X139084461Y-144875977D01*
X139116459Y-144778494D01*
X139127125Y-144662656D01*
X139098352Y-144509859D01*
X139014016Y-144385836D01*
X138879078Y-144302492D01*
X138794246Y-144279424D01*
X138698500Y-144271734D01*
X138571500Y-144283641D01*
X138435570Y-144319359D01*
X138327422Y-144377898D01*
X138283766Y-144458266D01*
X138316508Y-144528711D01*
X138388938Y-144555500D01*
X138453430Y-144535656D01*
X138517922Y-144499938D01*
X138600273Y-144475133D01*
X138696516Y-144466203D01*
X138790525Y-144482078D01*
X138858242Y-144529703D01*
X138899170Y-144600148D01*
X138912813Y-144684484D01*
X138884039Y-144804539D01*
X138811609Y-144911695D01*
X138715367Y-145007938D01*
X138617141Y-145097234D01*
X138518418Y-145193477D01*
X138424656Y-145291703D01*
X138342305Y-145397371D01*
X138277813Y-145515938D01*
X138265906Y-145558602D01*
X138263922Y-145601266D01*
X138053578Y-145601266D01*
X138053578Y-144398734D01*
X138020836Y-144322336D01*
X137940469Y-144291578D01*
X137876969Y-144305469D01*
X137829344Y-144353094D01*
X137460250Y-145121047D01*
X137089172Y-144355078D01*
X136978047Y-144291578D01*
X136896687Y-144322336D01*
X136864938Y-144398734D01*
X136864938Y-145627063D01*
X136205794Y-145627063D01*
X136205794Y-143858323D01*
G37*
%TO.C,kibuzzard-62AABCF4*%
G36*
X60205794Y-143860307D02*
G01*
X63794206Y-143860307D01*
X63794206Y-146139693D01*
X60205794Y-146139693D01*
X60205794Y-145625078D01*
X60835172Y-145625078D01*
X60864937Y-145695523D01*
X60940344Y-145726281D01*
X61019719Y-145695523D01*
X61053453Y-145625078D01*
X61053453Y-144799578D01*
X61325312Y-145363141D01*
X61367977Y-145409773D01*
X61428500Y-145424656D01*
X61489023Y-145409773D01*
X61531687Y-145363141D01*
X61805531Y-144799578D01*
X61805531Y-145625078D01*
X61838273Y-145695523D01*
X61916656Y-145726281D01*
X61992062Y-145695523D01*
X62023813Y-145625078D01*
X62023813Y-145313531D01*
X62214312Y-145313531D01*
X62245070Y-145389930D01*
X62325437Y-145422672D01*
X62791766Y-145422672D01*
X62791766Y-145623094D01*
X62822523Y-145695523D01*
X62898922Y-145724297D01*
X62975320Y-145695523D01*
X63006078Y-145623094D01*
X63006078Y-145422672D01*
X63061641Y-145422672D01*
X63135062Y-145393898D01*
X63164828Y-145323453D01*
X63135062Y-145254000D01*
X63061641Y-145224234D01*
X63006078Y-145224234D01*
X63006078Y-144878953D01*
X62974328Y-144806523D01*
X62898922Y-144777750D01*
X62822523Y-144806523D01*
X62791766Y-144878953D01*
X62791766Y-145224234D01*
X62470297Y-145224234D01*
X62510977Y-145127000D01*
X62570508Y-144984125D01*
X62604242Y-144903014D01*
X62675680Y-144733846D01*
X62709414Y-144652734D01*
X62768945Y-144509859D01*
X62809625Y-144412625D01*
X62814586Y-144393773D01*
X62815578Y-144376906D01*
X62781844Y-144304477D01*
X62708422Y-144273719D01*
X62651867Y-144290586D01*
X62613172Y-144335234D01*
X62232172Y-145252016D01*
X62218281Y-145287734D01*
X62214312Y-145313531D01*
X62023813Y-145313531D01*
X62023813Y-144396750D01*
X61991070Y-144320352D01*
X61910703Y-144289594D01*
X61847203Y-144303484D01*
X61799578Y-144351109D01*
X61430484Y-145119063D01*
X61059406Y-144353094D01*
X60948281Y-144289594D01*
X60866922Y-144320352D01*
X60835172Y-144396750D01*
X60835172Y-145625078D01*
X60205794Y-145625078D01*
X60205794Y-143860307D01*
G37*
%TO.C,kibuzzard-62AABC73*%
G36*
X60205794Y-54368245D02*
G01*
X63794206Y-54368245D01*
X63794206Y-56631755D01*
X60205794Y-56631755D01*
X60205794Y-56117141D01*
X60870891Y-56117141D01*
X60900656Y-56187586D01*
X60976062Y-56218344D01*
X61055438Y-56187586D01*
X61089172Y-56117141D01*
X61089172Y-55291641D01*
X61361031Y-55855203D01*
X61403695Y-55901836D01*
X61464219Y-55916719D01*
X61524742Y-55901836D01*
X61567406Y-55855203D01*
X61841250Y-55291641D01*
X61841250Y-56117141D01*
X61873992Y-56187586D01*
X61952375Y-56218344D01*
X62027781Y-56187586D01*
X62059531Y-56117141D01*
X62059531Y-56047687D01*
X62283766Y-56047687D01*
X62333375Y-56134008D01*
X62449461Y-56184609D01*
X62581422Y-56208422D01*
X62680641Y-56214375D01*
X62791021Y-56203709D01*
X62884039Y-56171711D01*
X62960934Y-56123094D01*
X63022945Y-56062570D01*
X63070322Y-55992125D01*
X63103313Y-55913742D01*
X63122660Y-55832135D01*
X63129109Y-55752016D01*
X63101328Y-55597234D01*
X63024930Y-55477180D01*
X62907852Y-55396813D01*
X62758031Y-55359109D01*
X62833438Y-55264604D01*
X62984250Y-55078568D01*
X63059656Y-54984062D01*
X63085453Y-54910641D01*
X63050727Y-54828289D01*
X62970359Y-54797531D01*
X62416719Y-54797531D01*
X62340320Y-54833250D01*
X62309563Y-54904687D01*
X62340320Y-54976125D01*
X62416719Y-55005891D01*
X62795734Y-55005891D01*
X62470297Y-55416656D01*
X62463352Y-55441461D01*
X62460375Y-55470234D01*
X62487164Y-55536711D01*
X62553641Y-55565484D01*
X62582414Y-55562508D01*
X62605234Y-55554570D01*
X62630039Y-55546633D01*
X62664766Y-55543656D01*
X62762744Y-55556307D01*
X62842367Y-55594258D01*
X62895201Y-55661479D01*
X62912813Y-55761937D01*
X62899914Y-55854211D01*
X62857250Y-55938547D01*
X62776883Y-56000063D01*
X62652859Y-56023875D01*
X62565547Y-56011969D01*
X62496094Y-55986172D01*
X62437555Y-55960375D01*
X62384969Y-55948469D01*
X62312539Y-55978234D01*
X62283766Y-56047687D01*
X62059531Y-56047687D01*
X62059531Y-54888812D01*
X62026789Y-54812414D01*
X61946422Y-54781656D01*
X61882922Y-54795547D01*
X61835297Y-54843172D01*
X61466203Y-55611125D01*
X61095125Y-54845156D01*
X60984000Y-54781656D01*
X60902641Y-54812414D01*
X60870891Y-54888812D01*
X60870891Y-56117141D01*
X60205794Y-56117141D01*
X60205794Y-54368245D01*
G37*
%TO.C,G\u002A\u002A\u002A*%
G36*
X100182149Y-73501812D02*
G01*
X100193419Y-73507119D01*
X100202811Y-73515895D01*
X100207490Y-73523430D01*
X100212912Y-73534630D01*
X100203905Y-73591412D01*
X100201060Y-73609361D01*
X100197674Y-73630749D01*
X100193956Y-73654255D01*
X100190115Y-73678556D01*
X100186360Y-73702332D01*
X100183115Y-73722892D01*
X100179760Y-73744147D01*
X100175746Y-73769562D01*
X100171168Y-73798536D01*
X100166120Y-73830469D01*
X100160698Y-73864759D01*
X100154996Y-73900807D01*
X100149109Y-73938013D01*
X100143133Y-73975775D01*
X100137162Y-74013494D01*
X100131291Y-74050569D01*
X100126515Y-74080723D01*
X100123440Y-74100163D01*
X100119913Y-74122496D01*
X100116229Y-74145853D01*
X100112682Y-74168367D01*
X100109792Y-74186747D01*
X100107262Y-74202818D01*
X100104910Y-74217699D01*
X100102864Y-74230591D01*
X100101249Y-74240689D01*
X100100195Y-74247194D01*
X100099935Y-74248749D01*
X100098595Y-74256533D01*
X100330623Y-74257182D01*
X100562651Y-74257832D01*
X100571762Y-74263496D01*
X100581359Y-74272082D01*
X100587583Y-74283164D01*
X100590106Y-74295572D01*
X100588602Y-74308134D01*
X100586010Y-74314551D01*
X100583869Y-74318363D01*
X100579537Y-74325836D01*
X100573293Y-74336493D01*
X100565418Y-74349859D01*
X100556194Y-74365458D01*
X100545901Y-74382813D01*
X100534819Y-74401449D01*
X100528504Y-74412049D01*
X100518126Y-74429462D01*
X100505643Y-74450414D01*
X100491415Y-74474302D01*
X100475800Y-74500524D01*
X100459157Y-74528477D01*
X100441846Y-74557557D01*
X100424225Y-74587162D01*
X100406653Y-74616689D01*
X100389489Y-74645535D01*
X100380739Y-74660241D01*
X100364404Y-74687697D01*
X100347828Y-74715554D01*
X100331321Y-74743289D01*
X100315195Y-74770379D01*
X100299761Y-74796303D01*
X100285331Y-74820535D01*
X100272215Y-74842555D01*
X100260726Y-74861839D01*
X100251174Y-74877865D01*
X100245876Y-74886747D01*
X100235615Y-74903953D01*
X100223420Y-74924411D01*
X100209822Y-74947229D01*
X100195351Y-74971519D01*
X100180538Y-74996388D01*
X100165913Y-75020949D01*
X100152007Y-75044309D01*
X100148261Y-75050603D01*
X100134654Y-75073460D01*
X100120176Y-75097771D01*
X100105357Y-75122644D01*
X100090728Y-75147189D01*
X100076819Y-75170517D01*
X100064162Y-75191736D01*
X100053287Y-75209956D01*
X100050598Y-75214458D01*
X100039579Y-75232922D01*
X100026728Y-75254482D01*
X100012671Y-75278086D01*
X99998032Y-75302685D01*
X99983437Y-75327228D01*
X99969511Y-75350665D01*
X99960249Y-75366266D01*
X99949212Y-75384793D01*
X99938767Y-75402190D01*
X99929207Y-75417981D01*
X99920824Y-75431690D01*
X99913908Y-75442840D01*
X99908752Y-75450955D01*
X99905647Y-75455560D01*
X99905100Y-75456254D01*
X99894889Y-75464190D01*
X99882715Y-75468282D01*
X99869702Y-75468385D01*
X99856975Y-75464351D01*
X99854217Y-75462830D01*
X99843804Y-75454196D01*
X99837661Y-75443489D01*
X99835908Y-75433349D01*
X99836039Y-75429803D01*
X99836533Y-75423007D01*
X99837406Y-75412818D01*
X99838672Y-75399094D01*
X99840344Y-75381694D01*
X99842436Y-75360475D01*
X99844963Y-75335297D01*
X99847938Y-75306016D01*
X99851377Y-75272492D01*
X99855292Y-75234582D01*
X99859699Y-75192145D01*
X99863903Y-75151808D01*
X99865582Y-75135646D01*
X99867499Y-75117063D01*
X99869410Y-75098434D01*
X99870968Y-75083133D01*
X99872070Y-75072297D01*
X99873557Y-75057729D01*
X99875441Y-75039314D01*
X99877733Y-75016940D01*
X99880445Y-74990492D01*
X99883589Y-74959857D01*
X99887176Y-74924920D01*
X99891218Y-74885569D01*
X99895727Y-74841689D01*
X99900714Y-74793167D01*
X99902489Y-74775904D01*
X99904151Y-74759617D01*
X99905634Y-74744854D01*
X99906869Y-74732315D01*
X99907789Y-74722699D01*
X99908324Y-74716705D01*
X99908434Y-74715061D01*
X99907548Y-74714558D01*
X99904736Y-74714111D01*
X99899766Y-74713716D01*
X99892407Y-74713371D01*
X99882426Y-74713074D01*
X99869593Y-74712820D01*
X99853675Y-74712608D01*
X99834442Y-74712435D01*
X99811661Y-74712298D01*
X99785101Y-74712194D01*
X99754531Y-74712120D01*
X99719718Y-74712073D01*
X99680432Y-74712051D01*
X99659416Y-74712049D01*
X99410397Y-74712049D01*
X99399904Y-74706500D01*
X99389621Y-74698659D01*
X99382444Y-74688202D01*
X99379032Y-74676307D01*
X99379022Y-74669380D01*
X99379108Y-74668352D01*
X99379190Y-74667393D01*
X99379364Y-74666358D01*
X99379723Y-74665102D01*
X99380364Y-74663481D01*
X99381379Y-74661349D01*
X99382864Y-74658562D01*
X99384913Y-74654975D01*
X99387621Y-74650444D01*
X99391082Y-74644823D01*
X99395391Y-74637969D01*
X99400643Y-74629735D01*
X99406932Y-74619978D01*
X99414353Y-74608553D01*
X99423001Y-74595315D01*
X99432969Y-74580120D01*
X99444353Y-74562822D01*
X99457247Y-74543276D01*
X99471745Y-74521339D01*
X99487943Y-74496866D01*
X99505935Y-74469711D01*
X99525816Y-74439729D01*
X99547680Y-74406778D01*
X99571621Y-74370710D01*
X99597735Y-74331382D01*
X99626115Y-74288650D01*
X99656857Y-74242367D01*
X99690055Y-74192390D01*
X99725804Y-74138574D01*
X99733820Y-74126507D01*
X99777341Y-74060985D01*
X99818229Y-73999418D01*
X99856522Y-73941751D01*
X99892256Y-73887927D01*
X99925470Y-73837889D01*
X99956200Y-73791582D01*
X99984484Y-73748948D01*
X100010360Y-73709932D01*
X100033864Y-73674477D01*
X100055034Y-73642527D01*
X100073908Y-73614026D01*
X100090448Y-73589029D01*
X100101864Y-73571906D01*
X100112748Y-73555841D01*
X100122746Y-73541336D01*
X100131508Y-73528890D01*
X100138679Y-73519007D01*
X100143908Y-73512187D01*
X100146750Y-73509005D01*
X100157847Y-73502525D01*
X100169969Y-73500204D01*
X100182149Y-73501812D01*
G37*
%TO.C,kibuzzard-62AABDBD*%
G36*
X78905794Y-84913515D02*
G01*
X82494206Y-84913515D01*
X82494206Y-87086485D01*
X78905794Y-87086485D01*
X78905794Y-86590550D01*
X79554142Y-86590550D01*
X79584622Y-86659130D01*
X79658918Y-86689610D01*
X79733213Y-86659130D01*
X79763693Y-86590550D01*
X79763693Y-86527685D01*
X79963718Y-86527685D01*
X80004675Y-86601980D01*
X80103735Y-86651510D01*
X80227560Y-86679133D01*
X80342813Y-86687705D01*
X80434729Y-86681038D01*
X80519978Y-86661035D01*
X80596416Y-86627936D01*
X80655115Y-86586740D01*
X80988608Y-86586740D01*
X81020040Y-86659130D01*
X81093383Y-86689610D01*
X81167678Y-86658178D01*
X81198158Y-86586740D01*
X81198158Y-86194310D01*
X81388658Y-86194310D01*
X81488194Y-86187166D01*
X81577253Y-86165735D01*
X81655119Y-86130731D01*
X81721080Y-86082868D01*
X81774182Y-86021907D01*
X81813473Y-85947612D01*
X81837761Y-85861173D01*
X81845858Y-85763780D01*
X81839904Y-85679960D01*
X81822045Y-85599950D01*
X81790613Y-85526131D01*
X81743940Y-85460885D01*
X81681313Y-85406116D01*
X81602018Y-85363730D01*
X81504863Y-85336584D01*
X81388658Y-85327535D01*
X81108623Y-85327535D01*
X81023850Y-85361825D01*
X80988608Y-85441835D01*
X80988608Y-86586740D01*
X80655115Y-86586740D01*
X80661900Y-86581978D01*
X80715240Y-86523875D01*
X80755245Y-86454343D01*
X80780248Y-86373618D01*
X80788583Y-86281940D01*
X80763818Y-86139065D01*
X80698095Y-86040005D01*
X80604750Y-85973330D01*
X80495213Y-85925705D01*
X80380913Y-85886653D01*
X80276138Y-85843790D01*
X80244705Y-85825693D01*
X80214225Y-85796165D01*
X80190413Y-85750445D01*
X80180888Y-85683770D01*
X80198033Y-85597092D01*
X80244705Y-85541847D01*
X80312333Y-85513272D01*
X80390438Y-85504700D01*
X80471400Y-85512320D01*
X80531408Y-85530417D01*
X80580938Y-85548515D01*
X80628563Y-85556135D01*
X80705715Y-85527560D01*
X80733338Y-85460885D01*
X80692380Y-85383732D01*
X80594273Y-85338012D01*
X80477115Y-85316105D01*
X80379008Y-85310390D01*
X80260792Y-85321714D01*
X80160144Y-85355687D01*
X80077065Y-85412307D01*
X80015153Y-85488825D01*
X79978005Y-85582487D01*
X79965623Y-85693295D01*
X79990388Y-85839027D01*
X80056110Y-85939992D01*
X80150408Y-86007620D01*
X80260898Y-86054293D01*
X80374245Y-86092393D01*
X80478068Y-86133350D01*
X80539980Y-86183832D01*
X80571413Y-86295275D01*
X80557363Y-86379571D01*
X80515215Y-86441960D01*
X80444492Y-86480536D01*
X80344718Y-86493395D01*
X80243753Y-86483870D01*
X80166600Y-86461963D01*
X80107545Y-86440055D01*
X80060873Y-86430530D01*
X79991340Y-86460057D01*
X79963718Y-86527685D01*
X79763693Y-86527685D01*
X79763693Y-85409450D01*
X79733213Y-85339918D01*
X79658918Y-85310390D01*
X79584622Y-85339918D01*
X79554142Y-85409450D01*
X79554142Y-86590550D01*
X78905794Y-86590550D01*
X78905794Y-84913515D01*
G37*
G36*
X81512483Y-85544705D02*
G01*
X81587730Y-85598997D01*
X81625830Y-85675197D01*
X81636308Y-85761875D01*
X81620829Y-85866055D01*
X81574395Y-85940469D01*
X81497004Y-85985117D01*
X81388658Y-86000000D01*
X81198158Y-86000000D01*
X81198158Y-85523750D01*
X81388658Y-85523750D01*
X81512483Y-85544705D01*
G37*
%TO.C,kibuzzard-62AABC8F*%
G36*
X136205794Y-54368245D02*
G01*
X139794206Y-54368245D01*
X139794206Y-56631755D01*
X136205794Y-56631755D01*
X136205794Y-56117141D01*
X136967133Y-56117141D01*
X136996898Y-56187586D01*
X137072305Y-56218344D01*
X137151680Y-56187586D01*
X137185414Y-56117141D01*
X137185414Y-55291641D01*
X137457273Y-55855203D01*
X137499938Y-55901836D01*
X137560461Y-55916719D01*
X137620984Y-55901836D01*
X137663648Y-55855203D01*
X137937492Y-55291641D01*
X137937492Y-56117141D01*
X137970234Y-56187586D01*
X138048617Y-56218344D01*
X138124023Y-56187586D01*
X138155773Y-56117141D01*
X138155773Y-55128922D01*
X138413742Y-55128922D01*
X138445492Y-55197383D01*
X138510977Y-55220203D01*
X138563563Y-55208297D01*
X138614164Y-55180516D01*
X138814586Y-55053516D01*
X138814586Y-56113172D01*
X138846336Y-56184609D01*
X138923727Y-56216359D01*
X139001117Y-56184609D01*
X139032867Y-56113172D01*
X139032867Y-54890797D01*
X138999133Y-54813406D01*
X138915789Y-54781656D01*
X138885031Y-54785625D01*
X138854273Y-54799516D01*
X138461367Y-55039625D01*
X138413742Y-55128922D01*
X138155773Y-55128922D01*
X138155773Y-54888812D01*
X138123031Y-54812414D01*
X138042664Y-54781656D01*
X137979164Y-54795547D01*
X137931539Y-54843172D01*
X137562445Y-55611125D01*
X137191367Y-54845156D01*
X137080242Y-54781656D01*
X136998883Y-54812414D01*
X136967133Y-54888812D01*
X136967133Y-56117141D01*
X136205794Y-56117141D01*
X136205794Y-54368245D01*
G37*
%TO.C,kibuzzard-62AABD97*%
G36*
X80570423Y-118241847D02*
G01*
X80643765Y-118286615D01*
X80680913Y-118349480D01*
X80691390Y-118420917D01*
X80676626Y-118503071D01*
X80632335Y-118562840D01*
X80559945Y-118599273D01*
X80460885Y-118611417D01*
X80218950Y-118611417D01*
X80218950Y-118224702D01*
X80449455Y-118224702D01*
X80570423Y-118241847D01*
G37*
G36*
X79462109Y-117614467D02*
G01*
X82537891Y-117614467D01*
X82537891Y-119785533D01*
X79462109Y-119785533D01*
X79462109Y-119287692D01*
X80009400Y-119287692D01*
X80039880Y-119359130D01*
X80112270Y-119388658D01*
X80187518Y-119358178D01*
X80218950Y-119287692D01*
X80218950Y-118803822D01*
X80392305Y-118803822D01*
X80721870Y-119341032D01*
X80809500Y-119386753D01*
X80882843Y-119357225D01*
X80915339Y-119289597D01*
X81038100Y-119289597D01*
X81068580Y-119358178D01*
X81139065Y-119388658D01*
X81200025Y-119366750D01*
X81236220Y-119323887D01*
X81306467Y-119203872D01*
X81376238Y-119083858D01*
X81445532Y-118963843D01*
X81514350Y-118843827D01*
X81792480Y-119323887D01*
X81830580Y-119368655D01*
X81891540Y-119388658D01*
X81960120Y-119358178D01*
X81990600Y-119289597D01*
X81985838Y-119260070D01*
X81975360Y-119236257D01*
X81638175Y-118674282D01*
X81946785Y-118161837D01*
X81960120Y-118110402D01*
X81930593Y-118039917D01*
X81862965Y-118011342D01*
X81797243Y-118038012D01*
X81754380Y-118087542D01*
X81514350Y-118502832D01*
X81274320Y-118087542D01*
X81230505Y-118034202D01*
X81167640Y-118011342D01*
X81098108Y-118040870D01*
X81068580Y-118108497D01*
X81081915Y-118161837D01*
X81392430Y-118674282D01*
X81335492Y-118768051D01*
X81278977Y-118861396D01*
X81222885Y-118954317D01*
X81166793Y-119047451D01*
X81110278Y-119141431D01*
X81053340Y-119236257D01*
X81042863Y-119260070D01*
X81038100Y-119289597D01*
X80915339Y-119289597D01*
X80918085Y-119283883D01*
X80914275Y-119257212D01*
X80902845Y-119232448D01*
X80832360Y-119119338D01*
X80691390Y-118897882D01*
X80620905Y-118784772D01*
X80736872Y-118737624D01*
X80825693Y-118660947D01*
X80882128Y-118555220D01*
X80900940Y-118420917D01*
X80879033Y-118278042D01*
X80804738Y-118152312D01*
X80744254Y-118102306D01*
X80667578Y-118062777D01*
X80572566Y-118037060D01*
X80457075Y-118028487D01*
X80125605Y-118028487D01*
X80043690Y-118062777D01*
X80009400Y-118142787D01*
X80009400Y-119287692D01*
X79462109Y-119287692D01*
X79462109Y-117614467D01*
G37*
%TO.C,kibuzzard-62AABE10*%
G36*
X79462109Y-120213515D02*
G01*
X82537891Y-120213515D01*
X82537891Y-122386485D01*
X79462109Y-122386485D01*
X79462109Y-120726595D01*
X80051310Y-120726595D01*
X80080838Y-120794222D01*
X80156085Y-120823750D01*
X80386590Y-120823750D01*
X80386590Y-121890550D01*
X80417070Y-121959130D01*
X80491365Y-121989610D01*
X80565660Y-121959130D01*
X80596140Y-121890550D01*
X80596140Y-121888645D01*
X80996190Y-121888645D01*
X81026670Y-121957225D01*
X81097155Y-121987705D01*
X81158115Y-121965798D01*
X81194310Y-121922935D01*
X81264557Y-121802920D01*
X81334328Y-121682905D01*
X81403622Y-121562890D01*
X81472440Y-121442875D01*
X81750570Y-121922935D01*
X81788670Y-121967703D01*
X81849630Y-121987705D01*
X81918210Y-121957225D01*
X81948690Y-121888645D01*
X81943928Y-121859118D01*
X81933450Y-121835305D01*
X81596265Y-121273330D01*
X81904875Y-120760885D01*
X81918210Y-120709450D01*
X81888683Y-120638965D01*
X81821055Y-120610390D01*
X81755333Y-120637060D01*
X81712470Y-120686590D01*
X81472440Y-121101880D01*
X81232410Y-120686590D01*
X81188595Y-120633250D01*
X81125730Y-120610390D01*
X81056198Y-120639918D01*
X81026670Y-120707545D01*
X81040005Y-120760885D01*
X81350520Y-121273330D01*
X81293582Y-121367098D01*
X81237067Y-121460443D01*
X81180975Y-121553365D01*
X81124883Y-121646498D01*
X81068368Y-121740478D01*
X81011430Y-121835305D01*
X81000953Y-121859118D01*
X80996190Y-121888645D01*
X80596140Y-121888645D01*
X80596140Y-120823750D01*
X80826645Y-120823750D01*
X80901893Y-120794222D01*
X80933325Y-120726595D01*
X80899988Y-120656110D01*
X80826645Y-120627535D01*
X80156085Y-120627535D01*
X80081790Y-120660872D01*
X80051310Y-120726595D01*
X79462109Y-120726595D01*
X79462109Y-120213515D01*
G37*
%TO.C,kibuzzard-62AABB98*%
G36*
X72533920Y-58005395D02*
G01*
X72616023Y-58069391D01*
X72661416Y-58168113D01*
X72676547Y-58293625D01*
X72676547Y-58702406D01*
X72660176Y-58828166D01*
X72611062Y-58927633D01*
X72527719Y-58992373D01*
X72408656Y-59013953D01*
X72288354Y-58992373D01*
X72205258Y-58927633D01*
X72156889Y-58828166D01*
X72140766Y-58702406D01*
X72140766Y-58293625D01*
X72155896Y-58168113D01*
X72201289Y-58069391D01*
X72283393Y-58005395D01*
X72408656Y-57984062D01*
X72533920Y-58005395D01*
G37*
G36*
X71103268Y-57368245D02*
G01*
X74896732Y-57368245D01*
X74896732Y-59631755D01*
X71103268Y-59631755D01*
X71103268Y-58702406D01*
X71922484Y-58702406D01*
X71930174Y-58806338D01*
X71953242Y-58903820D01*
X71991441Y-58991877D01*
X72044523Y-59067531D01*
X72112736Y-59129791D01*
X72196328Y-59177664D01*
X72295051Y-59208174D01*
X72408656Y-59218344D01*
X72522262Y-59208174D01*
X72620984Y-59177664D01*
X72704576Y-59129791D01*
X72722784Y-59113172D01*
X73119062Y-59113172D01*
X73149820Y-59186594D01*
X73226219Y-59218344D01*
X73304602Y-59186594D01*
X73337344Y-59113172D01*
X73337344Y-58230125D01*
X73853281Y-59160797D01*
X73898922Y-59202469D01*
X73960438Y-59218344D01*
X74044773Y-59185602D01*
X74077516Y-59107219D01*
X74077516Y-57886828D01*
X74046758Y-57812414D01*
X73970359Y-57781656D01*
X73891977Y-57812414D01*
X73859234Y-57886828D01*
X73859234Y-58771859D01*
X73794742Y-58658750D01*
X73751830Y-58580863D01*
X73704453Y-58494047D01*
X73653604Y-58400781D01*
X73600273Y-58303547D01*
X73546943Y-58206809D01*
X73496094Y-58115031D01*
X73448717Y-58029703D01*
X73405805Y-57952312D01*
X73343297Y-57841187D01*
X73297656Y-57797531D01*
X73234156Y-57781656D01*
X73150813Y-57813406D01*
X73119062Y-57892781D01*
X73119062Y-59113172D01*
X72722784Y-59113172D01*
X72772789Y-59067531D01*
X72825871Y-58991877D01*
X72864070Y-58903820D01*
X72887139Y-58806338D01*
X72894828Y-58702406D01*
X72894828Y-58293625D01*
X72888131Y-58192918D01*
X72868039Y-58097172D01*
X72833312Y-58009611D01*
X72782711Y-57933461D01*
X72715738Y-57870457D01*
X72631898Y-57822336D01*
X72529951Y-57791826D01*
X72408656Y-57781656D01*
X72287361Y-57791826D01*
X72185414Y-57822336D01*
X72101574Y-57870457D01*
X72034602Y-57933461D01*
X71984000Y-58009611D01*
X71949273Y-58097172D01*
X71929182Y-58192918D01*
X71922484Y-58293625D01*
X71922484Y-58702406D01*
X71103268Y-58702406D01*
X71103268Y-57368245D01*
G37*
%TO.C,kibuzzard-62AABB7B*%
G36*
X71113190Y-52368245D02*
G01*
X74886810Y-52368245D01*
X74886810Y-54631755D01*
X71113190Y-54631755D01*
X71113190Y-53702406D01*
X71526602Y-53702406D01*
X71534291Y-53806338D01*
X71557359Y-53903820D01*
X71595559Y-53991877D01*
X71648641Y-54067531D01*
X71716854Y-54129791D01*
X71800445Y-54177664D01*
X71899168Y-54208174D01*
X72012773Y-54218344D01*
X72126379Y-54208174D01*
X72225102Y-54177664D01*
X72308693Y-54129791D01*
X72324727Y-54115156D01*
X72723180Y-54115156D01*
X72754930Y-54186594D01*
X72832320Y-54218344D01*
X72909711Y-54186594D01*
X72941461Y-54115156D01*
X73703461Y-54115156D01*
X73735211Y-54186594D01*
X73812602Y-54218344D01*
X73889992Y-54186594D01*
X73921742Y-54115156D01*
X73921742Y-53599219D01*
X74326555Y-53599219D01*
X74402953Y-53569453D01*
X74433711Y-53496031D01*
X74399977Y-53423602D01*
X74326555Y-53394828D01*
X73921742Y-53394828D01*
X73921742Y-53001922D01*
X74364258Y-53001922D01*
X74441648Y-52974141D01*
X74473398Y-52902703D01*
X74441648Y-52830273D01*
X74364258Y-52799516D01*
X73826492Y-52799516D01*
X73738188Y-52836227D01*
X73703461Y-52916594D01*
X73703461Y-54115156D01*
X72941461Y-54115156D01*
X72941461Y-53599219D01*
X73346273Y-53599219D01*
X73422672Y-53569453D01*
X73453430Y-53496031D01*
X73419695Y-53423602D01*
X73346273Y-53394828D01*
X72941461Y-53394828D01*
X72941461Y-53001922D01*
X73383977Y-53001922D01*
X73461367Y-52974141D01*
X73493117Y-52902703D01*
X73461367Y-52830273D01*
X73383977Y-52799516D01*
X72846211Y-52799516D01*
X72757906Y-52836227D01*
X72723180Y-52916594D01*
X72723180Y-54115156D01*
X72324727Y-54115156D01*
X72376906Y-54067531D01*
X72429988Y-53991877D01*
X72468188Y-53903820D01*
X72491256Y-53806338D01*
X72498945Y-53702406D01*
X72498945Y-53293625D01*
X72492248Y-53192918D01*
X72472156Y-53097172D01*
X72437430Y-53009611D01*
X72386828Y-52933461D01*
X72319855Y-52870457D01*
X72236016Y-52822336D01*
X72134068Y-52791826D01*
X72012773Y-52781656D01*
X71891479Y-52791826D01*
X71789531Y-52822336D01*
X71705691Y-52870457D01*
X71638719Y-52933461D01*
X71588117Y-53009611D01*
X71553391Y-53097172D01*
X71533299Y-53192918D01*
X71526602Y-53293625D01*
X71526602Y-53702406D01*
X71113190Y-53702406D01*
X71113190Y-52368245D01*
G37*
G36*
X72138037Y-53005395D02*
G01*
X72220141Y-53069391D01*
X72265533Y-53168113D01*
X72280664Y-53293625D01*
X72280664Y-53702406D01*
X72264293Y-53828166D01*
X72215180Y-53927633D01*
X72131836Y-53992373D01*
X72012773Y-54013953D01*
X71892471Y-53992373D01*
X71809375Y-53927633D01*
X71761006Y-53828166D01*
X71744883Y-53702406D01*
X71744883Y-53293625D01*
X71760014Y-53168113D01*
X71805406Y-53069391D01*
X71887510Y-53005395D01*
X72012773Y-52984062D01*
X72138037Y-53005395D01*
G37*
%TO.C,kibuzzard-62AAC137*%
G36*
X97239972Y-130903990D02*
G01*
X102760028Y-130903990D01*
X102760028Y-133096010D01*
X97239972Y-133096010D01*
X97239972Y-132567690D01*
X97636847Y-132567690D01*
X97681615Y-132656273D01*
X97785437Y-132680085D01*
X98290262Y-132680085D01*
X98364557Y-132651510D01*
X98395037Y-132579120D01*
X98374994Y-132537210D01*
X98516957Y-132537210D01*
X98557915Y-132611505D01*
X98656975Y-132661035D01*
X98780800Y-132688658D01*
X98896052Y-132697230D01*
X98987969Y-132690563D01*
X99073217Y-132670560D01*
X99149656Y-132637461D01*
X99208355Y-132596265D01*
X99541847Y-132596265D01*
X99573280Y-132668655D01*
X99646622Y-132699135D01*
X99720917Y-132667703D01*
X99751397Y-132596265D01*
X99751397Y-132535305D01*
X100549592Y-132535305D01*
X100597217Y-132618173D01*
X100708660Y-132666750D01*
X100835342Y-132689610D01*
X100930592Y-132695325D01*
X101036558Y-132685086D01*
X101125855Y-132654368D01*
X101199674Y-132607695D01*
X101230904Y-132577215D01*
X101526858Y-132577215D01*
X101556385Y-132650558D01*
X101633538Y-132680085D01*
X102260283Y-132680085D01*
X102333625Y-132652463D01*
X102363153Y-132584835D01*
X102333625Y-132517208D01*
X102260283Y-132489585D01*
X101785938Y-132489585D01*
X101873568Y-132367665D01*
X101982152Y-132255270D01*
X102039779Y-132200025D01*
X102098357Y-132144780D01*
X102155984Y-132089059D01*
X102210753Y-132032385D01*
X102268141Y-131961186D01*
X102314575Y-131880938D01*
X102345293Y-131787354D01*
X102355533Y-131676150D01*
X102327910Y-131529465D01*
X102246947Y-131410403D01*
X102117408Y-131330392D01*
X102035969Y-131308247D01*
X101944053Y-131300865D01*
X101822133Y-131312295D01*
X101691640Y-131346585D01*
X101587818Y-131402783D01*
X101545908Y-131479935D01*
X101577340Y-131547563D01*
X101646873Y-131573280D01*
X101708785Y-131554230D01*
X101770697Y-131519940D01*
X101849755Y-131496128D01*
X101942148Y-131487555D01*
X102032397Y-131502795D01*
X102097405Y-131548515D01*
X102136696Y-131616143D01*
X102149793Y-131697105D01*
X102122170Y-131812358D01*
X102052638Y-131915228D01*
X101960245Y-132007620D01*
X101865947Y-132093345D01*
X101771174Y-132185738D01*
X101681162Y-132280035D01*
X101602105Y-132381476D01*
X101540193Y-132495300D01*
X101528763Y-132536258D01*
X101526858Y-132577215D01*
X101230904Y-132577215D01*
X101259205Y-132549593D01*
X101304687Y-132481965D01*
X101336357Y-132406718D01*
X101354931Y-132328374D01*
X101361123Y-132251460D01*
X101334452Y-132102870D01*
X101261110Y-131987618D01*
X101148715Y-131910465D01*
X101004887Y-131874270D01*
X101077277Y-131783544D01*
X101149667Y-131694248D01*
X101222057Y-131604951D01*
X101294447Y-131514225D01*
X101319212Y-131443740D01*
X101285875Y-131364683D01*
X101208723Y-131335155D01*
X100677227Y-131335155D01*
X100603885Y-131369445D01*
X100574357Y-131438025D01*
X100603885Y-131506605D01*
X100677227Y-131535180D01*
X101041082Y-131535180D01*
X100728662Y-131929515D01*
X100721995Y-131953328D01*
X100719137Y-131980950D01*
X100744855Y-132044768D01*
X100808672Y-132072390D01*
X100836295Y-132069533D01*
X100858202Y-132061913D01*
X100882015Y-132054293D01*
X100915352Y-132051435D01*
X101009412Y-132063579D01*
X101085850Y-132100013D01*
X101136571Y-132164544D01*
X101153478Y-132260985D01*
X101141095Y-132349568D01*
X101100137Y-132430530D01*
X101022985Y-132489585D01*
X100903922Y-132512445D01*
X100820102Y-132501015D01*
X100753427Y-132476250D01*
X100697230Y-132451485D01*
X100646747Y-132440055D01*
X100577215Y-132468630D01*
X100549592Y-132535305D01*
X99751397Y-132535305D01*
X99751397Y-132203835D01*
X99941897Y-132203835D01*
X100041434Y-132196691D01*
X100130492Y-132175260D01*
X100208359Y-132140256D01*
X100274320Y-132092393D01*
X100327422Y-132031433D01*
X100366712Y-131957138D01*
X100391001Y-131870698D01*
X100399097Y-131773305D01*
X100393144Y-131689485D01*
X100375285Y-131609475D01*
X100343852Y-131535656D01*
X100297180Y-131470410D01*
X100234553Y-131415641D01*
X100155257Y-131373255D01*
X100058102Y-131346109D01*
X99941897Y-131337060D01*
X99661862Y-131337060D01*
X99577090Y-131371350D01*
X99541847Y-131451360D01*
X99541847Y-132596265D01*
X99208355Y-132596265D01*
X99215140Y-132591503D01*
X99268480Y-132533400D01*
X99308485Y-132463868D01*
X99333488Y-132383143D01*
X99341822Y-132291465D01*
X99317057Y-132148590D01*
X99251335Y-132049530D01*
X99157990Y-131982855D01*
X99048452Y-131935230D01*
X98934152Y-131896178D01*
X98829377Y-131853315D01*
X98797945Y-131835218D01*
X98767465Y-131805690D01*
X98743652Y-131759970D01*
X98734127Y-131693295D01*
X98751272Y-131606618D01*
X98797945Y-131551373D01*
X98865572Y-131522798D01*
X98943677Y-131514225D01*
X99024640Y-131521845D01*
X99084647Y-131539943D01*
X99134177Y-131558040D01*
X99181802Y-131565660D01*
X99258955Y-131537085D01*
X99286577Y-131470410D01*
X99245620Y-131393258D01*
X99147512Y-131347537D01*
X99030355Y-131325630D01*
X98932247Y-131319915D01*
X98814032Y-131331239D01*
X98713384Y-131365212D01*
X98630305Y-131421832D01*
X98568392Y-131498350D01*
X98531245Y-131592013D01*
X98518862Y-131702820D01*
X98543627Y-131848553D01*
X98609350Y-131949518D01*
X98703647Y-132017145D01*
X98814137Y-132063818D01*
X98927485Y-132101918D01*
X99031307Y-132142875D01*
X99093220Y-132193358D01*
X99124652Y-132304800D01*
X99110603Y-132389096D01*
X99068455Y-132451485D01*
X98997732Y-132490061D01*
X98897957Y-132502920D01*
X98796992Y-132493395D01*
X98719840Y-132471488D01*
X98660785Y-132449580D01*
X98614112Y-132440055D01*
X98544580Y-132469583D01*
X98516957Y-132537210D01*
X98374994Y-132537210D01*
X98363605Y-132513397D01*
X98290262Y-132485775D01*
X97846397Y-132485775D01*
X97846397Y-132104775D01*
X98235017Y-132104775D01*
X98308360Y-132076200D01*
X98337887Y-132005715D01*
X98305502Y-131936183D01*
X98235017Y-131908560D01*
X97846397Y-131908560D01*
X97846397Y-131533275D01*
X98271212Y-131533275D01*
X98345507Y-131506605D01*
X98375987Y-131438025D01*
X98345507Y-131366587D01*
X98271212Y-131337060D01*
X97754957Y-131337060D01*
X97670185Y-131372303D01*
X97636847Y-131449455D01*
X97636847Y-132567690D01*
X97239972Y-132567690D01*
X97239972Y-130903990D01*
G37*
G36*
X100065722Y-131554230D02*
G01*
X100140970Y-131608523D01*
X100179070Y-131684722D01*
X100189547Y-131771400D01*
X100174069Y-131875580D01*
X100127635Y-131949994D01*
X100050244Y-131994642D01*
X99941897Y-132009525D01*
X99751397Y-132009525D01*
X99751397Y-131533275D01*
X99941897Y-131533275D01*
X100065722Y-131554230D01*
G37*
%TD*%
M02*
