M48
; DRILL file {KiCad (6.0.5)} date Tue Jun 28 11:16:50 2022
; FORMAT={-:-/ absolute / metric / decimal}
; #@! TF.CreationDate,2022-06-28T11:16:50+05:30
; #@! TF.GenerationSoftware,Kicad,Pcbnew,(6.0.5)
; #@! TF.FileFunction,Plated,1,2,PTH
FMAT,2
METRIC
; #@! TA.AperFunction,Plated,PTH,ViaDrill
T1C0.400
; #@! TA.AperFunction,Plated,PTH,ComponentDrill
T2C0.400
; #@! TA.AperFunction,Plated,PTH,ComponentDrill
T3C0.500
; #@! TA.AperFunction,Plated,PTH,ComponentDrill
T4C1.000
; #@! TA.AperFunction,Plated,PTH,ComponentDrill
T5C1.100
; #@! TA.AperFunction,Plated,PTH,ComponentDrill
T6C1.520
; #@! TA.AperFunction,Plated,PTH,ComponentDrill
T7C2.200
; #@! TA.AperFunction,Plated,PTH,ComponentDrill
T8C2.700
%
G90
G05
T1
X71.075Y-91.147
X72.8Y-85.2
X74.3Y-92.8
X77.0Y-102.7
X77.2Y-106.3
X78.3Y-100.0
X78.3Y-109.9
X80.74Y-88.96
X83.225Y-84.075
X83.6Y-108.9
X84.0Y-104.8
X90.6Y-108.9
X94.2Y-105.3
X95.5Y-103.9
X98.196Y-110.325
X98.2Y-100.4
X99.4Y-112.6
X99.5Y-102.3
X99.6Y-101.2
X100.0Y-105.6
X100.2Y-96.6
X102.4Y-73.6
X104.1Y-95.0
X105.5Y-115.6
X105.9Y-150.7
X109.5Y-94.4
X116.1Y-100.2
X122.8Y-88.8
X125.4Y-109.3
X125.5Y-88.7
X128.3Y-98.7
X128.4Y-91.1
T2
X76.8Y-47.0
X76.8Y-65.0
X76.8Y-135.0
X76.8Y-153.0
X77.283Y-45.833
X77.283Y-48.167
X77.283Y-63.833
X77.283Y-66.167
X77.283Y-133.833
X77.283Y-136.167
X77.283Y-151.833
X77.283Y-154.167
X78.45Y-45.35
X78.45Y-48.65
X78.45Y-63.35
X78.45Y-66.65
X78.45Y-133.35
X78.45Y-136.65
X78.45Y-151.35
X78.45Y-154.65
X79.617Y-45.833
X79.617Y-48.167
X79.617Y-63.833
X79.617Y-66.167
X79.617Y-133.833
X79.617Y-136.167
X79.617Y-151.833
X79.617Y-154.167
X80.1Y-47.0
X80.1Y-65.0
X80.1Y-135.0
X80.1Y-153.0
X98.35Y-80.25
X98.35Y-119.75
X98.833Y-79.083
X98.833Y-81.417
X98.833Y-118.583
X98.833Y-120.917
X100.0Y-78.6
X100.0Y-81.9
X100.0Y-118.1
X100.0Y-121.4
X101.167Y-79.083
X101.167Y-81.417
X101.167Y-118.583
X101.167Y-120.917
X101.65Y-80.25
X101.65Y-119.75
X119.9Y-47.0
X119.9Y-65.0
X119.9Y-135.0
X119.9Y-153.0
X120.383Y-45.833
X120.383Y-48.167
X120.383Y-63.833
X120.383Y-66.167
X120.383Y-133.833
X120.383Y-136.167
X120.383Y-151.833
X120.383Y-154.167
X121.55Y-45.35
X121.55Y-48.65
X121.55Y-63.35
X121.55Y-66.65
X121.55Y-133.35
X121.55Y-136.65
X121.55Y-151.35
X121.55Y-154.65
X122.717Y-45.833
X122.717Y-48.167
X122.717Y-63.833
X122.717Y-66.167
X122.717Y-133.833
X122.717Y-136.167
X122.717Y-151.833
X122.717Y-154.167
X123.2Y-47.0
X123.2Y-65.0
X123.2Y-135.0
X123.2Y-153.0
T3
X59.975Y-47.0
X59.975Y-153.0
X60.568Y-45.568
X60.568Y-48.432
X60.568Y-151.568
X60.568Y-154.432
X62.0Y-44.975
X62.0Y-49.025
X62.0Y-150.975
X62.0Y-155.025
X63.432Y-45.568
X63.432Y-48.432
X63.432Y-151.568
X63.432Y-154.432
X64.025Y-47.0
X64.025Y-153.0
X135.975Y-47.0
X135.975Y-153.0
X136.568Y-45.568
X136.568Y-48.432
X136.568Y-151.568
X136.568Y-154.432
X138.0Y-44.975
X138.0Y-49.025
X138.0Y-150.975
X138.0Y-155.025
X139.432Y-45.568
X139.432Y-48.432
X139.432Y-151.568
X139.432Y-154.432
X140.025Y-47.0
X140.025Y-153.0
T4
X62.1Y-135.0
X68.6Y-135.0
X85.7Y-51.7
X85.7Y-60.3
X85.7Y-139.7
X85.7Y-148.3
X114.3Y-51.7
X114.3Y-60.3
X114.3Y-139.7
X114.3Y-148.3
T5
X97.46Y-68.0
X100.0Y-68.0
X102.54Y-68.0
T6
X97.46Y-49.5
X102.54Y-49.5
T7
X78.45Y-47.0
X78.45Y-65.0
X78.45Y-135.0
X78.45Y-153.0
X100.0Y-80.25
X100.0Y-119.75
X121.55Y-47.0
X121.55Y-65.0
X121.55Y-135.0
X121.55Y-153.0
T8
X62.0Y-47.0
X62.0Y-153.0
X138.0Y-47.0
X138.0Y-153.0
T0
M30
